adventprofmm_reg_it_krn.ufo
<glyph name="exclam" format="1">
  <advance width="188"/>
  <unicode hex="0021"/>
  <outline>
    <contour>
      <point x="115" y="610" type="curve" smooth="yes"/>
      <point x="36" y="109" type="line"/>
      <point x="79" y="109" type="line"/>
      <point x="175" y="611" type="line" smooth="yes"/>
      <point x="179" y="633"/>
      <point x="171" y="644"/>
      <point x="151" y="644" type="curve" smooth="yes"/>
      <point x="131" y="644"/>
      <point x="119" y="633"/>
    </contour>
    <contour>
      <point x="48" y="61" type="curve" smooth="yes"/>
      <point x="31" y="61"/>
      <point x="16" y="47"/>
      <point x="13" y="31" type="curve" smooth="yes"/>
      <point x="10" y="14"/>
      <point x="21" y="0"/>
      <point x="38" y="0" type="curve" smooth="yes"/>
      <point x="55" y="0"/>
      <point x="70" y="14"/>
      <point x="73" y="31" type="curve" smooth="yes"/>
      <point x="76" y="47"/>
      <point x="65" y="61"/>
    </contour>
  </outline>
</glyph>
<glyph name="quotedbl" format="1">
  <advance width="221"/>
  <unicode hex="0022"/>
  <outline>
    <contour>
      <point x="144" y="637" type="curve"/>
      <point x="138" y="533" type="line"/>
      <point x="174" y="533" type="line"/>
      <point x="206" y="637" type="line"/>
      <point x="213" y="680"/>
      <point x="151" y="680"/>
    </contour>
    <contour>
      <point x="21" y="637" type="curve"/>
      <point x="15" y="533" type="line"/>
      <point x="51" y="533" type="line"/>
      <point x="83" y="637" type="line"/>
      <point x="90" y="680"/>
      <point x="28" y="680"/>
    </contour>
  </outline>
</glyph>
<glyph name="numbersign" format="1">
  <advance width="564"/>
  <unicode hex="0023"/>
  <outline>
    <contour>
      <point x="545" y="375" type="line"/>
      <point x="554" y="426" type="line"/>
      <point x="432" y="426" type="line"/>
      <point x="517" y="635" type="line"/>
      <point x="468" y="635" type="line"/>
      <point x="383" y="426" type="line"/>
      <point x="275" y="426" type="line"/>
      <point x="360" y="635" type="line"/>
      <point x="310" y="635" type="line"/>
      <point x="225" y="426" type="line"/>
      <point x="56" y="426" type="line"/>
      <point x="47" y="375" type="line"/>
      <point x="204" y="375" type="line"/>
      <point x="140" y="221" type="line"/>
      <point x="19" y="221" type="line"/>
      <point x="11" y="172" type="line"/>
      <point x="120" y="172" type="line"/>
      <point x="50" y="0" type="line"/>
      <point x="100" y="0" type="line"/>
      <point x="170" y="172" type="line"/>
      <point x="278" y="172" type="line"/>
      <point x="208" y="0" type="line"/>
      <point x="258" y="0" type="line"/>
      <point x="328" y="172" type="line"/>
      <point x="509" y="172" type="line"/>
      <point x="517" y="221" type="line"/>
      <point x="347" y="221" type="line"/>
      <point x="412" y="375" type="line"/>
    </contour>
    <contour>
      <point x="254" y="375" type="line"/>
      <point x="362" y="375" type="line"/>
      <point x="298" y="221" type="line"/>
      <point x="190" y="221" type="line"/>
    </contour>
  </outline>
</glyph>
<glyph name="dollar" format="1">
  <advance width="481"/>
  <unicode hex="0024"/>
  <outline>
    <contour>
      <point x="446" y="561" type="curve"/>
      <point x="471" y="608" type="line"/>
      <point x="433" y="631"/>
      <point x="381" y="643"/>
      <point x="329" y="643" type="curve" smooth="yes"/>
      <point x="279" y="642"/>
      <point x="228" y="630"/>
      <point x="187" y="604" type="curve" smooth="yes"/>
      <point x="149" y="580"/>
      <point x="121" y="545"/>
      <point x="110" y="497" type="curve" smooth="yes"/>
      <point x="89" y="406"/>
      <point x="149" y="365"/>
      <point x="219" y="332" type="curve" smooth="yes"/>
      <point x="247" y="319"/>
      <point x="276" y="307"/>
      <point x="302" y="294" type="curve" smooth="yes"/>
      <point x="362" y="265"/>
      <point x="409" y="230"/>
      <point x="394" y="161" type="curve" smooth="yes"/>
      <point x="386" y="127"/>
      <point x="369" y="101"/>
      <point x="348" y="82" type="curve" smooth="yes"/>
      <point x="310" y="50"/>
      <point x="258" y="37"/>
      <point x="208" y="37" type="curve" smooth="yes"/>
      <point x="157" y="37"/>
      <point x="120" y="56"/>
      <point x="99" y="75" type="curve" smooth="yes"/>
      <point x="61" y="108"/>
      <point x="57" y="145"/>
      <point x="57" y="145" type="curve"/>
      <point x="11" y="119" type="line"/>
      <point x="11" y="119"/>
      <point x="20" y="70"/>
      <point x="65" y="32" type="curve" smooth="yes"/>
      <point x="94" y="8"/>
      <point x="137" y="-12"/>
      <point x="203" y="-12" type="curve" smooth="yes"/>
      <point x="261" y="-12"/>
      <point x="323" y="3"/>
      <point x="371" y="38" type="curve" smooth="yes"/>
      <point x="408" y="66"/>
      <point x="436" y="106"/>
      <point x="448" y="162" type="curve" smooth="yes"/>
      <point x="468" y="255"/>
      <point x="407" y="303"/>
      <point x="334" y="338" type="curve" smooth="yes"/>
      <point x="305" y="353"/>
      <point x="274" y="366"/>
      <point x="246" y="379" type="curve" smooth="yes"/>
      <point x="190" y="405"/>
      <point x="148" y="435"/>
      <point x="161" y="491" type="curve" smooth="yes"/>
      <point x="169" y="526"/>
      <point x="190" y="551"/>
      <point x="217" y="568" type="curve" smooth="yes"/>
      <point x="247" y="585"/>
      <point x="283" y="594"/>
      <point x="321" y="594" type="curve" smooth="yes"/>
      <point x="366" y="594"/>
      <point x="412" y="582"/>
    </contour>
    <contour>
      <point x="372" y="741" type="line"/>
      <point x="321" y="741" type="line"/>
      <point x="172" y="-103" type="line"/>
      <point x="223" y="-103" type="line"/>
    </contour>
  </outline>
</glyph>
<glyph name="percent" format="1">
  <advance width="678"/>
  <unicode hex="0025"/>
  <outline>
    <contour>
      <point x="668" y="635" type="line"/>
      <point x="610" y="635" type="line"/>
      <point x="11" y="0" type="line"/>
      <point x="72" y="0" type="line"/>
    </contour>
    <contour>
      <point x="240" y="647" type="curve" smooth="yes"/>
      <point x="167" y="647"/>
      <point x="97" y="588"/>
      <point x="84" y="515" type="curve" smooth="yes"/>
      <point x="71" y="442"/>
      <point x="120" y="383"/>
      <point x="193" y="383" type="curve" smooth="yes"/>
      <point x="266" y="383"/>
      <point x="335" y="442"/>
      <point x="348" y="515" type="curve" smooth="yes"/>
      <point x="361" y="588"/>
      <point x="313" y="647"/>
    </contour>
    <contour>
      <point x="231" y="601" type="curve" smooth="yes"/>
      <point x="278" y="601"/>
      <point x="311" y="562"/>
      <point x="302" y="515" type="curve" smooth="yes"/>
      <point x="294" y="468"/>
      <point x="248" y="429"/>
      <point x="201" y="429" type="curve" smooth="yes"/>
      <point x="154" y="429"/>
      <point x="122" y="468"/>
      <point x="130" y="515" type="curve" smooth="yes"/>
      <point x="139" y="562"/>
      <point x="184" y="601"/>
    </contour>
    <contour>
      <point x="497" y="251" type="curve" smooth="yes"/>
      <point x="425" y="251"/>
      <point x="355" y="192"/>
      <point x="342" y="119" type="curve" smooth="yes"/>
      <point x="330" y="46"/>
      <point x="378" y="-13"/>
      <point x="450" y="-13" type="curve" smooth="yes"/>
      <point x="523" y="-13"/>
      <point x="593" y="46"/>
      <point x="605" y="119" type="curve" smooth="yes"/>
      <point x="618" y="192"/>
      <point x="570" y="251"/>
    </contour>
    <contour>
      <point x="489" y="205" type="curve" smooth="yes"/>
      <point x="537" y="205"/>
      <point x="568" y="167"/>
      <point x="559" y="119" type="curve" smooth="yes"/>
      <point x="551" y="72"/>
      <point x="506" y="34"/>
      <point x="458" y="34" type="curve" smooth="yes"/>
      <point x="411" y="34"/>
      <point x="380" y="72"/>
      <point x="388" y="119" type="curve" smooth="yes"/>
      <point x="397" y="167"/>
      <point x="442" y="205"/>
    </contour>
  </outline>
</glyph>
<glyph name="ampersand" format="1">
  <advance width="494"/>
  <unicode hex="0026"/>
  <outline>
    <contour>
      <point x="416" y="592" type="curve"/>
      <point x="446" y="638" type="line"/>
      <point x="446" y="638"/>
      <point x="348" y="638"/>
      <point x="296" y="638" type="curve" smooth="yes"/>
      <point x="212" y="638"/>
      <point x="152" y="578"/>
      <point x="142" y="496" type="curve" smooth="yes"/>
      <point x="136" y="459"/>
      <point x="136" y="410"/>
      <point x="180" y="365" type="curve"/>
      <point x="178" y="365"/>
      <point x="174" y="366"/>
      <point x="172" y="365" type="curve"/>
      <point x="106" y="360"/>
      <point x="52" y="325"/>
      <point x="35" y="231" type="curve" smooth="yes"/>
      <point x="30" y="202"/>
      <point x="25" y="174"/>
      <point x="20" y="145" type="curve" smooth="yes"/>
      <point x="5" y="42"/>
      <point x="55" y="-5"/>
      <point x="155" y="-5" type="curve" smooth="yes"/>
      <point x="196" y="-5"/>
      <point x="262" y="13"/>
      <point x="306" y="56" type="curve"/>
      <point x="315" y="24"/>
      <point x="338" y="4"/>
      <point x="378" y="-8" type="curve"/>
      <point x="397" y="31" type="line"/>
      <point x="359" y="45"/>
      <point x="343" y="76"/>
      <point x="351" y="124" type="curve" smooth="yes"/>
      <point x="385" y="317" type="line"/>
      <point x="454" y="317" type="line"/>
      <point x="484" y="366" type="line"/>
      <point x="394" y="366" type="line"/>
      <point x="410" y="459" type="line"/>
      <point x="362" y="459" type="line"/>
      <point x="346" y="365" type="line"/>
      <point x="325" y="365"/>
      <point x="304" y="365"/>
      <point x="300" y="365" type="curve" smooth="yes"/>
      <point x="227" y="365"/>
      <point x="180" y="422"/>
      <point x="193" y="494" type="curve" smooth="yes"/>
      <point x="201" y="552"/>
      <point x="240" y="592"/>
      <point x="291" y="592" type="curve" smooth="yes"/>
      <point x="324" y="592"/>
      <point x="416" y="592"/>
    </contour>
    <contour>
      <point x="337" y="317" type="curve"/>
      <point x="310" y="160" type="line" smooth="yes"/>
      <point x="298" y="96"/>
      <point x="249" y="52"/>
      <point x="173" y="45" type="curve" smooth="yes"/>
      <point x="94" y="38"/>
      <point x="59" y="79"/>
      <point x="72" y="149" type="curve" smooth="yes"/>
      <point x="73" y="154"/>
      <point x="85" y="225"/>
      <point x="86" y="228" type="curve"/>
      <point x="100" y="311"/>
      <point x="157" y="317"/>
      <point x="190" y="317" type="curve" smooth="yes"/>
      <point x="217" y="317"/>
      <point x="288" y="317"/>
    </contour>
  </outline>
</glyph>
<glyph name="quotesingle" format="1">
  <advance width="97"/>
  <unicode hex="0027"/>
  <outline>
    <contour>
      <point x="21" y="638" type="curve"/>
      <point x="15" y="534" type="line"/>
      <point x="52" y="534" type="line"/>
      <point x="82" y="638" type="line"/>
      <point x="89" y="680"/>
      <point x="28" y="680"/>
    </contour>
  </outline>
</glyph>
<glyph name="parenleft" format="1">
  <advance width="259"/>
  <unicode hex="0028"/>
  <outline>
    <contour>
      <point x="249" y="707" type="curve"/>
      <point x="238" y="741" type="line"/>
      <point x="169" y="706"/>
      <point x="129" y="659"/>
      <point x="113" y="568" type="curve" smooth="yes"/>
      <point x="24" y="64" type="line" smooth="yes"/>
      <point x="3" y="-53"/>
      <point x="48" y="-74"/>
      <point x="88" y="-108" type="curve"/>
      <point x="111" y="-74" type="line"/>
      <point x="76" y="-44"/>
      <point x="63" y="-1"/>
      <point x="73" y="56" type="curve" smooth="yes"/>
      <point x="104" y="230"/>
      <point x="135" y="403"/>
      <point x="165" y="577" type="curve" smooth="yes"/>
      <point x="175" y="634"/>
      <point x="203" y="677"/>
    </contour>
  </outline>
</glyph>
<glyph name="parenright" format="1">
  <advance width="257"/>
  <unicode hex="0029"/>
  <outline>
    <contour>
      <point x="148" y="707" type="curve"/>
      <point x="171" y="741" type="line"/>
      <point x="228" y="706"/>
      <point x="252" y="659"/>
      <point x="236" y="568" type="curve" smooth="yes"/>
      <point x="147" y="64" type="line" smooth="yes"/>
      <point x="126" y="-53"/>
      <point x="73" y="-74"/>
      <point x="21" y="-108" type="curve"/>
      <point x="11" y="-74" type="line"/>
      <point x="57" y="-44"/>
      <point x="84" y="-1"/>
      <point x="94" y="56" type="curve" smooth="yes"/>
      <point x="125" y="230"/>
      <point x="156" y="403"/>
      <point x="186" y="577" type="curve" smooth="yes"/>
      <point x="196" y="634"/>
      <point x="184" y="677"/>
    </contour>
  </outline>
</glyph>
<glyph name="asterisk" format="1">
  <advance width="298"/>
  <unicode hex="002A"/>
  <outline>
    <contour>
      <point x="102" y="490" type="line"/>
      <point x="28" y="408" type="line"/>
      <point x="65" y="380" type="line"/>
      <point x="139" y="467" type="line"/>
      <point x="187" y="380" type="line"/>
      <point x="228" y="408" type="line"/>
      <point x="183" y="490" type="line"/>
      <point x="288" y="525" type="line"/>
      <point x="277" y="568" type="line"/>
      <point x="173" y="532" type="line"/>
      <point x="191" y="635" type="line"/>
      <point x="142" y="635" type="line"/>
      <point x="124" y="532" type="line"/>
      <point x="36" y="568" type="line"/>
      <point x="12" y="525" type="line"/>
    </contour>
  </outline>
</glyph>
<glyph name="plus" format="1">
  <advance width="321"/>
  <unicode hex="002B"/>
  <outline>
    <contour>
      <point x="142" y="361" type="line"/>
      <point x="21" y="361" type="line"/>
      <point x="12" y="311" type="line"/>
      <point x="133" y="311" type="line"/>
      <point x="112" y="190" type="line"/>
      <point x="162" y="190" type="line"/>
      <point x="183" y="311" type="line"/>
      <point x="302" y="311" type="line"/>
      <point x="311" y="361" type="line"/>
      <point x="192" y="361" type="line"/>
      <point x="213" y="480" type="line"/>
      <point x="163" y="480" type="line"/>
    </contour>
  </outline>
</glyph>
<glyph name="comma" format="1">
  <advance width="107"/>
  <unicode hex="002C"/>
  <outline>
    <contour>
      <point x="11" y="-77" type="curve"/>
      <point x="25" y="-88" type="line"/>
      <point x="46" y="-72"/>
      <point x="81" y="-36"/>
      <point x="92" y="21" type="curve"/>
      <point x="94" y="39"/>
      <point x="83" y="51"/>
      <point x="66" y="51" type="curve" smooth="yes"/>
      <point x="49" y="51"/>
      <point x="34" y="38"/>
      <point x="31" y="21" type="curve" smooth="yes"/>
      <point x="29" y="6"/>
      <point x="37" y="-6"/>
      <point x="51" y="-9" type="curve"/>
      <point x="46" y="-28"/>
      <point x="34" y="-53"/>
    </contour>
  </outline>
</glyph>
<glyph name="hyphen" format="1">
  <advance width="324"/>
  <unicode hex="002D"/>
  <outline>
    <contour>
      <point x="313" y="375" type="line"/>
      <point x="23" y="375" type="line"/>
      <point x="13" y="323" type="line"/>
      <point x="303" y="323" type="line"/>
    </contour>
  </outline>
</glyph>
<glyph name="period" format="1">
  <advance width="90"/>
  <unicode hex="002E"/>
  <outline>
    <contour>
      <point x="49" y="52" type="curve" smooth="yes"/>
      <point x="33" y="52"/>
      <point x="16" y="39"/>
      <point x="13" y="22" type="curve" smooth="yes"/>
      <point x="10" y="5"/>
      <point x="22" y="-8"/>
      <point x="38" y="-8" type="curve" smooth="yes"/>
      <point x="55" y="-8"/>
      <point x="71" y="5"/>
      <point x="74" y="22" type="curve" smooth="yes"/>
      <point x="77" y="39"/>
      <point x="66" y="52"/>
    </contour>
  </outline>
</glyph>
<glyph name="one" format="1">
  <advance width="156"/>
  <unicode hex="0031"/>
  <outline>
    <contour>
      <point x="2" y="564" type="curve"/>
      <point x="8" y="528" type="line"/>
      <point x="38" y="532"/>
      <point x="93" y="557"/>
      <point x="118" y="575" type="curve"/>
      <point x="17" y="0" type="line"/>
      <point x="65" y="0" type="line"/>
      <point x="176" y="635" type="line"/>
      <point x="127" y="635" type="line"/>
      <point x="76" y="583"/>
      <point x="2" y="564"/>
    </contour>
  </outline>
</glyph>
<glyph name="two" format="1">
  <advance width="374"/>
  <unicode hex="0032"/>
  <outline>
    <contour>
      <point x="83" y="535" type="curve"/>
      <point x="127" y="517" type="line"/>
      <point x="156" y="571"/>
      <point x="201" y="595"/>
      <point x="242" y="595" type="curve" smooth="yes"/>
      <point x="295" y="596"/>
      <point x="338" y="556"/>
      <point x="326" y="490" type="curve" smooth="yes"/>
      <point x="321" y="462"/>
      <point x="311" y="442"/>
      <point x="268" y="386" type="curve" smooth="yes"/>
      <point x="176" y="268"/>
      <point x="78" y="160"/>
      <point x="-15" y="48" type="curve"/>
      <point x="-23" y="0" type="line"/>
      <point x="294" y="0" type="line"/>
      <point x="302" y="48" type="line"/>
      <point x="44" y="48" type="line"/>
      <point x="131" y="151"/>
      <point x="218" y="255"/>
      <point x="306" y="358" type="curve"/>
      <point x="355" y="422"/>
      <point x="374" y="463"/>
      <point x="380" y="499" type="curve" smooth="yes"/>
      <point x="398" y="591"/>
      <point x="330" y="645"/>
      <point x="252" y="644" type="curve" smooth="yes"/>
      <point x="191" y="643"/>
      <point x="124" y="609"/>
    </contour>
  </outline>
</glyph>
<glyph name="three" format="1">
  <advance width="374"/>
  <unicode hex="0033"/>
  <outline>
    <contour>
      <point x="193" y="375" type="curve" smooth="yes"/>
      <point x="191" y="375" type="line"/>
      <point x="374" y="590" type="line"/>
      <point x="381" y="635" type="line"/>
      <point x="118" y="635" type="line"/>
      <point x="109" y="583" type="line"/>
      <point x="310" y="583" type="line"/>
      <point x="89" y="323" type="line"/>
      <point x="189" y="323" type="line" smooth="yes"/>
      <point x="227" y="323"/>
      <point x="257" y="308"/>
      <point x="279" y="279" type="curve" smooth="yes"/>
      <point x="300" y="252"/>
      <point x="307" y="220"/>
      <point x="300" y="181" type="curve" smooth="yes"/>
      <point x="294" y="142"/>
      <point x="275" y="110"/>
      <point x="242" y="82" type="curve" smooth="yes"/>
      <point x="209" y="53"/>
      <point x="173" y="40"/>
      <point x="134" y="40" type="curve" smooth="yes"/>
      <point x="83" y="40"/>
      <point x="47" y="61"/>
      <point x="26" y="102" type="curve"/>
      <point x="-20" y="75" type="line"/>
      <point x="5" y="22"/>
      <point x="60" y="-11"/>
      <point x="125" y="-11" type="curve" smooth="yes"/>
      <point x="179" y="-11"/>
      <point x="228" y="8"/>
      <point x="271" y="45" type="curve" smooth="yes"/>
      <point x="315" y="82"/>
      <point x="342" y="128"/>
      <point x="351" y="181" type="curve" smooth="yes"/>
      <point x="361" y="235"/>
      <point x="350" y="281"/>
      <point x="320" y="318" type="curve" smooth="yes"/>
      <point x="289" y="355"/>
      <point x="247" y="375"/>
    </contour>
  </outline>
</glyph>
<glyph name="four" format="1">
  <advance width="391"/>
  <unicode hex="0034"/>
  <outline>
    <contour>
      <point x="326" y="323" type="line"/>
      <point x="374" y="323" type="line"/>
      <point x="402" y="375" type="line"/>
      <point x="336" y="375" type="line"/>
      <point x="381" y="635" type="line"/>
      <point x="330" y="635" type="line"/>
      <point x="285" y="375" type="line"/>
      <point x="85" y="375" type="line"/>
      <point x="272" y="635" type="line"/>
      <point x="219" y="635" type="line"/>
      <point x="-12" y="323" type="line"/>
      <point x="275" y="323" type="line"/>
      <point x="219" y="0" type="line"/>
      <point x="270" y="0" type="line"/>
    </contour>
  </outline>
</glyph>
<glyph name="five" format="1">
  <advance width="376"/>
  <unicode hex="0035"/>
  <outline>
    <contour>
      <point x="119" y="374" type="curve"/>
      <point x="178" y="583" type="line"/>
      <point x="374" y="583" type="line"/>
      <point x="383" y="635" type="line"/>
      <point x="142" y="635" type="line"/>
      <point x="54" y="323" type="line"/>
      <point x="158" y="323" type="line" smooth="yes"/>
      <point x="268" y="323"/>
      <point x="317" y="261"/>
      <point x="303" y="182" type="curve" smooth="yes"/>
      <point x="287" y="95"/>
      <point x="208" y="40"/>
      <point x="135" y="40" type="curve" smooth="yes"/>
      <point x="55" y="40"/>
      <point x="7" y="81"/>
      <point x="7" y="81" type="curve"/>
      <point x="-20" y="38" type="line"/>
      <point x="-20" y="38"/>
      <point x="48" y="-11"/>
      <point x="129" y="-11" type="curve" smooth="yes"/>
      <point x="250" y="-11"/>
      <point x="337" y="87"/>
      <point x="353" y="180" type="curve" smooth="yes"/>
      <point x="377" y="312"/>
      <point x="286" y="374"/>
      <point x="167" y="374" type="curve" smooth="yes"/>
      <point x="157" y="374"/>
      <point x="129" y="374"/>
    </contour>
  </outline>
</glyph>
<glyph name="six" format="1">
  <advance width="391"/>
  <unicode hex="0036"/>
  <outline>
    <contour>
      <point x="286" y="587" type="curve" smooth="yes"/>
      <point x="321" y="587" type="line"/>
      <point x="329" y="635" type="line"/>
      <point x="298" y="635" type="line" smooth="yes"/>
      <point x="217" y="635"/>
      <point x="151" y="601"/>
      <point x="110" y="558" type="curve" smooth="yes"/>
      <point x="69" y="516"/>
      <point x="47" y="468"/>
      <point x="38" y="418" type="curve" smooth="yes"/>
      <point x="-3" y="184" type="line" smooth="yes"/>
      <point x="-13" y="130"/>
      <point x="-2" y="84"/>
      <point x="30" y="47" type="curve" smooth="yes"/>
      <point x="60" y="10"/>
      <point x="103" y="-9"/>
      <point x="156" y="-9" type="curve" smooth="yes"/>
      <point x="210" y="-9"/>
      <point x="258" y="10"/>
      <point x="302" y="47" type="curve" smooth="yes"/>
      <point x="346" y="84"/>
      <point x="373" y="130"/>
      <point x="383" y="184" type="curve" smooth="yes"/>
      <point x="392" y="237"/>
      <point x="381" y="283"/>
      <point x="350" y="320" type="curve" smooth="yes"/>
      <point x="319" y="357"/>
      <point x="277" y="376"/>
      <point x="222" y="376" type="curve" smooth="yes"/>
      <point x="166" y="376"/>
      <point x="115" y="355"/>
      <point x="70" y="315" type="curve"/>
      <point x="87" y="412" type="line" smooth="yes"/>
      <point x="97" y="469"/>
      <point x="119" y="508"/>
      <point x="158" y="542" type="curve" smooth="yes"/>
      <point x="195" y="574"/>
      <point x="241" y="587"/>
    </contour>
    <contour>
      <point x="215" y="326" type="curve" smooth="yes"/>
      <point x="294" y="326"/>
      <point x="347" y="262"/>
      <point x="333" y="184" type="curve" smooth="yes"/>
      <point x="319" y="105"/>
      <point x="244" y="41"/>
      <point x="165" y="41" type="curve" smooth="yes"/>
      <point x="86" y="41"/>
      <point x="33" y="105"/>
      <point x="47" y="184" type="curve" smooth="yes"/>
      <point x="61" y="262"/>
      <point x="136" y="326"/>
    </contour>
  </outline>
</glyph>
<glyph name="seven" format="1">
  <advance width="395"/>
  <unicode hex="0037"/>
  <outline>
    <contour>
      <point x="435" y="635" type="line"/>
      <point x="79" y="635" type="line"/>
      <point x="70" y="583" type="line"/>
      <point x="368" y="583" type="line"/>
      <point x="-22" y="0" type="line"/>
      <point x="35" y="0" type="line"/>
      <point x="427" y="585" type="line"/>
    </contour>
  </outline>
</glyph>
<glyph name="eight" format="1">
  <advance width="401"/>
  <unicode hex="0038"/>
  <outline>
    <contour>
      <point x="269" y="643" type="curve" smooth="yes"/>
      <point x="224" y="643"/>
      <point x="184" y="627"/>
      <point x="148" y="596" type="curve" smooth="yes"/>
      <point x="112" y="565"/>
      <point x="90" y="528"/>
      <point x="82" y="483" type="curve" smooth="yes"/>
      <point x="75" y="445"/>
      <point x="80" y="412"/>
      <point x="97" y="386" type="curve"/>
      <point x="104" y="373"/>
      <point x="114" y="362"/>
      <point x="127" y="353" type="curve"/>
      <point x="101" y="340"/>
      <point x="77" y="323"/>
      <point x="58" y="303" type="curve" smooth="yes"/>
      <point x="25" y="270"/>
      <point x="2" y="228"/>
      <point x="-6" y="182" type="curve" smooth="yes"/>
      <point x="-16" y="129"/>
      <point x="-5" y="82"/>
      <point x="25" y="45" type="curve" smooth="yes"/>
      <point x="56" y="8"/>
      <point x="99" y="-11"/>
      <point x="153" y="-11" type="curve" smooth="yes"/>
      <point x="206" y="-11"/>
      <point x="256" y="8"/>
      <point x="299" y="45" type="curve" smooth="yes"/>
      <point x="343" y="82"/>
      <point x="370" y="129"/>
      <point x="380" y="182" type="curve" smooth="yes"/>
      <point x="387" y="225"/>
      <point x="380" y="264"/>
      <point x="362" y="296" type="curve" smooth="yes"/>
      <point x="347" y="321"/>
      <point x="326" y="340"/>
      <point x="308" y="352" type="curve"/>
      <point x="323" y="361"/>
      <point x="338" y="373"/>
      <point x="350" y="385" type="curve" smooth="yes"/>
      <point x="376" y="411"/>
      <point x="393" y="444"/>
      <point x="400" y="483" type="curve" smooth="yes"/>
      <point x="408" y="528"/>
      <point x="399" y="565"/>
      <point x="374" y="596" type="curve" smooth="yes"/>
      <point x="348" y="627"/>
      <point x="313" y="643"/>
    </contour>
    <contour>
      <point x="220" y="374" type="curve" smooth="yes"/>
      <point x="187" y="374"/>
      <point x="160" y="389"/>
      <point x="144" y="412" type="curve" smooth="yes"/>
      <point x="130" y="431"/>
      <point x="125" y="457"/>
      <point x="130" y="484" type="curve" smooth="yes"/>
      <point x="141" y="545"/>
      <point x="198" y="595"/>
      <point x="259" y="595" type="curve" smooth="yes"/>
      <point x="320" y="595"/>
      <point x="361" y="545"/>
      <point x="350" y="484" type="curve" smooth="yes"/>
      <point x="345" y="457"/>
      <point x="330" y="431"/>
      <point x="310" y="412" type="curve" smooth="yes"/>
      <point x="286" y="389"/>
      <point x="253" y="374"/>
    </contour>
    <contour>
      <point x="162" y="40" type="curve" smooth="yes"/>
      <point x="83" y="40"/>
      <point x="31" y="104"/>
      <point x="45" y="182" type="curve" smooth="yes"/>
      <point x="51" y="216"/>
      <point x="68" y="248"/>
      <point x="92" y="272" type="curve" smooth="yes"/>
      <point x="124" y="304"/>
      <point x="168" y="324"/>
      <point x="212" y="324" type="curve" smooth="yes"/>
      <point x="259" y="324"/>
      <point x="297" y="302"/>
      <point x="317" y="267" type="curve"/>
      <point x="329" y="243"/>
      <point x="334" y="214"/>
      <point x="329" y="182" type="curve" smooth="yes"/>
      <point x="315" y="104"/>
      <point x="241" y="40"/>
    </contour>
  </outline>
</glyph>
<glyph name="nine" format="1">
  <advance width="387"/>
  <unicode hex="0039"/>
  <outline>
    <contour>
      <point x="236" y="643" type="curve" smooth="yes"/>
      <point x="182" y="643"/>
      <point x="134" y="624"/>
      <point x="90" y="587" type="curve" smooth="yes"/>
      <point x="46" y="550"/>
      <point x="19" y="504"/>
      <point x="10" y="450" type="curve" smooth="yes"/>
      <point x="1" y="397"/>
      <point x="11" y="351"/>
      <point x="42" y="314" type="curve" smooth="yes"/>
      <point x="72" y="277"/>
      <point x="115" y="258"/>
      <point x="171" y="258" type="curve" smooth="yes"/>
      <point x="226" y="258"/>
      <point x="277" y="279"/>
      <point x="322" y="320" type="curve"/>
      <point x="305" y="223" type="line" smooth="yes"/>
      <point x="295" y="165"/>
      <point x="271" y="123"/>
      <point x="232" y="93" type="curve" smooth="yes"/>
      <point x="194" y="64"/>
      <point x="152" y="49"/>
      <point x="106" y="49" type="curve" smooth="yes"/>
      <point x="71" y="49" type="line"/>
      <point x="62" y="-1" type="line"/>
      <point x="94" y="-1" type="line" smooth="yes"/>
      <point x="174" y="-1"/>
      <point x="243" y="31"/>
      <point x="283" y="76" type="curve" smooth="yes"/>
      <point x="321" y="119"/>
      <point x="345" y="166"/>
      <point x="354" y="216" type="curve" smooth="yes"/>
      <point x="395" y="450" type="line" smooth="yes"/>
      <point x="404" y="504"/>
      <point x="393" y="550"/>
      <point x="363" y="587" type="curve" smooth="yes"/>
      <point x="333" y="624"/>
      <point x="289" y="643"/>
    </contour>
    <contour>
      <point x="227" y="593" type="curve" smooth="yes"/>
      <point x="306" y="593"/>
      <point x="359" y="529"/>
      <point x="345" y="450" type="curve" smooth="yes"/>
      <point x="331" y="372"/>
      <point x="256" y="308"/>
      <point x="177" y="308" type="curve" smooth="yes"/>
      <point x="98" y="308"/>
      <point x="46" y="372"/>
      <point x="60" y="450" type="curve" smooth="yes"/>
      <point x="74" y="529"/>
      <point x="148" y="593"/>
    </contour>
  </outline>
</glyph>
<glyph name="colon" format="1">
  <advance width="125"/>
  <unicode hex="003A"/>
  <outline>
    <contour>
      <point x="74" y="130" type="curve" smooth="yes"/>
      <point x="77" y="147"/>
      <point x="66" y="160"/>
      <point x="50" y="160" type="curve" smooth="yes"/>
      <point x="33" y="160"/>
      <point x="16" y="147"/>
      <point x="13" y="130" type="curve" smooth="yes"/>
      <point x="10" y="113"/>
      <point x="22" y="100"/>
      <point x="39" y="100" type="curve" smooth="yes"/>
      <point x="55" y="100"/>
      <point x="71" y="113"/>
    </contour>
    <contour>
      <point x="113" y="349" type="curve" smooth="yes"/>
      <point x="116" y="366"/>
      <point x="104" y="379"/>
      <point x="88" y="379" type="curve" smooth="yes"/>
      <point x="71" y="379"/>
      <point x="55" y="366"/>
      <point x="52" y="349" type="curve" smooth="yes"/>
      <point x="49" y="332"/>
      <point x="61" y="319"/>
      <point x="78" y="319" type="curve" smooth="yes"/>
      <point x="94" y="319"/>
      <point x="110" y="332"/>
    </contour>
  </outline>
</glyph>
<glyph name="semicolon" format="1">
  <advance width="145"/>
  <unicode hex="003B"/>
  <outline>
    <contour>
      <point x="11" y="32" type="curve"/>
      <point x="25" y="21" type="line"/>
      <point x="46" y="37"/>
      <point x="81" y="73"/>
      <point x="92" y="130" type="curve" smooth="yes"/>
      <point x="95" y="148"/>
      <point x="84" y="160"/>
      <point x="67" y="160" type="curve" smooth="yes"/>
      <point x="50" y="160"/>
      <point x="34" y="147"/>
      <point x="31" y="130" type="curve" smooth="yes"/>
      <point x="29" y="115"/>
      <point x="37" y="102"/>
      <point x="51" y="100" type="curve"/>
      <point x="46" y="81"/>
      <point x="34" y="56"/>
    </contour>
    <contour>
      <point x="133" y="349" type="curve" smooth="yes"/>
      <point x="136" y="366"/>
      <point x="124" y="379"/>
      <point x="108" y="379" type="curve" smooth="yes"/>
      <point x="91" y="379"/>
      <point x="75" y="366"/>
      <point x="72" y="349" type="curve" smooth="yes"/>
      <point x="69" y="332"/>
      <point x="81" y="319"/>
      <point x="98" y="319" type="curve" smooth="yes"/>
      <point x="114" y="319"/>
      <point x="130" y="332"/>
    </contour>
  </outline>
</glyph>
<glyph name="less" format="1">
  <advance width="348"/>
  <unicode hex="003C"/>
  <outline>
    <contour>
      <point x="261" y="107" type="line"/>
      <point x="81" y="324" type="line"/>
      <point x="338" y="543" type="line"/>
      <point x="308" y="577" type="line"/>
      <point x="12" y="325" type="line"/>
      <point x="219" y="72" type="line"/>
    </contour>
  </outline>
</glyph>
<glyph name="equal" format="1">
  <advance width="338"/>
  <unicode hex="003D"/>
  <outline>
    <contour>
      <point x="327" y="374" type="line"/>
      <point x="37" y="374" type="line"/>
      <point x="29" y="324" type="line"/>
      <point x="319" y="324" type="line"/>
    </contour>
    <contour>
      <point x="311" y="279" type="line"/>
      <point x="21" y="279" type="line"/>
      <point x="12" y="229" type="line"/>
      <point x="302" y="229" type="line"/>
    </contour>
  </outline>
</glyph>
<glyph name="greater" format="1">
  <advance width="347"/>
  <unicode hex="003E"/>
  <outline>
    <contour>
      <point x="11" y="107" type="line"/>
      <point x="40" y="72" type="line"/>
      <point x="337" y="325" type="line"/>
      <point x="129" y="577" type="line"/>
      <point x="88" y="543" type="line"/>
      <point x="268" y="324" type="line"/>
    </contour>
  </outline>
</glyph>
<glyph name="question" format="1">
  <advance width="351"/>
  <unicode hex="003F"/>
  <outline>
    <contour>
      <point x="12" y="482" type="curve"/>
      <point x="63" y="482" type="line"/>
      <point x="77" y="560"/>
      <point x="139" y="596"/>
      <point x="193" y="595" type="curve" smooth="yes"/>
      <point x="246" y="593"/>
      <point x="294" y="556"/>
      <point x="281" y="485" type="curve" smooth="yes"/>
      <point x="270" y="425"/>
      <point x="228" y="392"/>
      <point x="187" y="353" type="curve" smooth="yes"/>
      <point x="146" y="314"/>
      <point x="102" y="272"/>
      <point x="88" y="192" type="curve" smooth="yes"/>
      <point x="74" y="108" type="line"/>
      <point x="120" y="108" type="line"/>
      <point x="124" y="134"/>
      <point x="129" y="161"/>
      <point x="133" y="187" type="curve" smooth="yes"/>
      <point x="147" y="263"/>
      <point x="187" y="291"/>
      <point x="229" y="332" type="curve" smooth="yes"/>
      <point x="277" y="379"/>
      <point x="320" y="420"/>
      <point x="331" y="487" type="curve" smooth="yes"/>
      <point x="348" y="584"/>
      <point x="282" y="641"/>
      <point x="202" y="643" type="curve" smooth="yes"/>
      <point x="122" y="644"/>
      <point x="32" y="593"/>
    </contour>
    <contour>
      <point x="88" y="52" type="curve" smooth="yes"/>
      <point x="71" y="52"/>
      <point x="54" y="39"/>
      <point x="51" y="22" type="curve" smooth="yes"/>
      <point x="48" y="5"/>
      <point x="60" y="-8"/>
      <point x="77" y="-8" type="curve" smooth="yes"/>
      <point x="93" y="-8"/>
      <point x="109" y="5"/>
      <point x="112" y="22" type="curve" smooth="yes"/>
      <point x="115" y="39"/>
      <point x="104" y="52"/>
    </contour>
  </outline>
</glyph>
<glyph name="at" format="1">
  <advance width="677"/>
  <unicode hex="0040"/>
  <outline>
    <contour>
      <point x="667" y="409" type="curve"/>
      <point x="659" y="446" type="line"/>
      <point x="604" y="431"/>
      <point x="583" y="394"/>
      <point x="572" y="330" type="curve"/>
      <point x="570" y="322"/>
      <point x="541" y="156"/>
      <point x="539" y="147" type="curve" smooth="yes"/>
      <point x="519" y="32"/>
      <point x="398" y="-10"/>
      <point x="284" y="-10" type="curve" smooth="yes"/>
      <point x="145" y="-10"/>
      <point x="59" y="40"/>
      <point x="82" y="172" type="curve" smooth="yes"/>
      <point x="90" y="218"/>
      <point x="98" y="264"/>
      <point x="106" y="310" type="curve" smooth="yes"/>
      <point x="126" y="423"/>
      <point x="212" y="481"/>
      <point x="314" y="481" type="curve" smooth="yes"/>
      <point x="399" y="481"/>
      <point x="452" y="451"/>
      <point x="459" y="402" type="curve"/>
      <point x="409" y="402"/>
      <point x="358" y="402"/>
      <point x="308" y="402" type="curve" smooth="yes"/>
      <point x="241" y="401"/>
      <point x="174" y="368"/>
      <point x="156" y="262" type="curve" smooth="yes"/>
      <point x="147" y="212" type="line" smooth="yes"/>
      <point x="123" y="76"/>
      <point x="208" y="53"/>
      <point x="295" y="55" type="curve" smooth="yes"/>
      <point x="338" y="57"/>
      <point x="447" y="63"/>
      <point x="447" y="63" type="curve"/>
      <point x="464" y="160"/>
      <point x="481" y="256"/>
      <point x="498" y="353" type="curve"/>
      <point x="544" y="353" type="line"/>
      <point x="564" y="402" type="line"/>
      <point x="503" y="402" type="line"/>
      <point x="500" y="468"/>
      <point x="449" y="525"/>
      <point x="319" y="525" type="curve" smooth="yes"/>
      <point x="172" y="525"/>
      <point x="73" y="434"/>
      <point x="51" y="307" type="curve" smooth="yes"/>
      <point x="43" y="264"/>
      <point x="36" y="217"/>
      <point x="27" y="166" type="curve" smooth="yes"/>
      <point x="-1" y="10"/>
      <point x="125" y="-60"/>
      <point x="267" y="-60" type="curve" smooth="yes"/>
      <point x="415" y="-60"/>
      <point x="565" y="2"/>
      <point x="592" y="155" type="curve" smooth="yes"/>
      <point x="624" y="345" type="line" smooth="yes"/>
      <point x="630" y="379"/>
      <point x="644" y="400"/>
    </contour>
    <contour>
      <point x="298" y="353" type="curve" smooth="yes"/>
      <point x="351" y="353"/>
      <point x="403" y="353"/>
      <point x="456" y="353" type="curve"/>
      <point x="413" y="108" type="line"/>
      <point x="413" y="108"/>
      <point x="349" y="101"/>
      <point x="284" y="101" type="curve" smooth="yes"/>
      <point x="212" y="101"/>
      <point x="182" y="138"/>
      <point x="194" y="206" type="curve" smooth="yes"/>
      <point x="203" y="259" type="line" smooth="yes"/>
      <point x="219" y="348"/>
      <point x="269" y="353"/>
    </contour>
  </outline>
</glyph>
<glyph name="B" format="1">
  <advance width="432"/>
  <unicode hex="0042"/>
  <outline>
    <contour>
      <point x="296" y="635" type="curve" smooth="yes"/>
      <point x="96" y="635" type="line"/>
      <point x="-15" y="0" type="line"/>
      <point x="194" y="0" type="line" smooth="yes"/>
      <point x="263" y="0"/>
      <point x="319" y="24"/>
      <point x="352" y="63" type="curve" smooth="yes"/>
      <point x="382" y="99"/>
      <point x="402" y="141"/>
      <point x="411" y="189" type="curve" smooth="yes"/>
      <point x="426" y="276"/>
      <point x="396" y="330"/>
      <point x="346" y="354" type="curve"/>
      <point x="346" y="355" type="line" smooth="yes"/>
      <point x="346" y="356"/>
      <point x="347" y="356"/>
      <point x="347" y="357" type="curve"/>
      <point x="392" y="384"/>
      <point x="419" y="424"/>
      <point x="429" y="478" type="curve" smooth="yes"/>
      <point x="438" y="531"/>
      <point x="431" y="571"/>
      <point x="407" y="596" type="curve" smooth="yes"/>
      <point x="383" y="622"/>
      <point x="346" y="635"/>
    </contour>
    <contour>
      <point x="249" y="374" type="curve" smooth="yes"/>
      <point x="101" y="374" type="line"/>
      <point x="139" y="586" type="line"/>
      <point x="281" y="586" type="line" smooth="yes"/>
      <point x="357" y="586"/>
      <point x="389" y="551"/>
      <point x="376" y="480" type="curve" smooth="yes"/>
      <point x="371" y="453"/>
      <point x="361" y="430"/>
      <point x="346" y="413" type="curve" smooth="yes"/>
      <point x="324" y="387"/>
      <point x="290" y="374"/>
    </contour>
    <contour>
      <point x="200" y="48" type="curve" smooth="yes"/>
      <point x="44" y="48" type="line"/>
      <point x="93" y="324" type="line"/>
      <point x="264" y="324" type="line" smooth="yes"/>
      <point x="327" y="324"/>
      <point x="371" y="277"/>
      <point x="357" y="193" type="curve" smooth="yes"/>
      <point x="339" y="96"/>
      <point x="288" y="48"/>
    </contour>
  </outline>
</glyph>
<glyph name="D" format="1">
  <advance width="442"/>
  <unicode hex="0044"/>
  <outline>
    <contour>
      <point x="267" y="635" type="curve" smooth="yes"/>
      <point x="96" y="635" type="line"/>
      <point x="-15" y="0" type="line"/>
      <point x="174" y="0" type="line" smooth="yes"/>
      <point x="302" y="0"/>
      <point x="376" y="61"/>
      <point x="397" y="181" type="curve" smooth="yes"/>
      <point x="441" y="430" type="line" smooth="yes"/>
      <point x="463" y="554"/>
      <point x="403" y="635"/>
    </contour>
    <contour>
      <point x="166" y="45" type="curve" smooth="yes"/>
      <point x="43" y="45" type="line"/>
      <point x="139" y="589" type="line"/>
      <point x="268" y="589" type="line" smooth="yes"/>
      <point x="374" y="589"/>
      <point x="407" y="522"/>
      <point x="393" y="444" type="curve" smooth="yes"/>
      <point x="345" y="172" type="line" smooth="yes"/>
      <point x="330" y="88"/>
      <point x="270" y="45"/>
    </contour>
  </outline>
</glyph>
<glyph name="F" format="1">
  <advance width="358"/>
  <unicode hex="0046"/>
  <outline>
    <contour>
      <point x="-15" y="0" type="line"/>
      <point x="36" y="0" type="line"/>
      <point x="93" y="324" type="line"/>
      <point x="246" y="324" type="line"/>
      <point x="275" y="374" type="line"/>
      <point x="101" y="374" type="line"/>
      <point x="139" y="586" type="line"/>
      <point x="391" y="586" type="line"/>
      <point x="399" y="635" type="line"/>
      <point x="96" y="635" type="line"/>
    </contour>
  </outline>
</glyph>
<glyph name="H" format="1">
  <advance width="466"/>
  <unicode hex="0048"/>
  <outline>
    <contour>
      <point x="147" y="635" type="line"/>
      <point x="96" y="635" type="line"/>
      <point x="-15" y="0" type="line"/>
      <point x="36" y="0" type="line"/>
      <point x="93" y="324" type="line"/>
      <point x="381" y="324" type="line"/>
      <point x="324" y="0" type="line"/>
      <point x="375" y="0" type="line"/>
      <point x="486" y="635" type="line"/>
      <point x="435" y="635" type="line"/>
      <point x="389" y="374" type="line"/>
      <point x="101" y="374" type="line"/>
    </contour>
  </outline>
</glyph>
<glyph name="J" format="1">
  <advance width="191"/>
  <unicode hex="004A"/>
  <outline>
    <contour>
      <point x="119" y="107" type="curve" smooth="yes"/>
      <point x="212" y="635" type="line"/>
      <point x="100" y="635" type="line"/>
      <point x="93" y="590" type="line"/>
      <point x="152" y="588" type="line"/>
      <point x="67" y="103" type="line" smooth="yes"/>
      <point x="54" y="31"/>
      <point x="15" y="0"/>
      <point x="-25" y="0" type="curve"/>
      <point x="-19" y="-34" type="line"/>
      <point x="20" y="-34"/>
      <point x="52" y="-19"/>
      <point x="76" y="9" type="curve" smooth="yes"/>
      <point x="97" y="33"/>
      <point x="112" y="66"/>
    </contour>
  </outline>
</glyph>
<glyph name="K" format="1">
  <advance width="392"/>
  <unicode hex="004B"/>
  <outline>
    <contour>
      <point x="96" y="635" type="line"/>
      <point x="-15" y="0" type="line"/>
      <point x="36" y="0" type="line"/>
      <point x="79" y="244" type="line"/>
      <point x="134" y="313" type="line"/>
      <point x="284" y="0" type="line"/>
      <point x="345" y="0" type="line"/>
      <point x="175" y="361" type="line"/>
      <point x="409" y="635" type="line"/>
      <point x="350" y="635" type="line"/>
      <point x="94" y="333" type="line"/>
      <point x="147" y="635" type="line"/>
    </contour>
  </outline>
</glyph>
<glyph name="L" format="1">
  <advance width="327"/>
  <unicode hex="004C"/>
  <outline>
    <contour>
      <point x="319" y="45" type="line"/>
      <point x="43" y="45" type="line"/>
      <point x="147" y="635" type="line"/>
      <point x="96" y="635" type="line"/>
      <point x="-15" y="0" type="line"/>
      <point x="312" y="0" type="line"/>
    </contour>
  </outline>
</glyph>
<glyph name="Q" format="1">
  <advance width="434"/>
  <unicode hex="0051"/>
  <outline>
    <contour>
      <point x="55" y="460" type="curve" smooth="yes"/>
      <point x="3" y="168" type="line" smooth="yes"/>
      <point x="-18" y="51"/>
      <point x="56" y="-10"/>
      <point x="163" y="-10" type="curve" smooth="yes"/>
      <point x="275" y="-10"/>
      <point x="365" y="58"/>
      <point x="384" y="168" type="curve" smooth="yes"/>
      <point x="435" y="459" type="line" smooth="yes"/>
      <point x="456" y="577"/>
      <point x="400" y="649"/>
      <point x="280" y="649" type="curve" smooth="yes"/>
      <point x="160" y="649"/>
      <point x="76" y="584"/>
    </contour>
    <contour>
      <point x="54" y="169" type="curve" smooth="yes"/>
      <point x="107" y="468" type="line" smooth="yes"/>
      <point x="123" y="556"/>
      <point x="185" y="601"/>
      <point x="269" y="601" type="curve" smooth="yes"/>
      <point x="354" y="601"/>
      <point x="403" y="556"/>
      <point x="387" y="468" type="curve" smooth="yes"/>
      <point x="334" y="169" type="line" smooth="yes"/>
      <point x="319" y="80"/>
      <point x="253" y="38"/>
      <point x="170" y="38" type="curve" smooth="yes"/>
      <point x="90" y="38"/>
      <point x="39" y="82"/>
    </contour>
    <contour>
      <point x="195" y="45" type="curve" smooth="yes"/>
      <point x="202" y="82"/>
      <point x="209" y="120"/>
      <point x="215" y="157" type="curve"/>
      <point x="164" y="157" type="line"/>
      <point x="158" y="120"/>
      <point x="151" y="83"/>
      <point x="145" y="46" type="curve" smooth="yes"/>
      <point x="127" y="-55"/>
      <point x="172" y="-97"/>
      <point x="278" y="-97" type="curve"/>
      <point x="292" y="-55" type="line"/>
      <point x="218" y="-56"/>
      <point x="182" y="-30"/>
    </contour>
  </outline>
</glyph>
<glyph name="S" format="1">
  <advance width="439"/>
  <unicode hex="0053"/>
  <outline>
    <contour>
      <point x="419" y="562" type="curve"/>
      <point x="443" y="609" type="line"/>
      <point x="405" y="632"/>
      <point x="353" y="644"/>
      <point x="301" y="643" type="curve" smooth="yes"/>
      <point x="251" y="643"/>
      <point x="200" y="630"/>
      <point x="159" y="604" type="curve" smooth="yes"/>
      <point x="121" y="581"/>
      <point x="93" y="545"/>
      <point x="81" y="497" type="curve" smooth="yes"/>
      <point x="61" y="407"/>
      <point x="121" y="365"/>
      <point x="191" y="332" type="curve" smooth="yes"/>
      <point x="219" y="319"/>
      <point x="248" y="308"/>
      <point x="275" y="295" type="curve" smooth="yes"/>
      <point x="334" y="266"/>
      <point x="381" y="231"/>
      <point x="366" y="161" type="curve" smooth="yes"/>
      <point x="358" y="127"/>
      <point x="341" y="102"/>
      <point x="319" y="83" type="curve" smooth="yes"/>
      <point x="282" y="51"/>
      <point x="230" y="38"/>
      <point x="180" y="38" type="curve" smooth="yes"/>
      <point x="129" y="38"/>
      <point x="92" y="56"/>
      <point x="70" y="76" type="curve" smooth="yes"/>
      <point x="33" y="109"/>
      <point x="29" y="145"/>
      <point x="29" y="145" type="curve"/>
      <point x="-16" y="120" type="line"/>
      <point x="-16" y="120"/>
      <point x="-9" y="70"/>
      <point x="37" y="32" type="curve" smooth="yes"/>
      <point x="66" y="8"/>
      <point x="110" y="-11"/>
      <point x="176" y="-11" type="curve" smooth="yes"/>
      <point x="234" y="-11"/>
      <point x="295" y="3"/>
      <point x="342" y="39" type="curve" smooth="yes"/>
      <point x="380" y="66"/>
      <point x="408" y="107"/>
      <point x="420" y="163" type="curve" smooth="yes"/>
      <point x="441" y="256"/>
      <point x="379" y="303"/>
      <point x="306" y="339" type="curve" smooth="yes"/>
      <point x="277" y="354"/>
      <point x="246" y="366"/>
      <point x="217" y="379" type="curve" smooth="yes"/>
      <point x="162" y="406"/>
      <point x="120" y="436"/>
      <point x="133" y="492" type="curve" smooth="yes"/>
      <point x="140" y="526"/>
      <point x="162" y="551"/>
      <point x="189" y="568" type="curve" smooth="yes"/>
      <point x="218" y="586"/>
      <point x="255" y="594"/>
      <point x="293" y="594" type="curve" smooth="yes"/>
      <point x="338" y="595"/>
      <point x="384" y="583"/>
    </contour>
  </outline>
</glyph>
<glyph name="V" format="1">
  <advance width="404"/>
  <unicode hex="0056"/>
  <outline>
    <contour>
      <point x="151" y="0" type="line"/>
      <point x="443" y="635" type="line"/>
      <point x="389" y="635" type="line"/>
      <point x="127" y="63" type="line"/>
      <point x="65" y="635" type="line"/>
      <point x="10" y="635" type="line"/>
      <point x="81" y="0" type="line"/>
    </contour>
  </outline>
</glyph>
<glyph name="W" format="1">
  <advance width="606"/>
  <unicode hex="0057"/>
  <outline>
    <contour>
      <point x="96" y="63" type="line"/>
      <point x="67" y="635" type="line"/>
      <point x="12" y="635" type="line"/>
      <point x="51" y="0" type="line"/>
      <point x="128" y="0" type="line"/>
      <point x="313" y="543" type="line"/>
      <point x="307" y="0" type="line"/>
      <point x="384" y="0" type="line"/>
      <point x="643" y="635" type="line"/>
      <point x="589" y="635" type="line"/>
      <point x="361" y="63" type="line"/>
      <point x="364" y="635" type="line"/>
      <point x="293" y="635" type="line"/>
    </contour>
  </outline>
</glyph>
<glyph name="Z" format="1">
  <advance width="498"/>
  <unicode hex="005A"/>
  <outline>
    <contour>
      <point x="91" y="588" type="line"/>
      <point x="451" y="588" type="line"/>
      <point x="-16" y="45" type="line"/>
      <point x="-23" y="0" type="line"/>
      <point x="418" y="0" type="line"/>
      <point x="426" y="46" type="line"/>
      <point x="49" y="46" type="line"/>
      <point x="516" y="589" type="line"/>
      <point x="524" y="635" type="line"/>
      <point x="99" y="635" type="line"/>
    </contour>
  </outline>
</glyph>
<glyph name="bracketleft" format="1">
  <advance width="316"/>
  <unicode hex="005B"/>
  <outline>
    <contour>
      <point x="306" y="741" type="line"/>
      <point x="160" y="741" type="line"/>
      <point x="11" y="-103" type="line"/>
      <point x="157" y="-103" type="line"/>
      <point x="164" y="-63" type="line"/>
      <point x="71" y="-54" type="line"/>
      <point x="202" y="691" type="line"/>
      <point x="299" y="700" type="line"/>
    </contour>
  </outline>
</glyph>
<glyph name="backslash" format="1">
  <advance width="217"/>
  <unicode hex="005C"/>
  <outline>
    <contour>
      <point x="62" y="741" type="line"/>
      <point x="11" y="741" type="line"/>
      <point x="152" y="-103" type="line"/>
      <point x="207" y="-103" type="line"/>
    </contour>
  </outline>
</glyph>
<glyph name="asciicircum" format="1">
  <advance width="380"/>
  <unicode hex="005E"/>
  <outline>
    <contour>
      <point x="441" y="700" type="line"/>
      <point x="345" y="815" type="line"/>
      <point x="205" y="699" type="line"/>
      <point x="234" y="664" type="line"/>
      <point x="333" y="746" type="line"/>
      <point x="400" y="666" type="line"/>
    </contour>
  </outline>
</glyph>
<glyph name="underscore" format="1">
  <advance width="327"/>
  <unicode hex="005F"/>
  <outline>
    <contour>
      <point x="311" y="0" type="line"/>
      <point x="21" y="0" type="line"/>
      <point x="12" y="-51" type="line"/>
      <point x="302" y="-51" type="line"/>
    </contour>
  </outline>
</glyph>
<glyph name="grave" format="1">
  <advance width="216"/>
  <unicode hex="0060"/>
  <outline>
    <contour>
      <point x="218" y="650" type="line"/>
      <point x="216" y="667"/>
      <point x="199" y="677"/>
      <point x="181" y="668" type="curve" smooth="yes"/>
      <point x="164" y="659"/>
      <point x="159" y="638"/>
      <point x="168" y="625" type="curve"/>
      <point x="203" y="553" type="line"/>
      <point x="236" y="553" type="line"/>
    </contour>
  </outline>
</glyph>
<glyph name="a" format="1">
  <advance width="378"/>
  <unicode hex="0061"/>
  <outline>
    <contour>
      <point x="324" y="317" type="curve"/>
      <point x="287" y="341"/>
      <point x="233" y="365"/>
      <point x="174" y="365" type="curve" smooth="yes"/>
      <point x="101" y="365"/>
      <point x="29" y="330"/>
      <point x="11" y="228" type="curve" smooth="yes"/>
      <point x="6" y="203"/>
      <point x="2" y="178"/>
      <point x="-3" y="153" type="curve" smooth="yes"/>
      <point x="-26" y="19"/>
      <point x="57" y="-13"/>
      <point x="175" y="-9" type="curve" smooth="yes"/>
      <point x="220" y="-8"/>
      <point x="320" y="0"/>
      <point x="320" y="0" type="curve"/>
      <point x="335" y="87"/>
      <point x="350" y="174"/>
      <point x="366" y="261" type="curve" smooth="yes"/>
      <point x="380" y="341"/>
      <point x="384" y="404"/>
      <point x="332" y="436" type="curve" smooth="yes"/>
      <point x="298" y="458"/>
      <point x="254" y="461"/>
      <point x="212" y="461" type="curve"/>
      <point x="203" y="422" type="line"/>
      <point x="237" y="422"/>
      <point x="267" y="419"/>
      <point x="288" y="408" type="curve" smooth="yes"/>
      <point x="319" y="393"/>
      <point x="333" y="367"/>
    </contour>
    <contour>
      <point x="317" y="275" type="curve"/>
      <point x="303" y="197"/>
      <point x="290" y="120"/>
      <point x="276" y="42" type="curve"/>
      <point x="276" y="42"/>
      <point x="238" y="38"/>
      <point x="179" y="35" type="curve" smooth="yes"/>
      <point x="57" y="30"/>
      <point x="33" y="73"/>
      <point x="49" y="159" type="curve" smooth="yes"/>
      <point x="52" y="177"/>
      <point x="57" y="205"/>
      <point x="60" y="226" type="curve" smooth="yes"/>
      <point x="75" y="308"/>
      <point x="129" y="322"/>
      <point x="162" y="322" type="curve" smooth="yes"/>
      <point x="220" y="322"/>
      <point x="271" y="299"/>
    </contour>
  </outline>
</glyph>
<glyph name="b" format="1">
  <advance width="395"/>
  <unicode hex="0062"/>
  <outline>
    <contour>
      <point x="111" y="428" type="curve"/>
      <point x="147" y="635" type="line"/>
      <point x="96" y="635" type="line"/>
      <point x="-15" y="0" type="line"/>
      <point x="-15" y="0"/>
      <point x="81" y="-8"/>
      <point x="126" y="-9" type="curve" smooth="yes"/>
      <point x="242" y="-13"/>
      <point x="337" y="19"/>
      <point x="360" y="153" type="curve" smooth="yes"/>
      <point x="371" y="210"/>
      <point x="381" y="268"/>
      <point x="391" y="325" type="curve" smooth="yes"/>
      <point x="409" y="427"/>
      <point x="337" y="462"/>
      <point x="264" y="462" type="curve" smooth="yes"/>
      <point x="205" y="462"/>
      <point x="155" y="446"/>
    </contour>
    <contour>
      <point x="43" y="42" type="curve"/>
      <point x="63" y="156"/>
      <point x="83" y="270"/>
      <point x="103" y="384" type="curve"/>
      <point x="156" y="404"/>
      <point x="202" y="419"/>
      <point x="260" y="419" type="curve" smooth="yes"/>
      <point x="294" y="419"/>
      <point x="355" y="405"/>
      <point x="340" y="322" type="curve" smooth="yes"/>
      <point x="337" y="302"/>
      <point x="315" y="177"/>
      <point x="312" y="159" type="curve" smooth="yes"/>
      <point x="296" y="73"/>
      <point x="258" y="30"/>
      <point x="138" y="35" type="curve" smooth="yes"/>
      <point x="79" y="38"/>
      <point x="43" y="42"/>
    </contour>
  </outline>
</glyph>
<glyph name="c" format="1">
  <advance width="321"/>
  <unicode hex="0063"/>
  <outline>
    <contour>
      <point x="313" y="391" type="curve"/>
      <point x="335" y="433" type="line"/>
      <point x="287" y="457"/>
      <point x="228" y="469"/>
      <point x="174" y="458" type="curve" smooth="yes"/>
      <point x="132" y="449"/>
      <point x="93" y="427"/>
      <point x="62" y="387" type="curve" smooth="yes"/>
      <point x="40" y="358"/>
      <point x="29" y="329"/>
      <point x="19" y="289" type="curve"/>
      <point x="-4" y="157" type="line" smooth="yes"/>
      <point x="-20" y="68"/>
      <point x="12" y="21"/>
      <point x="71" y="1" type="curve" smooth="yes"/>
      <point x="122" y="-16"/>
      <point x="197" y="-12"/>
      <point x="261" y="5" type="curve"/>
      <point x="259" y="50" type="line"/>
      <point x="259" y="50"/>
      <point x="144" y="24"/>
      <point x="90" y="47" type="curve" smooth="yes"/>
      <point x="45" y="65"/>
      <point x="38" y="108"/>
      <point x="48" y="168" type="curve" smooth="yes"/>
      <point x="67" y="277" type="line" smooth="yes"/>
      <point x="73" y="310"/>
      <point x="84" y="337"/>
      <point x="99" y="358" type="curve" smooth="yes"/>
      <point x="119" y="387"/>
      <point x="145" y="405"/>
      <point x="174" y="412" type="curve" smooth="yes"/>
      <point x="215" y="422"/>
      <point x="274" y="411"/>
    </contour>
  </outline>
</glyph>
<glyph name="d" format="1">
  <advance width="414"/>
  <unicode hex="0064"/>
  <outline>
    <contour>
      <point x="323" y="0" type="curve"/>
      <point x="434" y="635" type="line"/>
      <point x="384" y="635" type="line"/>
      <point x="348" y="428" type="line"/>
      <point x="309" y="446"/>
      <point x="265" y="462"/>
      <point x="206" y="462" type="curve" smooth="yes"/>
      <point x="133" y="462"/>
      <point x="49" y="427"/>
      <point x="31" y="325" type="curve" smooth="yes"/>
      <point x="21" y="268"/>
      <point x="11" y="210"/>
      <point x="0" y="153" type="curve" smooth="yes"/>
      <point x="-23" y="19"/>
      <point x="61" y="-13"/>
      <point x="179" y="-9" type="curve" smooth="yes"/>
      <point x="223" y="-8"/>
      <point x="323" y="0"/>
    </contour>
    <contour>
      <point x="340" y="384" type="curve"/>
      <point x="320" y="270"/>
      <point x="300" y="156"/>
      <point x="280" y="42" type="curve"/>
      <point x="280" y="42"/>
      <point x="241" y="38"/>
      <point x="183" y="35" type="curve" smooth="yes"/>
      <point x="61" y="30"/>
      <point x="36" y="73"/>
      <point x="52" y="159" type="curve" smooth="yes"/>
      <point x="55" y="177"/>
      <point x="77" y="302"/>
      <point x="80" y="322" type="curve" smooth="yes"/>
      <point x="95" y="405"/>
      <point x="161" y="419"/>
      <point x="194" y="419" type="curve" smooth="yes"/>
      <point x="252" y="419"/>
      <point x="295" y="404"/>
    </contour>
  </outline>
</glyph>
<glyph name="f" format="1">
  <advance width="230"/>
  <unicode hex="0066"/>
  <outline>
    <contour>
      <point x="248" y="596" type="curve"/>
      <point x="264" y="641" type="line"/>
      <point x="254" y="644"/>
      <point x="243" y="644"/>
      <point x="232" y="644" type="curve" smooth="yes"/>
      <point x="172" y="645"/>
      <point x="91" y="612"/>
      <point x="71" y="498" type="curve" smooth="yes"/>
      <point x="-16" y="0" type="line"/>
      <point x="35" y="0" type="line"/>
      <point x="106" y="405" type="line"/>
      <point x="189" y="405" type="line"/>
      <point x="218" y="453" type="line"/>
      <point x="114" y="453" type="line"/>
      <point x="117" y="468"/>
      <point x="120" y="483"/>
      <point x="122" y="498" type="curve" smooth="yes"/>
      <point x="134" y="565"/>
      <point x="169" y="598"/>
      <point x="225" y="598" type="curve" smooth="yes"/>
      <point x="232" y="598"/>
      <point x="240" y="597"/>
    </contour>
  </outline>
</glyph>
<glyph name="g" format="1">
  <advance width="375"/>
  <unicode hex="0067"/>
  <outline>
    <contour>
      <point x="295" y="-58" type="curve" smooth="yes"/>
      <point x="385" y="453" type="line"/>
      <point x="334" y="453" type="line"/>
      <point x="327" y="410" type="line"/>
      <point x="293" y="443"/>
      <point x="250" y="460"/>
      <point x="206" y="462" type="curve" smooth="yes"/>
      <point x="108" y="466"/>
      <point x="43" y="409"/>
      <point x="26" y="314" type="curve" smooth="yes"/>
      <point x="-1" y="159" type="line" smooth="yes"/>
      <point x="-21" y="48"/>
      <point x="23" y="-11"/>
      <point x="124" y="-11" type="curve" smooth="yes"/>
      <point x="179" y="-11"/>
      <point x="237" y="18"/>
      <point x="264" y="55" type="curve"/>
      <point x="244" y="-57" type="line" smooth="yes"/>
      <point x="236" y="-105"/>
      <point x="210" y="-136"/>
      <point x="167" y="-152" type="curve"/>
      <point x="174" y="-191" type="line"/>
      <point x="247" y="-169"/>
      <point x="282" y="-131"/>
    </contour>
    <contour>
      <point x="317" y="356" type="curve"/>
      <point x="282" y="157" type="line" smooth="yes"/>
      <point x="269" y="80"/>
      <point x="204" y="36"/>
      <point x="135" y="36" type="curve" smooth="yes"/>
      <point x="66" y="36"/>
      <point x="35" y="75"/>
      <point x="48" y="151" type="curve" smooth="yes"/>
      <point x="76" y="311" type="line" smooth="yes"/>
      <point x="91" y="393"/>
      <point x="153" y="421"/>
      <point x="209" y="416" type="curve" smooth="yes"/>
      <point x="248" y="413"/>
      <point x="297" y="394"/>
    </contour>
  </outline>
</glyph>
<glyph name="i" format="1">
  <advance width="130"/>
  <unicode hex="0069"/>
  <outline>
    <contour>
      <point x="116" y="454" type="line"/>
      <point x="65" y="454" type="line"/>
      <point x="-15" y="0" type="line"/>
      <point x="36" y="0" type="line"/>
    </contour>
    <contour>
      <point x="124" y="644" type="curve" smooth="yes"/>
      <point x="107" y="644"/>
      <point x="91" y="630"/>
      <point x="88" y="613" type="curve" smooth="yes"/>
      <point x="85" y="596"/>
      <point x="96" y="583"/>
      <point x="113" y="583" type="curve" smooth="yes"/>
      <point x="129" y="583"/>
      <point x="146" y="596"/>
      <point x="149" y="613" type="curve" smooth="yes"/>
      <point x="152" y="630"/>
      <point x="140" y="644"/>
    </contour>
  </outline>
</glyph>
<glyph name="j" format="1">
  <advance width="196"/>
  <unicode hex="006A"/>
  <outline>
    <contour>
      <point x="89" y="-57" type="curve" smooth="yes"/>
      <point x="180" y="454" type="line"/>
      <point x="71" y="454" type="line"/>
      <point x="62" y="406" type="line"/>
      <point x="120" y="406" type="line"/>
      <point x="39" y="-56" type="line" smooth="yes"/>
      <point x="34" y="-82"/>
      <point x="25" y="-103"/>
      <point x="11" y="-119" type="curve" smooth="yes"/>
      <point x="-2" y="-133"/>
      <point x="-18" y="-144"/>
      <point x="-37" y="-151" type="curve"/>
      <point x="-29" y="-190" type="line"/>
      <point x="2" y="-180"/>
      <point x="25" y="-168"/>
      <point x="44" y="-151" type="curve" smooth="yes"/>
      <point x="69" y="-128"/>
      <point x="82" y="-98"/>
    </contour>
    <contour>
      <point x="215" y="613" type="curve" smooth="yes"/>
      <point x="218" y="630"/>
      <point x="206" y="643"/>
      <point x="189" y="643" type="curve" smooth="yes"/>
      <point x="172" y="643"/>
      <point x="157" y="630"/>
      <point x="154" y="613" type="curve" smooth="yes"/>
      <point x="151" y="596"/>
      <point x="161" y="583"/>
      <point x="178" y="583" type="curve" smooth="yes"/>
      <point x="195" y="583"/>
      <point x="212" y="596"/>
    </contour>
  </outline>
</glyph>
<glyph name="k" format="1">
  <advance width="333"/>
  <unicode hex="006B"/>
  <outline>
    <contour>
      <point x="176" y="319" type="curve"/>
      <point x="330" y="436" type="line"/>
      <point x="301" y="471" type="line"/>
      <point x="89" y="304" type="line"/>
      <point x="147" y="635" type="line"/>
      <point x="96" y="635" type="line"/>
      <point x="-15" y="0" type="line"/>
      <point x="36" y="0" type="line"/>
      <point x="79" y="247" type="line"/>
      <point x="133" y="287" type="line"/>
      <point x="257" y="0" type="line"/>
      <point x="318" y="0" type="line"/>
      <point x="252" y="144"/>
      <point x="204" y="251"/>
    </contour>
  </outline>
</glyph>
<glyph name="m" format="1">
  <advance width="628"/>
  <unicode hex="006D"/>
  <outline>
    <contour>
      <point x="572" y="310" type="curve" smooth="yes"/>
      <point x="518" y="0" type="line"/>
      <point x="566" y="0" type="line"/>
      <point x="621" y="312" type="line" smooth="yes"/>
      <point x="637" y="408"/>
      <point x="599" y="461"/>
      <point x="498" y="461" type="curve" smooth="yes"/>
      <point x="459" y="461"/>
      <point x="402" y="447"/>
      <point x="346" y="410" type="curve"/>
      <point x="328" y="443"/>
      <point x="290" y="461"/>
      <point x="232" y="461" type="curve" smooth="yes"/>
      <point x="187" y="461"/>
      <point x="149" y="446"/>
      <point x="108" y="422" type="curve"/>
      <point x="113" y="453" type="line"/>
      <point x="62" y="453" type="line"/>
      <point x="-17" y="0" type="line"/>
      <point x="34" y="0" type="line"/>
      <point x="101" y="384" type="line"/>
      <point x="142" y="405"/>
      <point x="174" y="415"/>
      <point x="215" y="415" type="curve" smooth="yes"/>
      <point x="273" y="415"/>
      <point x="321" y="392"/>
      <point x="306" y="310" type="curve" smooth="yes"/>
      <point x="252" y="0" type="line"/>
      <point x="300" y="0" type="line"/>
      <point x="355" y="312" type="line" smooth="yes"/>
      <point x="359" y="337"/>
      <point x="360" y="360"/>
      <point x="356" y="379" type="curve"/>
      <point x="404" y="405"/>
      <point x="445" y="415"/>
      <point x="481" y="415" type="curve" smooth="yes"/>
      <point x="539" y="415"/>
      <point x="587" y="392"/>
    </contour>
  </outline>
</glyph>
<glyph name="n" format="1">
  <advance width="380"/>
  <unicode hex="006E"/>
  <outline>
    <contour>
      <point x="322" y="310" type="curve" smooth="yes"/>
      <point x="268" y="0" type="line"/>
      <point x="318" y="0" type="line"/>
      <point x="373" y="313" type="line" smooth="yes"/>
      <point x="389" y="408"/>
      <point x="341" y="462"/>
      <point x="241" y="462" type="curve" smooth="yes"/>
      <point x="196" y="462"/>
      <point x="147" y="446"/>
      <point x="108" y="423" type="curve"/>
      <point x="114" y="454" type="line"/>
      <point x="63" y="454" type="line"/>
      <point x="-17" y="0" type="line"/>
      <point x="34" y="0" type="line"/>
      <point x="101" y="385" type="line"/>
      <point x="142" y="406"/>
      <point x="182" y="416"/>
      <point x="223" y="416" type="curve" smooth="yes"/>
      <point x="281" y="416"/>
      <point x="337" y="392"/>
    </contour>
  </outline>
</glyph>
<glyph name="o" format="1">
  <advance width="361"/>
  <unicode hex="006F"/>
  <outline>
    <contour>
      <point x="332" y="167" type="curve" smooth="yes"/>
      <point x="353" y="286" type="line" smooth="yes"/>
      <point x="372" y="396"/>
      <point x="326" y="464"/>
      <point x="218" y="464" type="curve" smooth="yes"/>
      <point x="110" y="464"/>
      <point x="38" y="402"/>
      <point x="18" y="286" type="curve" smooth="yes"/>
      <point x="-3" y="167" type="line" smooth="yes"/>
      <point x="-21" y="68"/>
      <point x="24" y="-9"/>
      <point x="137" y="-9" type="curve" smooth="yes"/>
      <point x="249" y="-9"/>
      <point x="314" y="65"/>
    </contour>
    <contour>
      <point x="303" y="286" type="curve" smooth="yes"/>
      <point x="280" y="158" type="line" smooth="yes"/>
      <point x="267" y="84"/>
      <point x="220" y="36"/>
      <point x="145" y="36" type="curve" smooth="yes"/>
      <point x="71" y="36"/>
      <point x="33" y="85"/>
      <point x="46" y="158" type="curve" smooth="yes"/>
      <point x="69" y="286" type="line" smooth="yes"/>
      <point x="84" y="374"/>
      <point x="132" y="418"/>
      <point x="212" y="418" type="curve" smooth="yes"/>
      <point x="290" y="418"/>
      <point x="318" y="374"/>
    </contour>
  </outline>
</glyph>
<glyph name="p" format="1">
  <advance width="397"/>
  <unicode hex="0070"/>
  <outline>
    <contour>
      <point x="365" y="159" type="curve" smooth="yes"/>
      <point x="392" y="314" type="line" smooth="yes"/>
      <point x="409" y="409"/>
      <point x="364" y="466"/>
      <point x="263" y="462" type="curve" smooth="yes"/>
      <point x="219" y="460"/>
      <point x="170" y="443"/>
      <point x="125" y="410" type="curve"/>
      <point x="132" y="453" type="line"/>
      <point x="80" y="453" type="line"/>
      <point x="-30" y="-181" type="line"/>
      <point x="18" y="-193" type="line"/>
      <point x="62" y="55" type="line"/>
      <point x="77" y="18"/>
      <point x="124" y="-11"/>
      <point x="180" y="-11" type="curve" smooth="yes"/>
      <point x="281" y="-11"/>
      <point x="345" y="48"/>
    </contour>
    <contour>
      <point x="339" y="311" type="curve" smooth="yes"/>
      <point x="311" y="151" type="line" smooth="yes"/>
      <point x="298" y="75"/>
      <point x="253" y="36"/>
      <point x="185" y="36" type="curve" smooth="yes"/>
      <point x="115" y="36"/>
      <point x="67" y="80"/>
      <point x="80" y="157" type="curve" smooth="yes"/>
      <point x="115" y="356" type="line"/>
      <point x="149" y="394"/>
      <point x="203" y="413"/>
      <point x="244" y="416" type="curve" smooth="yes"/>
      <point x="303" y="421"/>
      <point x="354" y="393"/>
    </contour>
  </outline>
</glyph>
<glyph name="q" format="1">
  <advance width="375"/>
  <unicode hex="0071"/>
  <outline>
    <contour>
      <point x="264" y="56" type="curve"/>
      <point x="223" y="-180" type="line"/>
      <point x="272" y="-192" type="line"/>
      <point x="385" y="453" type="line"/>
      <point x="334" y="453" type="line"/>
      <point x="327" y="411" type="line"/>
      <point x="293" y="444"/>
      <point x="250" y="461"/>
      <point x="206" y="463" type="curve" smooth="yes"/>
      <point x="108" y="467"/>
      <point x="43" y="410"/>
      <point x="26" y="314" type="curve" smooth="yes"/>
      <point x="-1" y="160" type="line" smooth="yes"/>
      <point x="-21" y="49"/>
      <point x="23" y="-10"/>
      <point x="124" y="-10" type="curve" smooth="yes"/>
      <point x="179" y="-10"/>
      <point x="237" y="19"/>
    </contour>
    <contour>
      <point x="317" y="357" type="curve"/>
      <point x="282" y="157" type="line" smooth="yes"/>
      <point x="269" y="80"/>
      <point x="204" y="37"/>
      <point x="135" y="37" type="curve" smooth="yes"/>
      <point x="66" y="37"/>
      <point x="35" y="76"/>
      <point x="48" y="152" type="curve" smooth="yes"/>
      <point x="77" y="312" type="line" smooth="yes"/>
      <point x="91" y="394"/>
      <point x="153" y="421"/>
      <point x="209" y="417" type="curve" smooth="yes"/>
      <point x="248" y="414"/>
      <point x="297" y="395"/>
    </contour>
  </outline>
</glyph>
<glyph name="s" format="1">
  <advance width="338"/>
  <unicode hex="0073"/>
  <outline>
    <contour>
      <point x="309" y="398" type="curve"/>
      <point x="336" y="432" type="line"/>
      <point x="294" y="458"/>
      <point x="258" y="465"/>
      <point x="221" y="464" type="curve" smooth="yes"/>
      <point x="186" y="464"/>
      <point x="152" y="455"/>
      <point x="123" y="438" type="curve" smooth="yes"/>
      <point x="84" y="415"/>
      <point x="56" y="378"/>
      <point x="52" y="329" type="curve" smooth="yes"/>
      <point x="49" y="294"/>
      <point x="65" y="271"/>
      <point x="88" y="252" type="curve" smooth="yes"/>
      <point x="112" y="234"/>
      <point x="143" y="222"/>
      <point x="173" y="210" type="curve" smooth="yes"/>
      <point x="201" y="198"/>
      <point x="229" y="186"/>
      <point x="248" y="171" type="curve"/>
      <point x="265" y="156"/>
      <point x="275" y="137"/>
      <point x="269" y="111" type="curve"/>
      <point x="265" y="86"/>
      <point x="247" y="66"/>
      <point x="225" y="52" type="curve" smooth="yes"/>
      <point x="202" y="38"/>
      <point x="174" y="31"/>
      <point x="145" y="31" type="curve" smooth="yes"/>
      <point x="118" y="31"/>
      <point x="95" y="36"/>
      <point x="75" y="44" type="curve" smooth="yes"/>
      <point x="48" y="55"/>
      <point x="28" y="73"/>
      <point x="14" y="91" type="curve"/>
      <point x="-20" y="62" type="line"/>
      <point x="-1" y="35"/>
      <point x="22" y="16"/>
      <point x="48" y="4" type="curve" smooth="yes"/>
      <point x="76" y="-10"/>
      <point x="107" y="-15"/>
      <point x="137" y="-16" type="curve" smooth="yes"/>
      <point x="173" y="-16"/>
      <point x="208" y="-8"/>
      <point x="238" y="9" type="curve" smooth="yes"/>
      <point x="280" y="33"/>
      <point x="312" y="72"/>
      <point x="318" y="121" type="curve" smooth="yes"/>
      <point x="322" y="155"/>
      <point x="311" y="179"/>
      <point x="293" y="198" type="curve" smooth="yes"/>
      <point x="271" y="222"/>
      <point x="235" y="237"/>
      <point x="202" y="251" type="curve" smooth="yes"/>
      <point x="176" y="261"/>
      <point x="150" y="271"/>
      <point x="130" y="283" type="curve" smooth="yes"/>
      <point x="112" y="295"/>
      <point x="99" y="310"/>
      <point x="99" y="331" type="curve" smooth="yes"/>
      <point x="99" y="362"/>
      <point x="116" y="385"/>
      <point x="141" y="400" type="curve" smooth="yes"/>
      <point x="162" y="413"/>
      <point x="189" y="420"/>
      <point x="216" y="421" type="curve" smooth="yes"/>
      <point x="249" y="422"/>
      <point x="283" y="414"/>
    </contour>
  </outline>
</glyph>
<glyph name="t" format="1">
  <advance width="199"/>
  <unicode hex="0074"/>
  <outline>
    <contour>
      <point x="50" y="120" type="curve" smooth="yes"/>
      <point x="100" y="406" type="line"/>
      <point x="187" y="406" type="line"/>
      <point x="218" y="454" type="line"/>
      <point x="109" y="454" type="line"/>
      <point x="140" y="635" type="line"/>
      <point x="89" y="635" type="line"/>
      <point x="-1" y="120" type="line" smooth="yes"/>
      <point x="-14" y="48"/>
      <point x="7" y="7"/>
      <point x="71" y="-12" type="curve"/>
      <point x="93" y="27" type="line"/>
      <point x="56" y="41"/>
      <point x="41" y="72"/>
    </contour>
  </outline>
</glyph>
<glyph name="u" format="1">
  <advance width="380"/>
  <unicode hex="0075"/>
  <outline>
    <contour>
      <point x="266" y="44" type="curve"/>
      <point x="259" y="0" type="line"/>
      <point x="310" y="0" type="line"/>
      <point x="390" y="454" type="line"/>
      <point x="339" y="454" type="line"/>
      <point x="286" y="156" type="line" smooth="yes"/>
      <point x="275" y="92"/>
      <point x="215" y="40"/>
      <point x="151" y="40" type="curve" smooth="yes"/>
      <point x="93" y="40"/>
      <point x="36" y="62"/>
      <point x="51" y="145" type="curve" smooth="yes"/>
      <point x="106" y="454" type="line"/>
      <point x="55" y="454" type="line"/>
      <point x="0" y="142" type="line" smooth="yes"/>
      <point x="-19" y="39"/>
      <point x="30" y="-9"/>
      <point x="131" y="-9" type="curve" smooth="yes"/>
      <point x="176" y="-9"/>
      <point x="229" y="8"/>
    </contour>
  </outline>
</glyph>
<glyph name="v" format="1">
  <advance width="329"/>
  <unicode hex="0076"/>
  <outline>
    <contour>
      <point x="129" y="0" type="line"/>
      <point x="350" y="454" type="line"/>
      <point x="296" y="454" type="line"/>
      <point x="104" y="53" type="line"/>
      <point x="54" y="454" type="line"/>
      <point x="1" y="454" type="line"/>
      <point x="59" y="0" type="line"/>
    </contour>
  </outline>
</glyph>
<glyph name="w" format="1">
  <advance width="583"/>
  <unicode hex="0077"/>
  <outline>
    <contour>
      <point x="105" y="52" type="line"/>
      <point x="54" y="453" type="line"/>
      <point x="1" y="453" type="line"/>
      <point x="60" y="0" type="line"/>
      <point x="130" y="0" type="line"/>
      <point x="287" y="367" type="line"/>
      <point x="314" y="0" type="line"/>
      <point x="384" y="0" type="line"/>
      <point x="604" y="453" type="line"/>
      <point x="550" y="453" type="line"/>
      <point x="359" y="52" type="line"/>
      <point x="329" y="453" type="line"/>
      <point x="277" y="453" type="line"/>
    </contour>
  </outline>
</glyph>
<glyph name="x" format="1">
  <advance width="383"/>
  <unicode hex="0078"/>
  <outline>
    <contour>
      <point x="57" y="453" type="line"/>
      <point x="159" y="225" type="line"/>
      <point x="-22" y="0" type="line"/>
      <point x="38" y="0" type="line"/>
      <point x="181" y="179" type="line"/>
      <point x="261" y="0" type="line"/>
      <point x="321" y="0" type="line"/>
      <point x="218" y="225" type="line"/>
      <point x="400" y="453" type="line"/>
      <point x="343" y="453" type="line"/>
      <point x="197" y="272" type="line"/>
      <point x="115" y="453" type="line"/>
    </contour>
  </outline>
</glyph>
<glyph name="z" format="1">
  <advance width="364"/>
  <unicode hex="007A"/>
  <outline>
    <contour>
      <point x="58" y="408" type="line"/>
      <point x="299" y="408" type="line"/>
      <point x="-14" y="45" type="line"/>
      <point x="-21" y="0" type="line"/>
      <point x="312" y="0" type="line"/>
      <point x="320" y="46" type="line"/>
      <point x="50" y="46" type="line"/>
      <point x="365" y="409" type="line"/>
      <point x="373" y="454" type="line"/>
      <point x="67" y="454" type="line"/>
    </contour>
  </outline>
</glyph>
<glyph name="braceleft" format="1">
  <advance width="282"/>
  <unicode hex="007B"/>
  <outline>
    <contour>
      <point x="163" y="468" type="curve" smooth="yes"/>
      <point x="181" y="571" type="line" smooth="yes"/>
      <point x="195" y="652"/>
      <point x="243" y="688"/>
      <point x="272" y="702" type="curve"/>
      <point x="260" y="745" type="line"/>
      <point x="256" y="744"/>
      <point x="155" y="717"/>
      <point x="129" y="571" type="curve" smooth="yes"/>
      <point x="111" y="468" type="line" smooth="yes"/>
      <point x="102" y="417"/>
      <point x="89" y="371"/>
      <point x="23" y="327" type="curve" smooth="yes"/>
      <point x="12" y="320" type="line"/>
      <point x="21" y="313" type="line"/>
      <point x="71" y="268"/>
      <point x="68" y="223"/>
      <point x="59" y="172" type="curve" smooth="yes"/>
      <point x="41" y="69" type="line" smooth="yes"/>
      <point x="15" y="-77"/>
      <point x="105" y="-104"/>
      <point x="110" y="-106" type="curve"/>
      <point x="139" y="-61" type="line"/>
      <point x="113" y="-47"/>
      <point x="78" y="-12"/>
      <point x="93" y="69" type="curve" smooth="yes"/>
      <point x="111" y="172" type="line" smooth="yes"/>
      <point x="120" y="223"/>
      <point x="124" y="273"/>
      <point x="76" y="320" type="curve"/>
      <point x="140" y="367"/>
      <point x="154" y="417"/>
    </contour>
  </outline>
</glyph>
<glyph name="braceright" format="1">
  <advance width="281"/>
  <unicode hex="007D"/>
  <outline>
    <contour>
      <point x="174" y="745" type="curve"/>
      <point x="146" y="702" type="line"/>
      <point x="170" y="688"/>
      <point x="205" y="652"/>
      <point x="191" y="571" type="curve" smooth="yes"/>
      <point x="173" y="468" type="line" smooth="yes"/>
      <point x="164" y="417"/>
      <point x="159" y="367"/>
      <point x="207" y="320" type="curve"/>
      <point x="143" y="273"/>
      <point x="130" y="223"/>
      <point x="121" y="172" type="curve" smooth="yes"/>
      <point x="103" y="69" type="line" smooth="yes"/>
      <point x="88" y="-12"/>
      <point x="40" y="-47"/>
      <point x="11" y="-61" type="curve"/>
      <point x="23" y="-106" type="line"/>
      <point x="28" y="-104"/>
      <point x="128" y="-77"/>
      <point x="154" y="69" type="curve" smooth="yes"/>
      <point x="172" y="172" type="line" smooth="yes"/>
      <point x="181" y="223"/>
      <point x="194" y="268"/>
      <point x="260" y="313" type="curve" smooth="yes"/>
      <point x="271" y="320" type="line"/>
      <point x="262" y="327" type="line"/>
      <point x="212" y="371"/>
      <point x="215" y="417"/>
      <point x="224" y="468" type="curve" smooth="yes"/>
      <point x="242" y="571" type="line" smooth="yes"/>
      <point x="268" y="717"/>
      <point x="178" y="744"/>
    </contour>
  </outline>
</glyph>
<glyph name="asciitilde" format="1">
  <advance width="301"/>
  <unicode hex="007E"/>
  <outline>
    <contour>
      <point x="291" y="277" type="curve"/>
      <point x="276" y="315" type="line"/>
      <point x="258" y="299"/>
      <point x="238" y="289"/>
      <point x="215" y="288" type="curve" smooth="yes"/>
      <point x="172" y="287"/>
      <point x="138" y="321"/>
      <point x="93" y="321" type="curve" smooth="yes"/>
      <point x="69" y="321"/>
      <point x="44" y="312"/>
      <point x="12" y="284" type="curve"/>
      <point x="26" y="246" type="line"/>
      <point x="51" y="266"/>
      <point x="72" y="272"/>
      <point x="91" y="271" type="curve" smooth="yes"/>
      <point x="132" y="269"/>
      <point x="165" y="238"/>
      <point x="208" y="238" type="curve" smooth="yes"/>
      <point x="231" y="237"/>
      <point x="258" y="247"/>
    </contour>
  </outline>
</glyph>
<glyph name="exclamdown" format="1">
  <advance width="189"/>
  <unicode hex="00A1"/>
  <outline>
    <contour>
      <point x="74" y="33" type="curve" smooth="yes"/>
      <point x="155" y="535" type="line"/>
      <point x="112" y="535" type="line"/>
      <point x="14" y="34" type="line" smooth="yes"/>
      <point x="10" y="11"/>
      <point x="19" y="0"/>
      <point x="39" y="0" type="curve" smooth="yes"/>
      <point x="59" y="0"/>
      <point x="70" y="11"/>
    </contour>
    <contour>
      <point x="177" y="613" type="curve" smooth="yes"/>
      <point x="180" y="630"/>
      <point x="169" y="643"/>
      <point x="152" y="643" type="curve" smooth="yes"/>
      <point x="135" y="643"/>
      <point x="119" y="630"/>
      <point x="116" y="613" type="curve" smooth="yes"/>
      <point x="113" y="596"/>
      <point x="124" y="583"/>
      <point x="141" y="583" type="curve" smooth="yes"/>
      <point x="158" y="583"/>
      <point x="174" y="596"/>
    </contour>
  </outline>
</glyph>
<glyph name="cent" format="1">
  <advance width="370"/>
  <unicode hex="00A2"/>
  <outline>
    <contour>
      <point x="338" y="391" type="curve"/>
      <point x="360" y="433" type="line"/>
      <point x="312" y="457"/>
      <point x="253" y="469"/>
      <point x="199" y="458" type="curve" smooth="yes"/>
      <point x="157" y="449"/>
      <point x="118" y="427"/>
      <point x="88" y="387" type="curve" smooth="yes"/>
      <point x="65" y="358"/>
      <point x="54" y="329"/>
      <point x="44" y="289" type="curve"/>
      <point x="21" y="157" type="line" smooth="yes"/>
      <point x="5" y="68"/>
      <point x="37" y="21"/>
      <point x="96" y="1" type="curve" smooth="yes"/>
      <point x="147" y="-16"/>
      <point x="222" y="-12"/>
      <point x="286" y="5" type="curve"/>
      <point x="284" y="50" type="line"/>
      <point x="284" y="50"/>
      <point x="169" y="24"/>
      <point x="115" y="47" type="curve" smooth="yes"/>
      <point x="70" y="65"/>
      <point x="63" y="108"/>
      <point x="73" y="168" type="curve" smooth="yes"/>
      <point x="92" y="277" type="line" smooth="yes"/>
      <point x="98" y="309"/>
      <point x="109" y="337"/>
      <point x="124" y="358" type="curve" smooth="yes"/>
      <point x="144" y="387"/>
      <point x="170" y="405"/>
      <point x="199" y="412" type="curve" smooth="yes"/>
      <point x="240" y="422"/>
      <point x="299" y="411"/>
    </contour>
    <contour>
      <point x="288" y="565" type="line"/>
      <point x="237" y="565" type="line"/>
      <point x="119" y="-103" type="line"/>
      <point x="170" y="-103" type="line"/>
    </contour>
  </outline>
</glyph>
<glyph name="sterling" format="1">
  <advance width="425"/>
  <unicode hex="00A3"/>
  <outline>
    <contour>
      <point x="91" y="48" type="curve" smooth="yes"/>
      <point x="19" y="48" type="line"/>
      <point x="11" y="0" type="line"/>
      <point x="337" y="0" type="line"/>
      <point x="345" y="48" type="line"/>
      <point x="234" y="48" type="line"/>
      <point x="251" y="58"/>
      <point x="265" y="70"/>
      <point x="277" y="85" type="curve" smooth="yes"/>
      <point x="334" y="152"/>
      <point x="337" y="231"/>
      <point x="295" y="295" type="curve"/>
      <point x="291" y="299"/>
      <point x="289" y="304"/>
      <point x="286" y="308" type="curve"/>
      <point x="391" y="308" type="line"/>
      <point x="400" y="360" type="line"/>
      <point x="249" y="360" type="line"/>
      <point x="234" y="381"/>
      <point x="219" y="401"/>
      <point x="212" y="412" type="curve" smooth="yes"/>
      <point x="180" y="460"/>
      <point x="164" y="508"/>
      <point x="196" y="550" type="curve" smooth="yes"/>
      <point x="218" y="579"/>
      <point x="247" y="592"/>
      <point x="277" y="595" type="curve" smooth="yes"/>
      <point x="315" y="599"/>
      <point x="355" y="586"/>
      <point x="389" y="564" type="curve"/>
      <point x="415" y="608" type="line"/>
      <point x="371" y="634"/>
      <point x="319" y="647"/>
      <point x="270" y="641" type="curve" smooth="yes"/>
      <point x="228" y="636"/>
      <point x="186" y="618"/>
      <point x="157" y="577" type="curve" smooth="yes"/>
      <point x="105" y="505"/>
      <point x="127" y="441"/>
      <point x="169" y="381" type="curve"/>
      <point x="172" y="376"/>
      <point x="176" y="368"/>
      <point x="183" y="360" type="curve"/>
      <point x="74" y="360" type="line"/>
      <point x="65" y="308" type="line"/>
      <point x="221" y="308" type="line"/>
      <point x="231" y="294"/>
      <point x="241" y="279"/>
      <point x="251" y="265" type="curve" smooth="yes"/>
      <point x="287" y="213"/>
      <point x="276" y="153"/>
      <point x="235" y="107" type="curve" smooth="yes"/>
      <point x="190" y="55"/>
      <point x="134" y="48"/>
    </contour>
  </outline>
</glyph>
<glyph name="currency" format="1">
  <advance width="439"/>
  <unicode hex="00A4"/>
  <outline>
    <contour>
      <point x="341" y="332" type="curve"/>
      <point x="429" y="407" type="line"/>
      <point x="403" y="439" type="line"/>
      <point x="315" y="364" type="line"/>
      <point x="297" y="380"/>
      <point x="272" y="389"/>
      <point x="244" y="389" type="curve" smooth="yes"/>
      <point x="215" y="389"/>
      <point x="188" y="380"/>
      <point x="163" y="364" type="curve"/>
      <point x="102" y="439" type="line"/>
      <point x="64" y="407" type="line"/>
      <point x="125" y="332" type="line"/>
      <point x="106" y="311"/>
      <point x="94" y="285"/>
      <point x="89" y="257" type="curve" smooth="yes"/>
      <point x="84" y="228"/>
      <point x="88" y="202"/>
      <point x="99" y="181" type="curve"/>
      <point x="11" y="106" type="line"/>
      <point x="38" y="74" type="line"/>
      <point x="126" y="149" type="line"/>
      <point x="144" y="134"/>
      <point x="169" y="125"/>
      <point x="198" y="125" type="curve" smooth="yes"/>
      <point x="226" y="125"/>
      <point x="252" y="134"/>
      <point x="277" y="149" type="curve"/>
      <point x="339" y="74" type="line"/>
      <point x="376" y="106" type="line"/>
      <point x="314" y="181" type="line"/>
      <point x="333" y="202"/>
      <point x="347" y="228"/>
      <point x="352" y="257" type="curve" smooth="yes"/>
      <point x="357" y="285"/>
      <point x="352" y="311"/>
    </contour>
    <contour>
      <point x="206" y="171" type="curve" smooth="yes"/>
      <point x="158" y="171"/>
      <point x="126" y="209"/>
      <point x="135" y="257" type="curve" smooth="yes"/>
      <point x="143" y="304"/>
      <point x="188" y="342"/>
      <point x="236" y="342" type="curve" smooth="yes"/>
      <point x="283" y="342"/>
      <point x="314" y="304"/>
      <point x="306" y="257" type="curve" smooth="yes"/>
      <point x="297" y="209"/>
      <point x="253" y="171"/>
    </contour>
  </outline>
</glyph>
<glyph name="yen" format="1">
  <advance width="477"/>
  <unicode hex="00A5"/>
  <outline>
    <contour>
      <point x="140" y="135" type="line"/>
      <point x="20" y="135" type="line"/>
      <point x="11" y="85" type="line"/>
      <point x="131" y="85" type="line"/>
      <point x="117" y="0" type="line"/>
      <point x="168" y="0" type="line"/>
      <point x="182" y="85" type="line"/>
      <point x="301" y="85" type="line"/>
      <point x="310" y="135" type="line"/>
      <point x="191" y="135" type="line"/>
      <point x="199" y="180" type="line"/>
      <point x="318" y="180" type="line"/>
      <point x="327" y="230" type="line"/>
      <point x="208" y="230" type="line"/>
      <point x="222" y="310" type="line"/>
      <point x="467" y="635" type="line"/>
      <point x="410" y="635" type="line"/>
      <point x="205" y="368" type="line"/>
      <point x="97" y="635" type="line"/>
      <point x="39" y="635" type="line"/>
      <point x="171" y="308" type="line"/>
      <point x="157" y="230" type="line"/>
      <point x="37" y="230" type="line"/>
      <point x="28" y="180" type="line"/>
      <point x="148" y="180" type="line"/>
    </contour>
  </outline>
</glyph>
<glyph name="dieresis" format="1">
  <advance width="345"/>
  <unicode hex="00A8"/>
  <outline>
    <contour>
      <point x="145" y="673" type="curve" smooth="yes"/>
      <point x="129" y="673"/>
      <point x="113" y="659"/>
      <point x="110" y="642" type="curve" smooth="yes"/>
      <point x="107" y="625"/>
      <point x="118" y="612"/>
      <point x="134" y="612" type="curve" smooth="yes"/>
      <point x="151" y="612"/>
      <point x="168" y="625"/>
      <point x="171" y="642" type="curve" smooth="yes"/>
      <point x="174" y="659"/>
      <point x="162" y="673"/>
    </contour>
    <contour>
      <point x="289" y="673" type="curve" smooth="yes"/>
      <point x="272" y="673"/>
      <point x="257" y="659"/>
      <point x="254" y="642" type="curve" smooth="yes"/>
      <point x="251" y="625"/>
      <point x="261" y="612"/>
      <point x="278" y="612" type="curve" smooth="yes"/>
      <point x="295" y="612"/>
      <point x="311" y="625"/>
      <point x="314" y="642" type="curve" smooth="yes"/>
      <point x="317" y="659"/>
      <point x="306" y="673"/>
    </contour>
  </outline>
</glyph>
<glyph name="copyright" format="1">
  <advance width="649"/>
  <unicode hex="00A9"/>
  <outline>
    <contour>
      <point x="600" y="170" type="curve" smooth="yes"/>
      <point x="623" y="296" type="line" smooth="yes"/>
      <point x="650" y="451"/>
      <point x="544" y="528"/>
      <point x="377" y="529" type="curve" smooth="yes"/>
      <point x="210" y="528"/>
      <point x="76" y="451"/>
      <point x="49" y="296" type="curve" smooth="yes"/>
      <point x="26" y="170" type="line" smooth="yes"/>
      <point x="-1" y="15"/>
      <point x="106" y="-62"/>
      <point x="272" y="-63" type="curve" smooth="yes"/>
      <point x="440" y="-62"/>
      <point x="573" y="15"/>
    </contour>
    <contour>
      <point x="565" y="274" type="curve" smooth="yes"/>
      <point x="550" y="192" type="line" smooth="yes"/>
      <point x="524" y="44"/>
      <point x="440" y="-12"/>
      <point x="281" y="-14" type="curve" smooth="yes"/>
      <point x="122" y="-12"/>
      <point x="58" y="44"/>
      <point x="84" y="192" type="curve" smooth="yes"/>
      <point x="99" y="274" type="line" smooth="yes"/>
      <point x="125" y="422"/>
      <point x="209" y="478"/>
      <point x="368" y="480" type="curve" smooth="yes"/>
      <point x="527" y="478"/>
      <point x="591" y="422"/>
    </contour>
    <contour>
      <point x="471" y="348" type="curve"/>
      <point x="492" y="382" type="line"/>
      <point x="456" y="402"/>
      <point x="414" y="412"/>
      <point x="368" y="412" type="curve" smooth="yes"/>
      <point x="331" y="412"/>
      <point x="297" y="405"/>
      <point x="267" y="389" type="curve" smooth="yes"/>
      <point x="208" y="357"/>
      <point x="173" y="306"/>
      <point x="159" y="226" type="curve" smooth="yes"/>
      <point x="146" y="150"/>
      <point x="167" y="100"/>
      <point x="207" y="75" type="curve"/>
      <point x="247" y="53"/>
      <point x="290" y="53"/>
      <point x="309" y="53" type="curve" smooth="yes"/>
      <point x="356" y="53"/>
      <point x="406" y="62"/>
      <point x="461" y="82" type="curve"/>
      <point x="458" y="125" type="line"/>
      <point x="403" y="107"/>
      <point x="358" y="98"/>
      <point x="322" y="98" type="curve" smooth="yes"/>
      <point x="280" y="98"/>
      <point x="252" y="106"/>
      <point x="234" y="121" type="curve" smooth="yes"/>
      <point x="207" y="144"/>
      <point x="204" y="184"/>
      <point x="212" y="231" type="curve" smooth="yes"/>
      <point x="221" y="282"/>
      <point x="243" y="320"/>
      <point x="278" y="342" type="curve" smooth="yes"/>
      <point x="304" y="358"/>
      <point x="336" y="367"/>
      <point x="376" y="367" type="curve" smooth="yes"/>
      <point x="407" y="367"/>
      <point x="439" y="360"/>
    </contour>
  </outline>
</glyph>
<glyph name="ordfeminine" format="1">
  <advance width="252"/>
  <unicode hex="00AA"/>
  <outline>
    <contour>
      <point x="237" y="354" type="curve"/>
      <point x="246" y="404"/>
      <point x="254" y="453"/>
      <point x="263" y="503" type="curve" smooth="yes"/>
      <point x="273" y="558"/>
      <point x="266" y="594"/>
      <point x="244" y="615" type="curve" smooth="yes"/>
      <point x="223" y="635"/>
      <point x="188" y="643"/>
      <point x="138" y="643" type="curve"/>
      <point x="128" y="604" type="line"/>
      <point x="161" y="604"/>
      <point x="189" y="601"/>
      <point x="204" y="590" type="curve" smooth="yes"/>
      <point x="222" y="577"/>
      <point x="226" y="558"/>
      <point x="222" y="537" type="curve"/>
      <point x="186" y="560"/>
      <point x="154" y="571"/>
      <point x="126" y="572" type="curve" smooth="yes"/>
      <point x="65" y="574"/>
      <point x="24" y="530"/>
      <point x="13" y="470" type="curve" smooth="yes"/>
      <point x="-4" y="373"/>
      <point x="46" y="345"/>
      <point x="125" y="344" type="curve" smooth="yes"/>
      <point x="158" y="344"/>
      <point x="196" y="348"/>
    </contour>
    <contour>
      <point x="212" y="492" type="curve"/>
      <point x="194" y="389" type="line"/>
      <point x="194" y="389"/>
      <point x="118" y="378"/>
      <point x="86" y="393" type="curve" smooth="yes"/>
      <point x="59" y="406"/>
      <point x="48" y="429"/>
      <point x="54" y="465" type="curve" smooth="yes"/>
      <point x="63" y="512"/>
      <point x="86" y="529"/>
      <point x="115" y="529" type="curve" smooth="yes"/>
      <point x="144" y="529"/>
      <point x="180" y="514"/>
    </contour>
  </outline>
</glyph>
<glyph name="sfthyphen" format="1">
  <advance width="439"/>
  <unicode hex="00AD"/>
  <outline>
    <contour>
      <point x="394" y="375" type="line"/>
      <point x="104" y="375" type="line"/>
      <point x="94" y="323" type="line"/>
      <point x="384" y="323" type="line"/>
    </contour>
  </outline>
</glyph>
<glyph name="registered" format="1">
  <advance width="649"/>
  <unicode hex="00AE"/>
  <outline>
    <contour>
      <point x="600" y="170" type="curve" smooth="yes"/>
      <point x="623" y="296" type="line" smooth="yes"/>
      <point x="650" y="451"/>
      <point x="544" y="528"/>
      <point x="377" y="529" type="curve" smooth="yes"/>
      <point x="210" y="528"/>
      <point x="76" y="451"/>
      <point x="49" y="296" type="curve" smooth="yes"/>
      <point x="26" y="170" type="line" smooth="yes"/>
      <point x="-1" y="15"/>
      <point x="106" y="-62"/>
      <point x="272" y="-63" type="curve" smooth="yes"/>
      <point x="440" y="-62"/>
      <point x="573" y="15"/>
    </contour>
    <contour>
      <point x="564" y="274" type="curve" smooth="yes"/>
      <point x="549" y="192" type="line" smooth="yes"/>
      <point x="523" y="44"/>
      <point x="440" y="-12"/>
      <point x="281" y="-14" type="curve" smooth="yes"/>
      <point x="122" y="-12"/>
      <point x="58" y="44"/>
      <point x="84" y="192" type="curve" smooth="yes"/>
      <point x="99" y="274" type="line" smooth="yes"/>
      <point x="125" y="422"/>
      <point x="209" y="478"/>
      <point x="368" y="480" type="curve" smooth="yes"/>
      <point x="527" y="478"/>
      <point x="590" y="422"/>
    </contour>
    <contour>
      <point x="203" y="402" type="line"/>
      <point x="142" y="54" type="line"/>
      <point x="190" y="54" type="line"/>
      <point x="209" y="160" type="line"/>
      <point x="344" y="160" type="line"/>
      <point x="377" y="54" type="line"/>
      <point x="435" y="54" type="line"/>
      <point x="398" y="168" type="line"/>
      <point x="436" y="179"/>
      <point x="473" y="208"/>
      <point x="485" y="283" type="curve" smooth="yes"/>
      <point x="503" y="391"/>
      <point x="436" y="402"/>
      <point x="388" y="402" type="curve" smooth="yes"/>
    </contour>
    <contour>
      <point x="358" y="211" type="curve" smooth="yes"/>
      <point x="218" y="211" type="line"/>
      <point x="243" y="353" type="line"/>
      <point x="383" y="353" type="line" smooth="yes"/>
      <point x="431" y="353"/>
      <point x="447" y="332"/>
      <point x="438" y="282" type="curve" smooth="yes"/>
      <point x="430" y="233"/>
      <point x="404" y="211"/>
    </contour>
  </outline>
</glyph>
<glyph name="degree" format="1">
  <advance width="302"/>
  <unicode hex="00B0"/>
  <outline>
    <contour>
      <point x="284" y="512" type="curve" smooth="yes"/>
      <point x="297" y="585"/>
      <point x="248" y="644"/>
      <point x="175" y="644" type="curve" smooth="yes"/>
      <point x="102" y="644"/>
      <point x="33" y="585"/>
      <point x="20" y="512" type="curve" smooth="yes"/>
      <point x="7" y="439"/>
      <point x="56" y="380"/>
      <point x="129" y="380" type="curve" smooth="yes"/>
      <point x="202" y="380"/>
      <point x="271" y="439"/>
    </contour>
    <contour>
      <point x="167" y="598" type="curve" smooth="yes"/>
      <point x="214" y="598"/>
      <point x="246" y="559"/>
      <point x="238" y="512" type="curve" smooth="yes"/>
      <point x="229" y="465"/>
      <point x="184" y="426"/>
      <point x="137" y="426" type="curve" smooth="yes"/>
      <point x="90" y="426"/>
      <point x="57" y="465"/>
      <point x="66" y="512" type="curve" smooth="yes"/>
      <point x="74" y="559"/>
      <point x="120" y="598"/>
    </contour>
  </outline>
</glyph>
<glyph name="plusminus" format="1">
  <advance width="351"/>
  <unicode hex="00B1"/>
  <outline>
    <contour>
      <point x="142" y="224" type="line"/>
      <point x="20" y="224" type="line"/>
      <point x="11" y="172" type="line"/>
      <point x="301" y="172" type="line"/>
      <point x="310" y="224" type="line"/>
      <point x="192" y="224" type="line"/>
      <point x="213" y="343" type="line"/>
      <point x="332" y="343" type="line"/>
      <point x="341" y="392" type="line"/>
      <point x="222" y="392" type="line"/>
      <point x="243" y="512" type="line"/>
      <point x="193" y="512" type="line"/>
      <point x="172" y="392" type="line"/>
      <point x="51" y="392" type="line"/>
      <point x="42" y="343" type="line"/>
      <point x="163" y="343" type="line"/>
    </contour>
  </outline>
</glyph>
<glyph name="acute" format="1">
  <advance width="216"/>
  <unicode hex="00B4"/>
  <outline>
    <contour>
      <point x="240" y="620" type="line"/>
      <point x="254" y="633"/>
      <point x="256" y="654"/>
      <point x="241" y="663" type="curve" smooth="yes"/>
      <point x="227" y="672"/>
      <point x="207" y="662"/>
      <point x="198" y="645" type="curve" smooth="yes"/>
      <point x="147" y="548" type="line"/>
      <point x="179" y="548" type="line"/>
    </contour>
  </outline>
</glyph>
<glyph name="mu" format="1">
  <advance width="412"/>
  <unicode hex="00B5"/>
  <outline>
    <contour>
      <point x="352" y="85" type="curve" smooth="yes"/>
      <point x="419" y="462" type="line"/>
      <point x="365" y="451" type="line"/>
      <point x="310" y="139" type="line" smooth="yes"/>
      <point x="298" y="71"/>
      <point x="261" y="39"/>
      <point x="199" y="39" type="curve" smooth="yes"/>
      <point x="119" y="39"/>
      <point x="82" y="81"/>
      <point x="70" y="95" type="curve"/>
      <point x="134" y="454" type="line"/>
      <point x="82" y="454" type="line"/>
      <point x="-30" y="-182" type="line"/>
      <point x="20" y="-190" type="line"/>
      <point x="61" y="40" type="line"/>
      <point x="61" y="40"/>
      <point x="101" y="-11"/>
      <point x="188" y="-11" type="curve" smooth="yes"/>
      <point x="234" y="-11"/>
      <point x="276" y="8"/>
      <point x="301" y="40" type="curve"/>
      <point x="314" y="2"/>
      <point x="337" y="-5"/>
      <point x="337" y="-5" type="curve"/>
      <point x="366" y="24" type="line"/>
      <point x="366" y="24"/>
      <point x="346" y="46"/>
    </contour>
  </outline>
</glyph>
<glyph name="paragraph" format="1">
  <advance width="574"/>
  <unicode hex="00B6"/>
  <outline>
    <contour>
      <point x="336" y="224" type="line"/>
      <point x="297" y="1" type="line"/>
      <point x="347" y="1" type="line"/>
      <point x="451" y="591" type="line"/>
      <point x="505" y="590" type="line"/>
      <point x="401" y="1" type="line"/>
      <point x="452" y="1" type="line"/>
      <point x="564" y="636" type="line"/>
      <point x="245" y="636" type="line" smooth="yes"/>
      <point x="130" y="636"/>
      <point x="57" y="586"/>
      <point x="29" y="431" type="curve" smooth="yes"/>
      <point x="3" y="280"/>
      <point x="53" y="224"/>
      <point x="172" y="224" type="curve" smooth="yes"/>
    </contour>
    <contour>
      <point x="233" y="588" type="curve" smooth="yes"/>
      <point x="400" y="588" type="line"/>
      <point x="345" y="273" type="line"/>
      <point x="178" y="273" type="line" smooth="yes"/>
      <point x="109" y="273"/>
      <point x="56" y="293"/>
      <point x="80" y="431" type="curve" smooth="yes"/>
      <point x="103" y="559"/>
      <point x="161" y="588"/>
    </contour>
  </outline>
</glyph>
<glyph name="guillemotright" format="1">
  <advance width="445"/>
  <unicode hex="00BB"/>
  <outline>
    <contour>
      <point x="36" y="72" type="line"/>
      <point x="236" y="242" type="line"/>
      <point x="96" y="412" type="line"/>
      <point x="57" y="378" type="line"/>
      <point x="169" y="242" type="line"/>
      <point x="11" y="103" type="line"/>
    </contour>
    <contour>
      <point x="236" y="72" type="line"/>
      <point x="435" y="242" type="line"/>
      <point x="296" y="412" type="line"/>
      <point x="256" y="378" type="line"/>
      <point x="368" y="242" type="line"/>
      <point x="210" y="103" type="line"/>
    </contour>
  </outline>
</glyph>
<glyph name="questiondown" format="1">
  <advance width="352"/>
  <unicode hex="00BF"/>
  <outline>
    <contour>
      <point x="340" y="146" type="curve"/>
      <point x="289" y="146" type="line"/>
      <point x="276" y="69"/>
      <point x="214" y="32"/>
      <point x="159" y="34" type="curve" smooth="yes"/>
      <point x="106" y="35"/>
      <point x="59" y="73"/>
      <point x="72" y="143" type="curve" smooth="yes"/>
      <point x="82" y="204"/>
      <point x="125" y="236"/>
      <point x="166" y="275" type="curve" smooth="yes"/>
      <point x="207" y="314"/>
      <point x="250" y="357"/>
      <point x="264" y="436" type="curve" smooth="yes"/>
      <point x="279" y="520" type="line"/>
      <point x="232" y="520" type="line"/>
      <point x="228" y="494"/>
      <point x="223" y="467"/>
      <point x="218" y="441" type="curve" smooth="yes"/>
      <point x="205" y="365"/>
      <point x="166" y="337"/>
      <point x="124" y="296" type="curve" smooth="yes"/>
      <point x="76" y="250"/>
      <point x="33" y="208"/>
      <point x="21" y="141" type="curve" smooth="yes"/>
      <point x="4" y="44"/>
      <point x="71" y="-13"/>
      <point x="151" y="-14" type="curve" smooth="yes"/>
      <point x="231" y="-16"/>
      <point x="321" y="35"/>
    </contour>
    <contour>
      <point x="276" y="637" type="curve" smooth="yes"/>
      <point x="259" y="637"/>
      <point x="243" y="623"/>
      <point x="240" y="606" type="curve" smooth="yes"/>
      <point x="237" y="589"/>
      <point x="248" y="576"/>
      <point x="265" y="576" type="curve" smooth="yes"/>
      <point x="282" y="576"/>
      <point x="298" y="589"/>
      <point x="301" y="606" type="curve" smooth="yes"/>
      <point x="304" y="623"/>
      <point x="293" y="637"/>
    </contour>
  </outline>
</glyph>
<glyph name="Aacute" format="1">
  <advance width="441"/>
  <unicode hex="00C1"/>
  <outline>
    <contour>
      <point x="286" y="635" type="line"/>
      <point x="-28" y="0" type="line"/>
      <point x="26" y="0" type="line"/>
      <point x="136" y="222" type="line"/>
      <point x="342" y="222" type="line"/>
      <point x="376" y="0" type="line"/>
      <point x="430" y="0" type="line"/>
      <point x="334" y="635" type="line"/>
    </contour>
    <contour>
      <point x="337" y="272" type="line"/>
      <point x="158" y="272" type="line"/>
      <point x="297" y="556" type="line"/>
    </contour>
    <contour>
      <point x="357" y="779" type="curve"/>
      <point x="300" y="674" type="line"/>
      <point x="335" y="674" type="line"/>
      <point x="401" y="751" type="line"/>
      <point x="417" y="766"/>
      <point x="418" y="788"/>
      <point x="403" y="798" type="curve" smooth="yes"/>
      <point x="387" y="808"/>
      <point x="365" y="797"/>
    </contour>
  </outline>
</glyph>
<glyph name="Acircumflex" format="1">
  <advance width="451"/>
  <unicode hex="00C2"/>
  <outline>
    <contour>
      <point x="286" y="635" type="line"/>
      <point x="-28" y="0" type="line"/>
      <point x="26" y="0" type="line"/>
      <point x="136" y="222" type="line"/>
      <point x="342" y="222" type="line"/>
      <point x="376" y="0" type="line"/>
      <point x="430" y="0" type="line"/>
      <point x="334" y="635" type="line"/>
    </contour>
    <contour>
      <point x="337" y="272" type="line"/>
      <point x="158" y="272" type="line"/>
      <point x="297" y="556" type="line"/>
    </contour>
    <contour>
      <point x="340" y="755" type="line"/>
      <point x="407" y="675" type="line"/>
      <point x="448" y="710" type="line"/>
      <point x="352" y="824" type="line"/>
      <point x="212" y="709" type="line"/>
      <point x="240" y="674" type="line"/>
    </contour>
  </outline>
</glyph>
<glyph name="Atilde" format="1">
  <advance width="451"/>
  <unicode hex="00C3"/>
  <outline>
    <contour>
      <point x="286" y="635" type="line"/>
      <point x="-28" y="0" type="line"/>
      <point x="26" y="0" type="line"/>
      <point x="136" y="222" type="line"/>
      <point x="342" y="222" type="line"/>
      <point x="376" y="0" type="line"/>
      <point x="430" y="0" type="line"/>
      <point x="334" y="635" type="line"/>
    </contour>
    <contour>
      <point x="337" y="272" type="line"/>
      <point x="158" y="272" type="line"/>
      <point x="297" y="556" type="line"/>
    </contour>
    <contour>
      <point x="447" y="704" type="curve"/>
      <point x="435" y="747" type="line"/>
      <point x="422" y="737"/>
      <point x="402" y="729"/>
      <point x="385" y="729" type="curve" smooth="yes"/>
      <point x="372" y="729"/>
      <point x="334" y="752"/>
      <point x="290" y="752" type="curve" smooth="yes"/>
      <point x="266" y="752"/>
      <point x="239" y="745"/>
      <point x="214" y="723" type="curve"/>
      <point x="228" y="681" type="line"/>
      <point x="242" y="691"/>
      <point x="254" y="698"/>
      <point x="272" y="699" type="curve" smooth="yes"/>
      <point x="300" y="701"/>
      <point x="336" y="677"/>
      <point x="377" y="677" type="curve" smooth="yes"/>
      <point x="399" y="677"/>
      <point x="422" y="684"/>
    </contour>
  </outline>
</glyph>
<glyph name="Adieresis" format="1">
  <advance width="445"/>
  <unicode hex="00C4"/>
  <outline>
    <contour>
      <point x="286" y="635" type="line"/>
      <point x="-28" y="0" type="line"/>
      <point x="26" y="0" type="line"/>
      <point x="136" y="222" type="line"/>
      <point x="342" y="222" type="line"/>
      <point x="376" y="0" type="line"/>
      <point x="430" y="0" type="line"/>
      <point x="334" y="635" type="line"/>
    </contour>
    <contour>
      <point x="337" y="272" type="line"/>
      <point x="158" y="272" type="line"/>
      <point x="297" y="556" type="line"/>
    </contour>
    <contour>
      <point x="410" y="758" type="curve" smooth="yes"/>
      <point x="393" y="758"/>
      <point x="378" y="744"/>
      <point x="375" y="728" type="curve" smooth="yes"/>
      <point x="372" y="711"/>
      <point x="382" y="697"/>
      <point x="399" y="697" type="curve" smooth="yes"/>
      <point x="416" y="697"/>
      <point x="432" y="711"/>
      <point x="435" y="728" type="curve" smooth="yes"/>
      <point x="438" y="744"/>
      <point x="427" y="758"/>
    </contour>
    <contour>
      <point x="292" y="728" type="curve" smooth="yes"/>
      <point x="295" y="744"/>
      <point x="283" y="758"/>
      <point x="267" y="758" type="curve" smooth="yes"/>
      <point x="250" y="758"/>
      <point x="234" y="744"/>
      <point x="231" y="728" type="curve" smooth="yes"/>
      <point x="228" y="711"/>
      <point x="239" y="697"/>
      <point x="256" y="697" type="curve" smooth="yes"/>
      <point x="272" y="697"/>
      <point x="289" y="711"/>
    </contour>
  </outline>
</glyph>
<glyph name="Aring" format="1">
  <advance width="445"/>
  <unicode hex="00C5"/>
  <outline>
    <contour>
      <point x="286" y="635" type="line"/>
      <point x="-28" y="0" type="line"/>
      <point x="26" y="0" type="line"/>
      <point x="136" y="222" type="line"/>
      <point x="342" y="222" type="line"/>
      <point x="376" y="0" type="line"/>
      <point x="430" y="0" type="line"/>
      <point x="335" y="635" type="line"/>
    </contour>
    <contour>
      <point x="337" y="272" type="line"/>
      <point x="158" y="272" type="line"/>
      <point x="297" y="556" type="line"/>
    </contour>
    <contour>
      <point x="305" y="600" type="curve" smooth="yes"/>
      <point x="363" y="600"/>
      <point x="417" y="646"/>
      <point x="427" y="703" type="curve" smooth="yes"/>
      <point x="438" y="760"/>
      <point x="400" y="807"/>
      <point x="342" y="807" type="curve" smooth="yes"/>
      <point x="285" y="807"/>
      <point x="231" y="760"/>
      <point x="220" y="703" type="curve" smooth="yes"/>
      <point x="210" y="646"/>
      <point x="248" y="600"/>
    </contour>
    <contour>
      <point x="387" y="703" type="curve" smooth="yes"/>
      <point x="381" y="668"/>
      <point x="347" y="640"/>
      <point x="312" y="640" type="curve" smooth="yes"/>
      <point x="277" y="640"/>
      <point x="254" y="668"/>
      <point x="260" y="703" type="curve" smooth="yes"/>
      <point x="267" y="738"/>
      <point x="300" y="767"/>
      <point x="335" y="767" type="curve" smooth="yes"/>
      <point x="370" y="767"/>
      <point x="394" y="738"/>
    </contour>
  </outline>
</glyph>
<glyph name="AE" format="1">
  <advance width="689"/>
  <unicode hex="00C6"/>
  <outline>
    <contour>
      <point x="610" y="45" type="line"/>
      <point x="359" y="45" type="line"/>
      <point x="408" y="323" type="line"/>
      <point x="565" y="323" type="line"/>
      <point x="592" y="375" type="line"/>
      <point x="418" y="375" type="line"/>
      <point x="455" y="586" type="line"/>
      <point x="709" y="586" type="line"/>
      <point x="717" y="635" type="line"/>
      <point x="328" y="635" type="line"/>
      <point x="-29" y="0" type="line"/>
      <point x="24" y="0" type="line"/>
      <point x="148" y="221" type="line"/>
      <point x="339" y="221" type="line"/>
      <point x="301" y="0" type="line"/>
      <point x="603" y="0" type="line"/>
    </contour>
    <contour>
      <point x="404" y="586" type="line"/>
      <point x="348" y="272" type="line"/>
      <point x="176" y="272" type="line"/>
      <point x="355" y="586" type="line"/>
    </contour>
  </outline>
</glyph>
<glyph name="Ccedilla" format="1">
  <advance width="364"/>
  <unicode hex="00C7"/>
  <outline>
    <contour>
      <point x="363" y="579" type="curve"/>
      <point x="384" y="614" type="line"/>
      <point x="348" y="634"/>
      <point x="306" y="644"/>
      <point x="260" y="644" type="curve" smooth="yes"/>
      <point x="223" y="644"/>
      <point x="189" y="636"/>
      <point x="159" y="621" type="curve" smooth="yes"/>
      <point x="100" y="588"/>
      <point x="65" y="536"/>
      <point x="51" y="457" type="curve" smooth="yes"/>
      <point x="0" y="166" type="line" smooth="yes"/>
      <point x="-14" y="90"/>
      <point x="7" y="38"/>
      <point x="47" y="14" type="curve" smooth="yes"/>
      <point x="87" y="-9"/>
      <point x="131" y="-9"/>
      <point x="150" y="-9" type="curve" smooth="yes"/>
      <point x="196" y="-9"/>
      <point x="247" y="1"/>
      <point x="302" y="21" type="curve"/>
      <point x="299" y="63" type="line"/>
      <point x="243" y="45"/>
      <point x="198" y="36"/>
      <point x="162" y="36" type="curve" smooth="yes"/>
      <point x="120" y="36"/>
      <point x="92" y="44"/>
      <point x="74" y="59" type="curve" smooth="yes"/>
      <point x="46" y="82"/>
      <point x="43" y="120"/>
      <point x="51" y="168" type="curve" smooth="yes"/>
      <point x="103" y="465" type="line" smooth="yes"/>
      <point x="112" y="516"/>
      <point x="134" y="552"/>
      <point x="169" y="574" type="curve" smooth="yes"/>
      <point x="195" y="590"/>
      <point x="228" y="598"/>
      <point x="268" y="598" type="curve" smooth="yes"/>
      <point x="299" y="598"/>
      <point x="331" y="592"/>
    </contour>
    <contour>
      <point x="168" y="-44" type="curve" smooth="yes"/>
      <point x="160" y="-45"/>
      <point x="151" y="-45"/>
      <point x="142" y="-46" type="curve"/>
      <point x="173" y="-6" type="line"/>
      <point x="128" y="-6" type="line"/>
      <point x="81" y="-68" type="line"/>
      <point x="89" y="-95" type="line"/>
      <point x="113" y="-93"/>
      <point x="137" y="-89"/>
      <point x="157" y="-89" type="curve" smooth="yes"/>
      <point x="188" y="-88"/>
      <point x="209" y="-95"/>
      <point x="203" y="-126" type="curve" smooth="yes"/>
      <point x="197" y="-163"/>
      <point x="166" y="-173"/>
      <point x="130" y="-173" type="curve" smooth="yes"/>
      <point x="106" y="-173"/>
      <point x="80" y="-168"/>
      <point x="57" y="-162" type="curve"/>
      <point x="45" y="-189"/>
      <point x="49" y="-181"/>
      <point x="38" y="-206" type="curve"/>
      <point x="40" y="-207"/>
      <point x="85" y="-218"/>
      <point x="128" y="-218" type="curve" smooth="yes"/>
      <point x="200" y="-218"/>
      <point x="240" y="-173"/>
      <point x="248" y="-129" type="curve" smooth="yes"/>
      <point x="256" y="-83"/>
      <point x="229" y="-37"/>
    </contour>
  </outline>
</glyph>
<glyph name="Egrave" format="1">
  <advance width="371"/>
  <unicode hex="00C8"/>
  <outline>
    <contour>
      <point x="293" y="45" type="line"/>
      <point x="43" y="45" type="line"/>
      <point x="93" y="324" type="line"/>
      <point x="249" y="324" type="line"/>
      <point x="274" y="374" type="line"/>
      <point x="101" y="374" type="line"/>
      <point x="139" y="587" type="line"/>
      <point x="391" y="587" type="line"/>
      <point x="399" y="635" type="line"/>
      <point x="96" y="635" type="line"/>
      <point x="-15" y="0" type="line"/>
      <point x="286" y="0" type="line"/>
    </contour>
    <contour>
      <point x="203" y="747" type="curve"/>
      <point x="239" y="675" type="line"/>
      <point x="271" y="675" type="line"/>
      <point x="254" y="772" type="line"/>
      <point x="252" y="789"/>
      <point x="234" y="799"/>
      <point x="217" y="790" type="curve" smooth="yes"/>
      <point x="199" y="781"/>
      <point x="195" y="760"/>
    </contour>
  </outline>
</glyph>
<glyph name="Eacute" format="1">
  <advance width="371"/>
  <unicode hex="00C9"/>
  <outline>
    <contour>
      <point x="293" y="45" type="line"/>
      <point x="43" y="45" type="line"/>
      <point x="93" y="324" type="line"/>
      <point x="249" y="324" type="line"/>
      <point x="274" y="374" type="line"/>
      <point x="101" y="374" type="line"/>
      <point x="139" y="587" type="line"/>
      <point x="391" y="587" type="line"/>
      <point x="399" y="635" type="line"/>
      <point x="96" y="635" type="line"/>
      <point x="-15" y="0" type="line"/>
      <point x="286" y="0" type="line"/>
    </contour>
    <contour>
      <point x="293" y="780" type="curve" smooth="yes"/>
      <point x="238" y="675" type="line"/>
      <point x="273" y="675" type="line"/>
      <point x="338" y="753" type="line"/>
      <point x="353" y="767"/>
      <point x="356" y="790"/>
      <point x="340" y="800" type="curve" smooth="yes"/>
      <point x="324" y="809"/>
      <point x="302" y="799"/>
    </contour>
  </outline>
</glyph>
<glyph name="Ecircumflex" format="1">
  <advance width="371"/>
  <unicode hex="00CA"/>
  <outline>
    <contour>
      <point x="293" y="45" type="line"/>
      <point x="43" y="45" type="line"/>
      <point x="93" y="324" type="line"/>
      <point x="249" y="324" type="line"/>
      <point x="274" y="374" type="line"/>
      <point x="101" y="374" type="line"/>
      <point x="139" y="587" type="line"/>
      <point x="391" y="587" type="line"/>
      <point x="399" y="635" type="line"/>
      <point x="96" y="635" type="line"/>
      <point x="-15" y="0" type="line"/>
      <point x="286" y="0" type="line"/>
    </contour>
    <contour>
      <point x="271" y="757" type="line"/>
      <point x="338" y="677" type="line"/>
      <point x="380" y="711" type="line"/>
      <point x="283" y="826" type="line"/>
      <point x="143" y="710" type="line"/>
      <point x="173" y="675" type="line"/>
    </contour>
  </outline>
</glyph>
<glyph name="Edieresis" format="1">
  <advance width="371"/>
  <unicode hex="00CB"/>
  <outline>
    <contour>
      <point x="293" y="45" type="line"/>
      <point x="43" y="45" type="line"/>
      <point x="93" y="324" type="line"/>
      <point x="249" y="324" type="line"/>
      <point x="274" y="374" type="line"/>
      <point x="101" y="374" type="line"/>
      <point x="139" y="587" type="line"/>
      <point x="391" y="587" type="line"/>
      <point x="399" y="635" type="line"/>
      <point x="96" y="635" type="line"/>
      <point x="-15" y="0" type="line"/>
      <point x="286" y="0" type="line"/>
    </contour>
    <contour>
      <point x="367" y="729" type="curve" smooth="yes"/>
      <point x="370" y="746"/>
      <point x="358" y="759"/>
      <point x="341" y="759" type="curve" smooth="yes"/>
      <point x="325" y="759"/>
      <point x="309" y="746"/>
      <point x="306" y="729" type="curve" smooth="yes"/>
      <point x="303" y="712"/>
      <point x="315" y="698"/>
      <point x="331" y="698" type="curve" smooth="yes"/>
      <point x="348" y="698"/>
      <point x="364" y="712"/>
    </contour>
    <contour>
      <point x="223" y="729" type="curve" smooth="yes"/>
      <point x="226" y="746"/>
      <point x="215" y="759"/>
      <point x="198" y="759" type="curve" smooth="yes"/>
      <point x="181" y="759"/>
      <point x="165" y="746"/>
      <point x="162" y="729" type="curve" smooth="yes"/>
      <point x="159" y="712"/>
      <point x="171" y="698"/>
      <point x="188" y="698" type="curve" smooth="yes"/>
      <point x="205" y="698"/>
      <point x="220" y="712"/>
    </contour>
  </outline>
</glyph>
<glyph name="Igrave" format="1">
  <advance width="178"/>
  <unicode hex="00CC"/>
  <outline>
    <contour>
      <point x="-6" y="0" type="line"/>
      <point x="45" y="0" type="line"/>
      <point x="156" y="635" type="line"/>
      <point x="44" y="635" type="line"/>
      <point x="37" y="590" type="line"/>
      <point x="97" y="588" type="line"/>
    </contour>
    <contour>
      <point x="171" y="770" type="curve"/>
      <point x="119" y="673" type="line"/>
      <point x="151" y="673" type="line"/>
      <point x="213" y="745" type="line"/>
      <point x="226" y="758"/>
      <point x="229" y="779"/>
      <point x="214" y="788" type="curve" smooth="yes"/>
      <point x="200" y="797"/>
      <point x="179" y="787"/>
    </contour>
  </outline>
</glyph>
<glyph name="Iacute" format="1">
  <advance width="178"/>
  <unicode hex="00CD"/>
  <outline>
    <contour>
      <point x="-6" y="0" type="line"/>
      <point x="45" y="0" type="line"/>
      <point x="156" y="635" type="line"/>
      <point x="43" y="635" type="line"/>
      <point x="36" y="590" type="line"/>
      <point x="97" y="588" type="line"/>
    </contour>
    <contour>
      <point x="170" y="770" type="curve" smooth="yes"/>
      <point x="119" y="673" type="line"/>
      <point x="151" y="673" type="line"/>
      <point x="212" y="745" type="line"/>
      <point x="226" y="758"/>
      <point x="228" y="779"/>
      <point x="213" y="788" type="curve" smooth="yes"/>
      <point x="199" y="797"/>
      <point x="179" y="787"/>
    </contour>
  </outline>
</glyph>
<glyph name="Icircumflex" format="1">
  <advance width="204"/>
  <unicode hex="00CE"/>
  <outline>
    <contour>
      <point x="-5" y="0" type="line"/>
      <point x="46" y="0" type="line"/>
      <point x="157" y="635" type="line"/>
      <point x="45" y="635" type="line"/>
      <point x="38" y="590" type="line"/>
      <point x="98" y="588" type="line"/>
    </contour>
    <contour>
      <point x="154" y="752" type="line"/>
      <point x="221" y="673" type="line"/>
      <point x="262" y="707" type="line"/>
      <point x="166" y="821" type="line"/>
      <point x="26" y="706" type="line"/>
      <point x="55" y="671" type="line"/>
    </contour>
  </outline>
</glyph>
<glyph name="Idieresis" format="1">
  <advance width="178"/>
  <unicode hex="00CF"/>
  <outline>
    <contour>
      <point x="-4" y="0" type="line"/>
      <point x="46" y="0" type="line"/>
      <point x="157" y="635" type="line"/>
      <point x="45" y="635" type="line"/>
      <point x="38" y="590" type="line"/>
      <point x="99" y="588" type="line"/>
    </contour>
    <contour>
      <point x="198" y="758" type="curve" smooth="yes"/>
      <point x="181" y="758"/>
      <point x="166" y="744"/>
      <point x="163" y="727" type="curve" smooth="yes"/>
      <point x="160" y="711"/>
      <point x="170" y="697"/>
      <point x="187" y="697" type="curve" smooth="yes"/>
      <point x="204" y="697"/>
      <point x="221" y="711"/>
      <point x="224" y="727" type="curve" smooth="yes"/>
      <point x="227" y="744"/>
      <point x="215" y="758"/>
    </contour>
    <contour>
      <point x="55" y="758" type="curve" smooth="yes"/>
      <point x="38" y="758"/>
      <point x="22" y="744"/>
      <point x="19" y="727" type="curve" smooth="yes"/>
      <point x="16" y="711"/>
      <point x="27" y="697"/>
      <point x="44" y="697" type="curve" smooth="yes"/>
      <point x="60" y="697"/>
      <point x="77" y="711"/>
      <point x="80" y="727" type="curve" smooth="yes"/>
      <point x="83" y="744"/>
      <point x="71" y="758"/>
    </contour>
  </outline>
</glyph>
<glyph name="Ntilde" format="1">
  <advance width="521"/>
  <unicode hex="00D1"/>
  <outline>
    <contour>
      <point x="396" y="93" type="line"/>
      <point x="147" y="635" type="line"/>
      <point x="96" y="635" type="line"/>
      <point x="-15" y="0" type="line"/>
      <point x="36" y="0" type="line"/>
      <point x="131" y="541" type="line"/>
      <point x="380" y="0" type="line"/>
      <point x="431" y="0" type="line"/>
      <point x="542" y="635" type="line"/>
      <point x="491" y="635" type="line"/>
    </contour>
    <contour>
      <point x="451" y="711" type="curve"/>
      <point x="439" y="754" type="line"/>
      <point x="426" y="744"/>
      <point x="406" y="736"/>
      <point x="389" y="736" type="curve" smooth="yes"/>
      <point x="376" y="736"/>
      <point x="338" y="759"/>
      <point x="294" y="759" type="curve" smooth="yes"/>
      <point x="270" y="759"/>
      <point x="243" y="753"/>
      <point x="218" y="730" type="curve"/>
      <point x="232" y="688" type="line"/>
      <point x="247" y="699"/>
      <point x="258" y="705"/>
      <point x="276" y="706" type="curve" smooth="yes"/>
      <point x="304" y="708"/>
      <point x="340" y="684"/>
      <point x="381" y="684" type="curve" smooth="yes"/>
      <point x="403" y="684"/>
      <point x="426" y="691"/>
    </contour>
  </outline>
</glyph>
<glyph name="Odieresis" format="1">
  <advance width="434"/>
  <unicode hex="00D6"/>
  <outline>
    <contour>
      <point x="55" y="460" type="curve" smooth="yes"/>
      <point x="3" y="168" type="line" smooth="yes"/>
      <point x="-18" y="51"/>
      <point x="56" y="-10"/>
      <point x="163" y="-10" type="curve" smooth="yes"/>
      <point x="275" y="-10"/>
      <point x="365" y="58"/>
      <point x="384" y="168" type="curve" smooth="yes"/>
      <point x="435" y="459" type="line" smooth="yes"/>
      <point x="456" y="577"/>
      <point x="400" y="649"/>
      <point x="280" y="649" type="curve" smooth="yes"/>
      <point x="160" y="649"/>
      <point x="76" y="584"/>
    </contour>
    <contour>
      <point x="54" y="169" type="curve" smooth="yes"/>
      <point x="107" y="468" type="line" smooth="yes"/>
      <point x="123" y="556"/>
      <point x="185" y="601"/>
      <point x="269" y="601" type="curve" smooth="yes"/>
      <point x="354" y="601"/>
      <point x="403" y="556"/>
      <point x="387" y="468" type="curve" smooth="yes"/>
      <point x="334" y="169" type="line" smooth="yes"/>
      <point x="319" y="80"/>
      <point x="253" y="38"/>
      <point x="170" y="38" type="curve" smooth="yes"/>
      <point x="90" y="38"/>
      <point x="39" y="82"/>
    </contour>
    <contour>
      <point x="371" y="767" type="curve" smooth="yes"/>
      <point x="354" y="767"/>
      <point x="337" y="753"/>
      <point x="334" y="736" type="curve" smooth="yes"/>
      <point x="331" y="719"/>
      <point x="343" y="706"/>
      <point x="360" y="706" type="curve" smooth="yes"/>
      <point x="376" y="706"/>
      <point x="392" y="719"/>
      <point x="395" y="736" type="curve" smooth="yes"/>
      <point x="398" y="753"/>
      <point x="387" y="767"/>
    </contour>
    <contour>
      <point x="227" y="767" type="curve" smooth="yes"/>
      <point x="210" y="767"/>
      <point x="194" y="753"/>
      <point x="191" y="736" type="curve" smooth="yes"/>
      <point x="188" y="719"/>
      <point x="199" y="706"/>
      <point x="216" y="706" type="curve" smooth="yes"/>
      <point x="233" y="706"/>
      <point x="249" y="719"/>
      <point x="252" y="736" type="curve" smooth="yes"/>
      <point x="255" y="753"/>
      <point x="244" y="767"/>
    </contour>
  </outline>
</glyph>
<glyph name="multiply" format="1">
  <advance width="320"/>
  <unicode hex="00D7"/>
  <outline>
    <contour>
      <point x="52" y="419" type="line"/>
      <point x="128" y="302" type="line"/>
      <point x="11" y="186" type="line"/>
      <point x="43" y="152" type="line"/>
      <point x="154" y="263" type="line"/>
      <point x="225" y="152" type="line"/>
      <point x="269" y="186" type="line"/>
      <point x="193" y="302" type="line"/>
      <point x="310" y="419" type="line"/>
      <point x="278" y="450" type="line"/>
      <point x="167" y="340" type="line"/>
      <point x="95" y="450" type="line"/>
    </contour>
  </outline>
</glyph>
<glyph name="Ucircumflex" format="1">
  <advance width="439"/>
  <unicode hex="00DB"/>
  <outline>
    <contour>
      <point x="380" y="168" type="curve" smooth="yes"/>
      <point x="462" y="635" type="line"/>
      <point x="412" y="635" type="line"/>
      <point x="330" y="169" type="line" smooth="yes"/>
      <point x="323" y="127"/>
      <point x="304" y="96"/>
      <point x="279" y="74" type="curve" smooth="yes"/>
      <point x="249" y="49"/>
      <point x="211" y="38"/>
      <point x="167" y="38" type="curve" smooth="yes"/>
      <point x="129" y="38"/>
      <point x="97" y="48"/>
      <point x="76" y="67" type="curve" smooth="yes"/>
      <point x="52" y="89"/>
      <point x="42" y="123"/>
      <point x="50" y="169" type="curve" smooth="yes"/>
      <point x="132" y="635" type="line"/>
      <point x="82" y="635" type="line"/>
      <point x="0" y="168" type="line" smooth="yes"/>
      <point x="-11" y="107"/>
      <point x="0" y="62"/>
      <point x="32" y="33" type="curve" smooth="yes"/>
      <point x="65" y="4"/>
      <point x="108" y="-10"/>
      <point x="160" y="-10" type="curve" smooth="yes"/>
      <point x="211" y="-10"/>
      <point x="258" y="4"/>
      <point x="300" y="33" type="curve" smooth="yes"/>
      <point x="342" y="62"/>
      <point x="369" y="107"/>
    </contour>
    <contour>
      <point x="296" y="757" type="line"/>
      <point x="363" y="677" type="line"/>
      <point x="404" y="712" type="line"/>
      <point x="308" y="826" type="line"/>
      <point x="168" y="710" type="line"/>
      <point x="197" y="676" type="line"/>
    </contour>
  </outline>
</glyph>
<glyph name="Yacute" format="1">
  <advance width="432"/>
  <unicode hex="00DD"/>
  <outline>
    <contour>
      <point x="367" y="141" type="curve" smooth="yes"/>
      <point x="454" y="635" type="line"/>
      <point x="403" y="635" type="line"/>
      <point x="359" y="384" type="line" smooth="yes"/>
      <point x="352" y="345"/>
      <point x="323" y="308"/>
      <point x="285" y="290" type="curve" smooth="yes"/>
      <point x="258" y="278"/>
      <point x="224" y="272"/>
      <point x="187" y="272" type="curve" smooth="yes"/>
      <point x="147" y="272"/>
      <point x="113" y="282"/>
      <point x="87" y="304" type="curve" smooth="yes"/>
      <point x="62" y="327"/>
      <point x="55" y="359"/>
      <point x="64" y="410" type="curve" smooth="yes"/>
      <point x="103" y="635" type="line"/>
      <point x="52" y="635" type="line"/>
      <point x="15" y="420" type="line" smooth="yes"/>
      <point x="2" y="346"/>
      <point x="11" y="300"/>
      <point x="44" y="268" type="curve" smooth="yes"/>
      <point x="75" y="236"/>
      <point x="123" y="219"/>
      <point x="188" y="222" type="curve" smooth="yes"/>
      <point x="271" y="227"/>
      <point x="320" y="259"/>
      <point x="340" y="277" type="curve"/>
      <point x="316" y="138" type="line" smooth="yes"/>
      <point x="305" y="78"/>
      <point x="281" y="41"/>
      <point x="240" y="27" type="curve"/>
      <point x="246" y="-6" type="line"/>
      <point x="309" y="2"/>
      <point x="352" y="53"/>
    </contour>
    <contour>
      <point x="296" y="771" type="curve" smooth="yes"/>
      <point x="245" y="674" type="line"/>
      <point x="277" y="674" type="line"/>
      <point x="338" y="746" type="line"/>
      <point x="352" y="759"/>
      <point x="354" y="780"/>
      <point x="340" y="789" type="curve" smooth="yes"/>
      <point x="325" y="798"/>
      <point x="305" y="788"/>
    </contour>
  </outline>
</glyph>
<glyph name="Thorn" format="1">
  <advance width="372"/>
  <unicode hex="00DE"/>
  <outline>
    <contour>
      <point x="357" y="263" type="curve" smooth="yes"/>
      <point x="380" y="395" type="line" smooth="yes"/>
      <point x="386" y="435"/>
      <point x="384" y="464"/>
      <point x="372" y="493" type="curve" smooth="yes"/>
      <point x="356" y="533"/>
      <point x="324" y="555"/>
      <point x="286" y="564" type="curve" smooth="yes"/>
      <point x="241" y="574"/>
      <point x="183" y="565"/>
      <point x="132" y="545" type="curve"/>
      <point x="147" y="635" type="line"/>
      <point x="96" y="635" type="line"/>
      <point x="-15" y="0" type="line"/>
      <point x="36" y="0" type="line"/>
      <point x="54" y="107" type="line"/>
      <point x="109" y="93"/>
      <point x="176" y="91"/>
      <point x="228" y="107" type="curve" smooth="yes"/>
      <point x="294" y="127"/>
      <point x="341" y="174"/>
    </contour>
    <contour>
      <point x="269" y="518" type="curve" smooth="yes"/>
      <point x="296" y="511"/>
      <point x="316" y="493"/>
      <point x="326" y="464" type="curve"/>
      <point x="332" y="442"/>
      <point x="335" y="415"/>
      <point x="329" y="382" type="curve" smooth="yes"/>
      <point x="310" y="274" type="line" smooth="yes"/>
      <point x="299" y="213"/>
      <point x="276" y="171"/>
      <point x="225" y="153" type="curve" smooth="yes"/>
      <point x="169" y="131"/>
      <point x="82" y="150"/>
      <point x="63" y="154" type="curve"/>
      <point x="123" y="497" type="line"/>
      <point x="168" y="516"/>
      <point x="233" y="528"/>
    </contour>
  </outline>
</glyph>
<glyph name="germandbls" format="1">
  <advance width="383"/>
  <unicode hex="00DF"/>
  <outline>
    <contour>
      <point x="35" y="0" type="curve"/>
      <point x="121" y="490" type="line" smooth="yes"/>
      <point x="132" y="555"/>
      <point x="164" y="586"/>
      <point x="214" y="586" type="curve" smooth="yes"/>
      <point x="253" y="586"/>
      <point x="269" y="555"/>
      <point x="267" y="523" type="curve" smooth="yes"/>
      <point x="264" y="491"/>
      <point x="242" y="460"/>
      <point x="202" y="460" type="curve"/>
      <point x="183" y="436"/>
      <point x="175" y="414"/>
      <point x="174" y="394" type="curve" smooth="yes"/>
      <point x="170" y="345"/>
      <point x="209" y="306"/>
      <point x="248" y="267" type="curve" smooth="yes"/>
      <point x="287" y="226"/>
      <point x="326" y="185"/>
      <point x="316" y="130" type="curve" smooth="yes"/>
      <point x="306" y="69"/>
      <point x="255" y="40"/>
      <point x="203" y="39" type="curve" smooth="yes"/>
      <point x="167" y="39"/>
      <point x="132" y="52"/>
      <point x="110" y="77" type="curve"/>
      <point x="98" y="62"/>
      <point x="87" y="48"/>
      <point x="75" y="33" type="curve"/>
      <point x="106" y="3"/>
      <point x="154" y="-12"/>
      <point x="203" y="-10" type="curve" smooth="yes"/>
      <point x="277" y="-7"/>
      <point x="353" y="36"/>
      <point x="369" y="128" type="curve" smooth="yes"/>
      <point x="382" y="199"/>
      <point x="340" y="250"/>
      <point x="297" y="294" type="curve" smooth="yes"/>
      <point x="261" y="332"/>
      <point x="225" y="364"/>
      <point x="227" y="399" type="curve" smooth="yes"/>
      <point x="228" y="410"/>
      <point x="232" y="421"/>
      <point x="241" y="432" type="curve"/>
      <point x="240" y="432"/>
      <point x="268" y="432"/>
      <point x="268" y="432" type="curve"/>
      <point x="295" y="452"/>
      <point x="312" y="485"/>
      <point x="316" y="518" type="curve" smooth="yes"/>
      <point x="324" y="577"/>
      <point x="293" y="639"/>
      <point x="217" y="635" type="curve"/>
      <point x="138" y="635"/>
      <point x="86" y="580"/>
      <point x="69" y="487" type="curve" smooth="yes"/>
      <point x="41" y="325"/>
      <point x="12" y="162"/>
      <point x="-16" y="0" type="curve"/>
      <point x="1" y="0"/>
      <point x="18" y="0"/>
    </contour>
  </outline>
</glyph>
<glyph name="atilde" format="1">
  <advance width="380"/>
  <unicode hex="00E3"/>
  <outline>
    <contour>
      <point x="326" y="317" type="curve"/>
      <point x="289" y="341"/>
      <point x="235" y="365"/>
      <point x="176" y="365" type="curve" smooth="yes"/>
      <point x="103" y="365"/>
      <point x="31" y="330"/>
      <point x="13" y="228" type="curve" smooth="yes"/>
      <point x="8" y="203"/>
      <point x="4" y="178"/>
      <point x="-1" y="153" type="curve" smooth="yes"/>
      <point x="-24" y="19"/>
      <point x="59" y="-13"/>
      <point x="177" y="-9" type="curve" smooth="yes"/>
      <point x="222" y="-8"/>
      <point x="322" y="0"/>
      <point x="322" y="0" type="curve"/>
      <point x="337" y="87"/>
      <point x="352" y="174"/>
      <point x="368" y="261" type="curve" smooth="yes"/>
      <point x="382" y="341"/>
      <point x="386" y="404"/>
      <point x="334" y="436" type="curve" smooth="yes"/>
      <point x="300" y="458"/>
      <point x="256" y="461"/>
      <point x="214" y="461" type="curve"/>
      <point x="205" y="422" type="line"/>
      <point x="239" y="422"/>
      <point x="269" y="419"/>
      <point x="290" y="408" type="curve" smooth="yes"/>
      <point x="321" y="393"/>
      <point x="335" y="367"/>
    </contour>
    <contour>
      <point x="319" y="275" type="curve"/>
      <point x="305" y="197"/>
      <point x="292" y="120"/>
      <point x="278" y="42" type="curve"/>
      <point x="278" y="42"/>
      <point x="240" y="38"/>
      <point x="181" y="35" type="curve" smooth="yes"/>
      <point x="59" y="30"/>
      <point x="35" y="73"/>
      <point x="51" y="159" type="curve" smooth="yes"/>
      <point x="54" y="177"/>
      <point x="59" y="205"/>
      <point x="62" y="226" type="curve" smooth="yes"/>
      <point x="77" y="308"/>
      <point x="131" y="322"/>
      <point x="164" y="322" type="curve" smooth="yes"/>
      <point x="222" y="322"/>
      <point x="273" y="299"/>
    </contour>
    <contour>
      <point x="359" y="530" type="curve"/>
      <point x="348" y="573" type="line"/>
      <point x="334" y="563"/>
      <point x="313" y="555"/>
      <point x="296" y="555" type="curve" smooth="yes"/>
      <point x="284" y="555"/>
      <point x="246" y="578"/>
      <point x="202" y="578" type="curve" smooth="yes"/>
      <point x="177" y="578"/>
      <point x="151" y="571"/>
      <point x="126" y="549" type="curve"/>
      <point x="139" y="507" type="line"/>
      <point x="154" y="518"/>
      <point x="166" y="524"/>
      <point x="183" y="525" type="curve" smooth="yes"/>
      <point x="211" y="527"/>
      <point x="247" y="503"/>
      <point x="289" y="503" type="curve" smooth="yes"/>
      <point x="311" y="503"/>
      <point x="334" y="510"/>
    </contour>
  </outline>
</glyph>
<glyph name="aring" format="1">
  <advance width="380"/>
  <unicode hex="00E5"/>
  <outline>
    <contour>
      <point x="326" y="317" type="curve"/>
      <point x="289" y="341"/>
      <point x="235" y="365"/>
      <point x="176" y="365" type="curve" smooth="yes"/>
      <point x="103" y="365"/>
      <point x="31" y="330"/>
      <point x="13" y="228" type="curve" smooth="yes"/>
      <point x="8" y="203"/>
      <point x="4" y="178"/>
      <point x="-1" y="153" type="curve" smooth="yes"/>
      <point x="-24" y="19"/>
      <point x="59" y="-13"/>
      <point x="177" y="-9" type="curve" smooth="yes"/>
      <point x="222" y="-8"/>
      <point x="322" y="0"/>
      <point x="322" y="0" type="curve"/>
      <point x="337" y="87"/>
      <point x="352" y="174"/>
      <point x="368" y="261" type="curve" smooth="yes"/>
      <point x="382" y="341"/>
      <point x="386" y="404"/>
      <point x="334" y="436" type="curve" smooth="yes"/>
      <point x="300" y="458"/>
      <point x="256" y="461"/>
      <point x="214" y="461" type="curve"/>
      <point x="205" y="422" type="line"/>
      <point x="239" y="422"/>
      <point x="269" y="419"/>
      <point x="290" y="408" type="curve" smooth="yes"/>
      <point x="321" y="393"/>
      <point x="335" y="367"/>
    </contour>
    <contour>
      <point x="319" y="275" type="curve"/>
      <point x="305" y="197"/>
      <point x="292" y="120"/>
      <point x="278" y="42" type="curve"/>
      <point x="278" y="42"/>
      <point x="240" y="38"/>
      <point x="181" y="35" type="curve" smooth="yes"/>
      <point x="59" y="30"/>
      <point x="35" y="73"/>
      <point x="51" y="159" type="curve" smooth="yes"/>
      <point x="54" y="177"/>
      <point x="59" y="205"/>
      <point x="62" y="226" type="curve" smooth="yes"/>
      <point x="77" y="308"/>
      <point x="131" y="322"/>
      <point x="164" y="322" type="curve" smooth="yes"/>
      <point x="222" y="322"/>
      <point x="273" y="299"/>
    </contour>
    <contour>
      <point x="209" y="423" type="curve" smooth="yes"/>
      <point x="267" y="423"/>
      <point x="321" y="470"/>
      <point x="331" y="527" type="curve" smooth="yes"/>
      <point x="341" y="584"/>
      <point x="304" y="630"/>
      <point x="246" y="630" type="curve" smooth="yes"/>
      <point x="189" y="630"/>
      <point x="134" y="584"/>
      <point x="124" y="527" type="curve" smooth="yes"/>
      <point x="114" y="470"/>
      <point x="152" y="423"/>
    </contour>
    <contour>
      <point x="291" y="527" type="curve" smooth="yes"/>
      <point x="285" y="492"/>
      <point x="251" y="463"/>
      <point x="216" y="463" type="curve" smooth="yes"/>
      <point x="181" y="463"/>
      <point x="158" y="492"/>
      <point x="164" y="527" type="curve" smooth="yes"/>
      <point x="171" y="562"/>
      <point x="204" y="590"/>
      <point x="239" y="590" type="curve" smooth="yes"/>
      <point x="274" y="590"/>
      <point x="298" y="562"/>
    </contour>
  </outline>
</glyph>
<glyph name="ae" format="1">
  <advance width="657"/>
  <unicode hex="00E6"/>
  <outline>
    <contour>
      <point x="343" y="121" type="curve" smooth="yes"/>
      <point x="353" y="177" type="line"/>
      <point x="631" y="192" type="line"/>
      <point x="652" y="310" type="line" smooth="yes"/>
      <point x="669" y="408"/>
      <point x="617" y="462"/>
      <point x="519" y="462" type="curve" smooth="yes"/>
      <point x="454" y="462"/>
      <point x="402" y="440"/>
      <point x="365" y="397" type="curve"/>
      <point x="340" y="453"/>
      <point x="269" y="461"/>
      <point x="211" y="461" type="curve"/>
      <point x="207" y="448"/>
      <point x="205" y="435"/>
      <point x="202" y="422" type="curve"/>
      <point x="284" y="422"/>
      <point x="338" y="402"/>
      <point x="323" y="317" type="curve"/>
      <point x="286" y="341"/>
      <point x="232" y="365"/>
      <point x="173" y="365" type="curve" smooth="yes"/>
      <point x="100" y="365"/>
      <point x="28" y="330"/>
      <point x="10" y="228" type="curve" smooth="yes"/>
      <point x="-4" y="153" type="line" smooth="yes"/>
      <point x="-24" y="36"/>
      <point x="38" y="-4"/>
      <point x="132" y="-9" type="curve" smooth="yes"/>
      <point x="153" y="-10"/>
      <point x="307" y="-3"/>
      <point x="319" y="0" type="curve"/>
      <point x="321" y="13" type="line"/>
      <point x="352" y="-10"/>
      <point x="398" y="-11"/>
      <point x="425" y="-11" type="curve" smooth="yes"/>
      <point x="471" y="-10"/>
      <point x="529" y="4"/>
      <point x="580" y="32" type="curve"/>
      <point x="567" y="71" type="line"/>
      <point x="517" y="46"/>
      <point x="476" y="33"/>
      <point x="428" y="33" type="curve" smooth="yes"/>
      <point x="399" y="33"/>
      <point x="328" y="35"/>
    </contour>
    <contour>
      <point x="316" y="275" type="curve"/>
      <point x="275" y="42" type="line"/>
      <point x="275" y="42"/>
      <point x="237" y="38"/>
      <point x="178" y="35" type="curve" smooth="yes"/>
      <point x="56" y="30"/>
      <point x="32" y="73"/>
      <point x="48" y="159" type="curve" smooth="yes"/>
      <point x="59" y="226" type="line" smooth="yes"/>
      <point x="74" y="308"/>
      <point x="128" y="322"/>
      <point x="161" y="322" type="curve" smooth="yes"/>
      <point x="219" y="322"/>
      <point x="270" y="299"/>
    </contour>
    <contour>
      <point x="602" y="316" type="curve" smooth="yes"/>
      <point x="588" y="237" type="line"/>
      <point x="362" y="227" type="line"/>
      <point x="371" y="280" type="line" smooth="yes"/>
      <point x="388" y="376"/>
      <point x="430" y="419"/>
      <point x="510" y="419" type="curve" smooth="yes"/>
      <point x="549" y="419"/>
      <point x="617" y="399"/>
    </contour>
  </outline>
</glyph>
<glyph name="ccedilla" format="1">
  <advance width="321"/>
  <unicode hex="00E7"/>
  <outline>
    <contour>
      <point x="313" y="391" type="curve"/>
      <point x="335" y="433" type="line"/>
      <point x="287" y="457"/>
      <point x="228" y="469"/>
      <point x="174" y="458" type="curve" smooth="yes"/>
      <point x="132" y="449"/>
      <point x="93" y="427"/>
      <point x="62" y="387" type="curve" smooth="yes"/>
      <point x="40" y="358"/>
      <point x="29" y="329"/>
      <point x="19" y="289" type="curve"/>
      <point x="-4" y="157" type="line" smooth="yes"/>
      <point x="-20" y="68"/>
      <point x="12" y="21"/>
      <point x="71" y="1" type="curve" smooth="yes"/>
      <point x="122" y="-16"/>
      <point x="197" y="-12"/>
      <point x="261" y="5" type="curve"/>
      <point x="259" y="50" type="line"/>
      <point x="259" y="50"/>
      <point x="144" y="24"/>
      <point x="90" y="47" type="curve" smooth="yes"/>
      <point x="45" y="65"/>
      <point x="38" y="108"/>
      <point x="48" y="168" type="curve" smooth="yes"/>
      <point x="67" y="277" type="line" smooth="yes"/>
      <point x="73" y="309"/>
      <point x="84" y="337"/>
      <point x="99" y="358" type="curve" smooth="yes"/>
      <point x="119" y="387"/>
      <point x="145" y="405"/>
      <point x="174" y="412" type="curve" smooth="yes"/>
      <point x="215" y="422"/>
      <point x="274" y="411"/>
    </contour>
    <contour>
      <point x="126" y="-35" type="curve" smooth="yes"/>
      <point x="118" y="-36"/>
      <point x="110" y="-36"/>
      <point x="102" y="-37" type="curve"/>
      <point x="133" y="3" type="line"/>
      <point x="88" y="3" type="line"/>
      <point x="40" y="-59" type="line"/>
      <point x="48" y="-86" type="line"/>
      <point x="73" y="-84"/>
      <point x="96" y="-80"/>
      <point x="116" y="-80" type="curve" smooth="yes"/>
      <point x="148" y="-79"/>
      <point x="168" y="-86"/>
      <point x="163" y="-117" type="curve" smooth="yes"/>
      <point x="156" y="-154"/>
      <point x="126" y="-164"/>
      <point x="90" y="-164" type="curve" smooth="yes"/>
      <point x="66" y="-164"/>
      <point x="39" y="-159"/>
      <point x="16" y="-153" type="curve"/>
      <point x="5" y="-180"/>
      <point x="8" y="-172"/>
      <point x="-2" y="-197" type="curve"/>
      <point x="0" y="-198"/>
      <point x="45" y="-209"/>
      <point x="88" y="-209" type="curve" smooth="yes"/>
      <point x="160" y="-209"/>
      <point x="200" y="-164"/>
      <point x="207" y="-120" type="curve" smooth="yes"/>
      <point x="215" y="-74"/>
      <point x="189" y="-28"/>
    </contour>
  </outline>
</glyph>
<glyph name="edieresis" format="1">
  <advance width="353"/>
  <unicode hex="00EB"/>
  <outline>
    <contour>
      <point x="43" y="121" type="curve" smooth="yes"/>
      <point x="53" y="177" type="line"/>
      <point x="331" y="192" type="line"/>
      <point x="352" y="310" type="line" smooth="yes"/>
      <point x="360" y="356"/>
      <point x="353" y="393"/>
      <point x="332" y="419" type="curve" smooth="yes"/>
      <point x="309" y="447"/>
      <point x="271" y="462"/>
      <point x="219" y="462" type="curve" smooth="yes"/>
      <point x="174" y="462"/>
      <point x="134" y="451"/>
      <point x="102" y="430" type="curve" smooth="yes"/>
      <point x="63" y="404"/>
      <point x="34" y="362"/>
      <point x="25" y="307" type="curve" smooth="yes"/>
      <point x="-8" y="121" type="line" smooth="yes"/>
      <point x="-17" y="73"/>
      <point x="-7" y="42"/>
      <point x="11" y="22" type="curve" smooth="yes"/>
      <point x="42" y="-12"/>
      <point x="98" y="-11"/>
      <point x="125" y="-11" type="curve" smooth="yes"/>
      <point x="171" y="-10"/>
      <point x="229" y="4"/>
      <point x="280" y="32" type="curve"/>
      <point x="267" y="71" type="line"/>
      <point x="217" y="46"/>
      <point x="172" y="33"/>
      <point x="128" y="33" type="curve" smooth="yes"/>
      <point x="110" y="33"/>
      <point x="73" y="33"/>
      <point x="55" y="57" type="curve"/>
      <point x="43" y="70"/>
      <point x="37" y="90"/>
    </contour>
    <contour>
      <point x="302" y="316" type="curve" smooth="yes"/>
      <point x="298" y="290"/>
      <point x="293" y="263"/>
      <point x="288" y="237" type="curve"/>
      <point x="62" y="227" type="line"/>
      <point x="66" y="253"/>
      <point x="71" y="280"/>
      <point x="75" y="306" type="curve" smooth="yes"/>
      <point x="82" y="344"/>
      <point x="98" y="371"/>
      <point x="121" y="390" type="curve" smooth="yes"/>
      <point x="146" y="409"/>
      <point x="176" y="419"/>
      <point x="210" y="419" type="curve" smooth="yes"/>
      <point x="240" y="419"/>
      <point x="270" y="413"/>
      <point x="293" y="380" type="curve" smooth="yes"/>
      <point x="304" y="363"/>
      <point x="307" y="343"/>
    </contour>
    <contour>
      <point x="308" y="583" type="curve" smooth="yes"/>
      <point x="291" y="583"/>
      <point x="276" y="569"/>
      <point x="273" y="552" type="curve" smooth="yes"/>
      <point x="270" y="535"/>
      <point x="281" y="522"/>
      <point x="298" y="522" type="curve" smooth="yes"/>
      <point x="315" y="522"/>
      <point x="331" y="535"/>
      <point x="334" y="552" type="curve" smooth="yes"/>
      <point x="337" y="569"/>
      <point x="325" y="583"/>
    </contour>
    <contour>
      <point x="165" y="583" type="curve" smooth="yes"/>
      <point x="148" y="583"/>
      <point x="132" y="569"/>
      <point x="129" y="552" type="curve" smooth="yes"/>
      <point x="126" y="535"/>
      <point x="138" y="522"/>
      <point x="155" y="522" type="curve" smooth="yes"/>
      <point x="171" y="522"/>
      <point x="187" y="535"/>
      <point x="190" y="552" type="curve" smooth="yes"/>
      <point x="193" y="569"/>
      <point x="181" y="583"/>
    </contour>
  </outline>
</glyph>
<glyph name="igrave" format="1">
  <advance width="113"/>
  <unicode hex="00EC"/>
  <outline>
    <contour>
      <point x="122" y="454" type="line"/>
      <point x="72" y="454" type="line"/>
      <point x="-8" y="0" type="line"/>
      <point x="42" y="0" type="line"/>
    </contour>
    <contour>
      <point x="46" y="566" type="curve"/>
      <point x="82" y="494" type="line"/>
      <point x="114" y="494" type="line"/>
      <point x="97" y="592" type="line" smooth="yes"/>
      <point x="94" y="608"/>
      <point x="77" y="618"/>
      <point x="60" y="610" type="curve" smooth="yes"/>
      <point x="42" y="601"/>
      <point x="37" y="580"/>
    </contour>
  </outline>
</glyph>
<glyph name="iacute" format="1">
  <advance width="158"/>
  <unicode hex="00ED"/>
  <outline>
    <contour>
      <point x="114" y="454" type="line"/>
      <point x="63" y="454" type="line"/>
      <point x="-17" y="0" type="line"/>
      <point x="34" y="0" type="line"/>
    </contour>
    <contour>
      <point x="133" y="592" type="curve" smooth="yes"/>
      <point x="81" y="494" type="line"/>
      <point x="114" y="494" type="line"/>
      <point x="174" y="566" type="line"/>
      <point x="188" y="580"/>
      <point x="190" y="601"/>
      <point x="176" y="610" type="curve"/>
      <point x="161" y="618"/>
      <point x="141" y="608"/>
    </contour>
  </outline>
</glyph>
<glyph name="icircumflex" format="1">
  <advance width="206"/>
  <unicode hex="00EE"/>
  <outline>
    <contour>
      <point x="132" y="454" type="line"/>
      <point x="81" y="454" type="line"/>
      <point x="1" y="0" type="line"/>
      <point x="52" y="0" type="line"/>
    </contour>
    <contour>
      <point x="129" y="576" type="line"/>
      <point x="196" y="496" type="line"/>
      <point x="238" y="530" type="line"/>
      <point x="141" y="644" type="line"/>
      <point x="2" y="529" type="line"/>
      <point x="31" y="494" type="line"/>
    </contour>
  </outline>
</glyph>
<glyph name="idieresis" format="1">
  <advance width="194"/>
  <unicode hex="00EF"/>
  <outline>
    <contour>
      <point x="130" y="454" type="line"/>
      <point x="79" y="454" type="line"/>
      <point x="-1" y="0" type="line"/>
      <point x="50" y="0" type="line"/>
    </contour>
    <contour>
      <point x="223" y="548" type="curve" smooth="yes"/>
      <point x="226" y="564"/>
      <point x="214" y="578"/>
      <point x="197" y="578" type="curve" smooth="yes"/>
      <point x="180" y="578"/>
      <point x="165" y="564"/>
      <point x="162" y="548" type="curve" smooth="yes"/>
      <point x="159" y="531"/>
      <point x="170" y="517"/>
      <point x="187" y="517" type="curve" smooth="yes"/>
      <point x="204" y="517"/>
      <point x="220" y="531"/>
    </contour>
    <contour>
      <point x="79" y="548" type="curve" smooth="yes"/>
      <point x="82" y="564"/>
      <point x="70" y="578"/>
      <point x="54" y="578" type="curve" smooth="yes"/>
      <point x="37" y="578"/>
      <point x="21" y="564"/>
      <point x="18" y="548" type="curve" smooth="yes"/>
      <point x="15" y="531"/>
      <point x="27" y="517"/>
      <point x="44" y="517" type="curve" smooth="yes"/>
      <point x="60" y="517"/>
      <point x="76" y="531"/>
    </contour>
  </outline>
</glyph>
<glyph name="ntilde" format="1">
  <advance width="381"/>
  <unicode hex="00F1"/>
  <outline>
    <contour>
      <point x="322" y="311" type="curve" smooth="yes"/>
      <point x="268" y="0" type="line"/>
      <point x="318" y="0" type="line"/>
      <point x="373" y="314" type="line" smooth="yes"/>
      <point x="390" y="409"/>
      <point x="341" y="462"/>
      <point x="241" y="462" type="curve" smooth="yes"/>
      <point x="196" y="462"/>
      <point x="147" y="447"/>
      <point x="108" y="423" type="curve"/>
      <point x="114" y="454" type="line"/>
      <point x="63" y="454" type="line"/>
      <point x="-17" y="0" type="line"/>
      <point x="34" y="0" type="line"/>
      <point x="101" y="385" type="line"/>
      <point x="142" y="406"/>
      <point x="182" y="416"/>
      <point x="223" y="416" type="curve" smooth="yes"/>
      <point x="280" y="416"/>
      <point x="337" y="393"/>
    </contour>
    <contour>
      <point x="361" y="528" type="curve"/>
      <point x="350" y="571" type="line"/>
      <point x="336" y="561"/>
      <point x="316" y="552"/>
      <point x="299" y="553" type="curve"/>
      <point x="286" y="552"/>
      <point x="248" y="576"/>
      <point x="204" y="576" type="curve" smooth="yes"/>
      <point x="180" y="576"/>
      <point x="153" y="569"/>
      <point x="128" y="547" type="curve"/>
      <point x="142" y="505" type="line"/>
      <point x="156" y="515"/>
      <point x="168" y="522"/>
      <point x="186" y="523" type="curve" smooth="yes"/>
      <point x="214" y="525"/>
      <point x="250" y="501"/>
      <point x="291" y="501" type="curve" smooth="yes"/>
      <point x="313" y="501"/>
      <point x="336" y="507"/>
    </contour>
  </outline>
</glyph>
<glyph name="ograve" format="1">
  <advance width="362"/>
  <unicode hex="00F2"/>
  <outline>
    <contour>
      <point x="333" y="167" type="curve" smooth="yes"/>
      <point x="354" y="286" type="line" smooth="yes"/>
      <point x="373" y="396"/>
      <point x="327" y="464"/>
      <point x="219" y="464" type="curve" smooth="yes"/>
      <point x="111" y="464"/>
      <point x="39" y="402"/>
      <point x="19" y="286" type="curve" smooth="yes"/>
      <point x="-2" y="167" type="line" smooth="yes"/>
      <point x="-20" y="68"/>
      <point x="25" y="-9"/>
      <point x="138" y="-9" type="curve" smooth="yes"/>
      <point x="250" y="-9"/>
      <point x="315" y="65"/>
    </contour>
    <contour>
      <point x="303" y="286" type="curve" smooth="yes"/>
      <point x="280" y="158" type="line" smooth="yes"/>
      <point x="267" y="84"/>
      <point x="221" y="36"/>
      <point x="146" y="36" type="curve" smooth="yes"/>
      <point x="72" y="36"/>
      <point x="34" y="85"/>
      <point x="47" y="158" type="curve" smooth="yes"/>
      <point x="70" y="286" type="line" smooth="yes"/>
      <point x="85" y="374"/>
      <point x="133" y="418"/>
      <point x="213" y="418" type="curve" smooth="yes"/>
      <point x="291" y="418"/>
      <point x="318" y="374"/>
    </contour>
    <contour>
      <point x="171" y="570" type="curve"/>
      <point x="206" y="498" type="line"/>
      <point x="238" y="498" type="line"/>
      <point x="221" y="595" type="line" smooth="yes"/>
      <point x="218" y="612"/>
      <point x="202" y="622"/>
      <point x="185" y="613" type="curve" smooth="yes"/>
      <point x="167" y="604"/>
      <point x="161" y="583"/>
    </contour>
  </outline>
</glyph>
<glyph name="ocircumflex" format="1">
  <advance width="363"/>
  <unicode hex="00F4"/>
  <outline>
    <contour>
      <point x="333" y="167" type="curve" smooth="yes"/>
      <point x="354" y="286" type="line" smooth="yes"/>
      <point x="373" y="396"/>
      <point x="327" y="464"/>
      <point x="219" y="464" type="curve" smooth="yes"/>
      <point x="111" y="464"/>
      <point x="39" y="402"/>
      <point x="19" y="286" type="curve" smooth="yes"/>
      <point x="-2" y="167" type="line" smooth="yes"/>
      <point x="-20" y="68"/>
      <point x="25" y="-9"/>
      <point x="138" y="-9" type="curve" smooth="yes"/>
      <point x="250" y="-9"/>
      <point x="315" y="65"/>
    </contour>
    <contour>
      <point x="303" y="286" type="curve" smooth="yes"/>
      <point x="280" y="158" type="line" smooth="yes"/>
      <point x="267" y="84"/>
      <point x="221" y="36"/>
      <point x="146" y="36" type="curve" smooth="yes"/>
      <point x="72" y="36"/>
      <point x="34" y="85"/>
      <point x="47" y="158" type="curve" smooth="yes"/>
      <point x="70" y="286" type="line" smooth="yes"/>
      <point x="85" y="374"/>
      <point x="133" y="418"/>
      <point x="213" y="418" type="curve" smooth="yes"/>
      <point x="291" y="418"/>
      <point x="318" y="374"/>
    </contour>
    <contour>
      <point x="245" y="584" type="line"/>
      <point x="324" y="489" type="line"/>
      <point x="365" y="525" type="line"/>
      <point x="259" y="653" type="line"/>
      <point x="102" y="525" type="line"/>
      <point x="130" y="489" type="line"/>
    </contour>
  </outline>
</glyph>
<glyph name="otilde" format="1">
  <advance width="363"/>
  <unicode hex="00F5"/>
  <outline>
    <contour>
      <point x="333" y="167" type="curve" smooth="yes"/>
      <point x="354" y="286" type="line" smooth="yes"/>
      <point x="373" y="396"/>
      <point x="327" y="464"/>
      <point x="219" y="464" type="curve" smooth="yes"/>
      <point x="111" y="464"/>
      <point x="39" y="402"/>
      <point x="19" y="286" type="curve" smooth="yes"/>
      <point x="-2" y="167" type="line" smooth="yes"/>
      <point x="-20" y="68"/>
      <point x="25" y="-9"/>
      <point x="138" y="-9" type="curve" smooth="yes"/>
      <point x="250" y="-9"/>
      <point x="315" y="65"/>
    </contour>
    <contour>
      <point x="303" y="286" type="curve" smooth="yes"/>
      <point x="280" y="158" type="line" smooth="yes"/>
      <point x="267" y="84"/>
      <point x="221" y="36"/>
      <point x="146" y="36" type="curve" smooth="yes"/>
      <point x="72" y="36"/>
      <point x="34" y="85"/>
      <point x="47" y="158" type="curve" smooth="yes"/>
      <point x="70" y="286" type="line" smooth="yes"/>
      <point x="85" y="374"/>
      <point x="133" y="418"/>
      <point x="213" y="418" type="curve" smooth="yes"/>
      <point x="291" y="418"/>
      <point x="318" y="374"/>
    </contour>
    <contour>
      <point x="348" y="528" type="curve"/>
      <point x="336" y="571" type="line"/>
      <point x="322" y="561"/>
      <point x="302" y="553"/>
      <point x="285" y="553" type="curve" smooth="yes"/>
      <point x="273" y="553"/>
      <point x="235" y="576"/>
      <point x="191" y="576" type="curve" smooth="yes"/>
      <point x="166" y="576"/>
      <point x="140" y="569"/>
      <point x="115" y="547" type="curve"/>
      <point x="128" y="505" type="line"/>
      <point x="142" y="515"/>
      <point x="155" y="522"/>
      <point x="173" y="523" type="curve" smooth="yes"/>
      <point x="200" y="525"/>
      <point x="236" y="501"/>
      <point x="278" y="501" type="curve" smooth="yes"/>
      <point x="300" y="501"/>
      <point x="323" y="508"/>
    </contour>
  </outline>
</glyph>
<glyph name="odieresis" format="1">
  <advance width="362"/>
  <unicode hex="00F6"/>
  <outline>
    <contour>
      <point x="333" y="167" type="curve" smooth="yes"/>
      <point x="354" y="286" type="line" smooth="yes"/>
      <point x="373" y="396"/>
      <point x="327" y="464"/>
      <point x="219" y="464" type="curve" smooth="yes"/>
      <point x="111" y="464"/>
      <point x="39" y="402"/>
      <point x="19" y="286" type="curve" smooth="yes"/>
      <point x="-2" y="167" type="line" smooth="yes"/>
      <point x="-20" y="68"/>
      <point x="25" y="-9"/>
      <point x="138" y="-9" type="curve" smooth="yes"/>
      <point x="250" y="-9"/>
      <point x="315" y="65"/>
    </contour>
    <contour>
      <point x="303" y="286" type="curve" smooth="yes"/>
      <point x="280" y="158" type="line" smooth="yes"/>
      <point x="267" y="84"/>
      <point x="221" y="36"/>
      <point x="146" y="36" type="curve" smooth="yes"/>
      <point x="72" y="36"/>
      <point x="34" y="85"/>
      <point x="47" y="158" type="curve" smooth="yes"/>
      <point x="70" y="286" type="line" smooth="yes"/>
      <point x="85" y="374"/>
      <point x="133" y="418"/>
      <point x="213" y="418" type="curve" smooth="yes"/>
      <point x="291" y="418"/>
      <point x="318" y="374"/>
    </contour>
    <contour>
      <point x="332" y="551" type="curve" smooth="yes"/>
      <point x="335" y="568"/>
      <point x="324" y="581"/>
      <point x="307" y="581" type="curve" smooth="yes"/>
      <point x="290" y="581"/>
      <point x="274" y="568"/>
      <point x="271" y="551" type="curve" smooth="yes"/>
      <point x="268" y="534"/>
      <point x="279" y="520"/>
      <point x="296" y="520" type="curve" smooth="yes"/>
      <point x="313" y="520"/>
      <point x="329" y="534"/>
    </contour>
    <contour>
      <point x="189" y="551" type="curve" smooth="yes"/>
      <point x="192" y="568"/>
      <point x="180" y="581"/>
      <point x="163" y="581" type="curve" smooth="yes"/>
      <point x="147" y="581"/>
      <point x="131" y="568"/>
      <point x="128" y="551" type="curve" smooth="yes"/>
      <point x="125" y="534"/>
      <point x="136" y="520"/>
      <point x="152" y="520" type="curve" smooth="yes"/>
      <point x="169" y="520"/>
      <point x="186" y="534"/>
    </contour>
  </outline>
</glyph>
<glyph name="divide" format="1">
  <advance width="321"/>
  <unicode hex="00F7"/>
  <outline>
    <contour>
      <point x="311" y="372" type="line"/>
      <point x="21" y="372" type="line"/>
      <point x="12" y="323" type="line"/>
      <point x="302" y="323" type="line"/>
    </contour>
    <contour>
      <point x="189" y="495" type="curve" smooth="yes"/>
      <point x="172" y="495"/>
      <point x="156" y="481"/>
      <point x="153" y="464" type="curve" smooth="yes"/>
      <point x="150" y="447"/>
      <point x="161" y="434"/>
      <point x="178" y="434" type="curve" smooth="yes"/>
      <point x="195" y="434"/>
      <point x="211" y="447"/>
      <point x="214" y="464" type="curve" smooth="yes"/>
      <point x="217" y="481"/>
      <point x="206" y="495"/>
    </contour>
    <contour>
      <point x="148" y="261" type="curve" smooth="yes"/>
      <point x="131" y="261"/>
      <point x="115" y="248"/>
      <point x="112" y="231" type="curve" smooth="yes"/>
      <point x="109" y="214"/>
      <point x="120" y="201"/>
      <point x="137" y="201" type="curve" smooth="yes"/>
      <point x="154" y="201"/>
      <point x="170" y="214"/>
      <point x="173" y="231" type="curve" smooth="yes"/>
      <point x="176" y="248"/>
      <point x="165" y="261"/>
    </contour>
  </outline>
</glyph>
<glyph name="oslash" format="1">
  <advance width="376"/>
  <unicode hex="00F8"/>
  <outline>
    <contour>
      <point x="333" y="167" type="curve" smooth="yes"/>
      <point x="354" y="286" type="line" smooth="yes"/>
      <point x="365" y="346"/>
      <point x="355" y="393"/>
      <point x="327" y="424" type="curve"/>
      <point x="393" y="532" type="line"/>
      <point x="340" y="532" type="line"/>
      <point x="290" y="450" type="line"/>
      <point x="270" y="459"/>
      <point x="247" y="464"/>
      <point x="219" y="464" type="curve" smooth="yes"/>
      <point x="111" y="464"/>
      <point x="39" y="402"/>
      <point x="19" y="286" type="curve" smooth="yes"/>
      <point x="-2" y="167" type="line" smooth="yes"/>
      <point x="-12" y="108"/>
      <point x="-1" y="58"/>
      <point x="33" y="26" type="curve"/>
      <point x="-19" y="-60" type="line"/>
      <point x="32" y="-60" type="line"/>
      <point x="70" y="2" type="line"/>
      <point x="89" y="-5"/>
      <point x="111" y="-9"/>
      <point x="138" y="-9" type="curve" smooth="yes"/>
      <point x="250" y="-9"/>
      <point x="315" y="65"/>
    </contour>
    <contour>
      <point x="47" y="158" type="curve" smooth="yes"/>
      <point x="70" y="286" type="line" smooth="yes"/>
      <point x="85" y="374"/>
      <point x="133" y="418"/>
      <point x="213" y="418" type="curve" smooth="yes"/>
      <point x="234" y="418"/>
      <point x="251" y="415"/>
      <point x="264" y="408" type="curve"/>
      <point x="61" y="73" type="line"/>
      <point x="46" y="94"/>
      <point x="41" y="123"/>
    </contour>
    <contour>
      <point x="303" y="286" type="curve" smooth="yes"/>
      <point x="280" y="158" type="line" smooth="yes"/>
      <point x="267" y="84"/>
      <point x="221" y="36"/>
      <point x="146" y="36" type="curve" smooth="yes"/>
      <point x="127" y="36"/>
      <point x="109" y="39"/>
      <point x="95" y="45" type="curve"/>
      <point x="298" y="376" type="line"/>
      <point x="308" y="354"/>
      <point x="310" y="324"/>
    </contour>
  </outline>
</glyph>
<glyph name="ugrave" format="1">
  <advance width="379"/>
  <unicode hex="00F9"/>
  <outline>
    <contour>
      <point x="266" y="44" type="curve"/>
      <point x="259" y="0" type="line"/>
      <point x="310" y="0" type="line"/>
      <point x="390" y="454" type="line"/>
      <point x="339" y="454" type="line"/>
      <point x="286" y="156" type="line" smooth="yes"/>
      <point x="275" y="92"/>
      <point x="215" y="40"/>
      <point x="151" y="40" type="curve" smooth="yes"/>
      <point x="93" y="40"/>
      <point x="36" y="62"/>
      <point x="51" y="145" type="curve" smooth="yes"/>
      <point x="106" y="454" type="line"/>
      <point x="55" y="454" type="line"/>
      <point x="0" y="142" type="line" smooth="yes"/>
      <point x="-19" y="39"/>
      <point x="30" y="-9"/>
      <point x="131" y="-9" type="curve" smooth="yes"/>
      <point x="176" y="-9"/>
      <point x="229" y="8"/>
    </contour>
    <contour>
      <point x="173" y="565" type="curve" smooth="yes"/>
      <point x="209" y="494" type="line"/>
      <point x="241" y="494" type="line"/>
      <point x="224" y="591" type="line"/>
      <point x="222" y="608"/>
      <point x="204" y="618"/>
      <point x="187" y="609" type="curve" smooth="yes"/>
      <point x="169" y="600"/>
      <point x="165" y="579"/>
    </contour>
  </outline>
</glyph>
<glyph name="uacute" format="1">
  <advance width="378"/>
  <unicode hex="00FA"/>
  <outline>
    <contour>
      <point x="265" y="44" type="curve"/>
      <point x="258" y="0" type="line"/>
      <point x="309" y="0" type="line"/>
      <point x="389" y="454" type="line"/>
      <point x="338" y="454" type="line"/>
      <point x="285" y="156" type="line" smooth="yes"/>
      <point x="274" y="92"/>
      <point x="214" y="40"/>
      <point x="150" y="40" type="curve" smooth="yes"/>
      <point x="92" y="40"/>
      <point x="35" y="62"/>
      <point x="50" y="145" type="curve" smooth="yes"/>
      <point x="105" y="454" type="line"/>
      <point x="54" y="454" type="line"/>
      <point x="-1" y="142" type="line" smooth="yes"/>
      <point x="-20" y="39"/>
      <point x="29" y="-9"/>
      <point x="130" y="-9" type="curve" smooth="yes"/>
      <point x="175" y="-9"/>
      <point x="228" y="8"/>
    </contour>
    <contour>
      <point x="268" y="590" type="curve"/>
      <point x="216" y="493" type="line"/>
      <point x="248" y="493" type="line"/>
      <point x="309" y="565" type="line"/>
      <point x="322" y="578"/>
      <point x="325" y="599"/>
      <point x="311" y="608" type="curve" smooth="yes"/>
      <point x="296" y="617"/>
      <point x="276" y="607"/>
    </contour>
  </outline>
</glyph>
<glyph name="udieresis" format="1">
  <advance width="380"/>
  <unicode hex="00FC"/>
  <outline>
    <contour>
      <point x="266" y="44" type="curve"/>
      <point x="259" y="0" type="line"/>
      <point x="310" y="0" type="line"/>
      <point x="390" y="454" type="line"/>
      <point x="339" y="454" type="line"/>
      <point x="286" y="156" type="line" smooth="yes"/>
      <point x="275" y="92"/>
      <point x="215" y="40"/>
      <point x="151" y="40" type="curve" smooth="yes"/>
      <point x="93" y="40"/>
      <point x="36" y="62"/>
      <point x="51" y="145" type="curve" smooth="yes"/>
      <point x="106" y="454" type="line"/>
      <point x="55" y="454" type="line"/>
      <point x="0" y="142" type="line" smooth="yes"/>
      <point x="-19" y="39"/>
      <point x="30" y="-9"/>
      <point x="131" y="-9" type="curve" smooth="yes"/>
      <point x="176" y="-9"/>
      <point x="229" y="8"/>
    </contour>
    <contour>
      <point x="316" y="578" type="curve" smooth="yes"/>
      <point x="299" y="578"/>
      <point x="283" y="564"/>
      <point x="280" y="547" type="curve" smooth="yes"/>
      <point x="277" y="530"/>
      <point x="289" y="517"/>
      <point x="306" y="517" type="curve" smooth="yes"/>
      <point x="322" y="517"/>
      <point x="338" y="530"/>
      <point x="341" y="547" type="curve" smooth="yes"/>
      <point x="344" y="564"/>
      <point x="332" y="578"/>
    </contour>
    <contour>
      <point x="172" y="578" type="curve" smooth="yes"/>
      <point x="155" y="578"/>
      <point x="140" y="564"/>
      <point x="137" y="547" type="curve" smooth="yes"/>
      <point x="134" y="530"/>
      <point x="145" y="517"/>
      <point x="162" y="517" type="curve" smooth="yes"/>
      <point x="179" y="517"/>
      <point x="194" y="530"/>
      <point x="197" y="547" type="curve" smooth="yes"/>
      <point x="200" y="564"/>
      <point x="189" y="578"/>
    </contour>
  </outline>
</glyph>
<glyph name="yacute" format="1">
  <advance width="399"/>
  <unicode hex="00FD"/>
  <outline>
    <contour>
      <point x="413" y="425" type="curve"/>
      <point x="402" y="464" type="line"/>
      <point x="356" y="449"/>
      <point x="330" y="412"/>
      <point x="323" y="371" type="curve" smooth="yes"/>
      <point x="285" y="157" type="line" smooth="yes"/>
      <point x="274" y="93"/>
      <point x="214" y="40"/>
      <point x="150" y="40" type="curve" smooth="yes"/>
      <point x="93" y="40"/>
      <point x="36" y="63"/>
      <point x="50" y="146" type="curve" smooth="yes"/>
      <point x="105" y="454" type="line"/>
      <point x="54" y="454" type="line"/>
      <point x="-1" y="143" type="line" smooth="yes"/>
      <point x="-19" y="40"/>
      <point x="30" y="-8"/>
      <point x="130" y="-8" type="curve" smooth="yes"/>
      <point x="175" y="-8"/>
      <point x="229" y="9"/>
      <point x="265" y="45" type="curve"/>
      <point x="248" y="-55" type="line" smooth="yes"/>
      <point x="243" y="-81"/>
      <point x="235" y="-102"/>
      <point x="220" y="-118" type="curve" smooth="yes"/>
      <point x="207" y="-132"/>
      <point x="191" y="-143"/>
      <point x="172" y="-150" type="curve"/>
      <point x="180" y="-189" type="line"/>
      <point x="211" y="-179"/>
      <point x="235" y="-167"/>
      <point x="254" y="-150" type="curve" smooth="yes"/>
      <point x="278" y="-127"/>
      <point x="291" y="-97"/>
      <point x="299" y="-56" type="curve" smooth="yes"/>
      <point x="374" y="370" type="line" smooth="yes"/>
      <point x="380" y="407"/>
      <point x="395" y="418"/>
    </contour>
    <contour>
      <point x="281" y="591" type="curve"/>
      <point x="229" y="494" type="line"/>
      <point x="261" y="494" type="line"/>
      <point x="322" y="565" type="line"/>
      <point x="336" y="579"/>
      <point x="338" y="600"/>
      <point x="324" y="609" type="curve" smooth="yes"/>
      <point x="309" y="618"/>
      <point x="289" y="608"/>
    </contour>
  </outline>
</glyph>
<glyph name="thorn" format="1">
  <advance width="381"/>
  <unicode hex="00FE"/>
  <outline>
    <contour>
      <point x="108" y="412" type="curve"/>
      <point x="147" y="635" type="line"/>
      <point x="96" y="635" type="line"/>
      <point x="-15" y="0" type="line"/>
      <point x="36" y="0" type="line"/>
      <point x="65" y="168" type="line"/>
      <point x="82" y="129"/>
      <point x="133" y="105"/>
      <point x="177" y="105" type="curve" smooth="yes"/>
      <point x="278" y="105"/>
      <point x="358" y="173"/>
      <point x="377" y="282" type="curve" smooth="yes"/>
      <point x="395" y="384"/>
      <point x="343" y="461"/>
      <point x="243" y="461" type="curve" smooth="yes"/>
      <point x="191" y="461"/>
      <point x="148" y="445"/>
    </contour>
    <contour>
      <point x="231" y="415" type="curve" smooth="yes"/>
      <point x="297" y="415"/>
      <point x="343" y="378"/>
      <point x="327" y="287" type="curve" smooth="yes"/>
      <point x="311" y="197"/>
      <point x="256" y="154"/>
      <point x="184" y="154" type="curve" smooth="yes"/>
      <point x="113" y="154"/>
      <point x="72" y="200"/>
      <point x="88" y="294" type="curve"/>
      <point x="107" y="377"/>
      <point x="167" y="415"/>
    </contour>
  </outline>
</glyph>
<glyph name="amacron" format="1">
  <advance width="379"/>
  <unicode hex="0101"/>
  <outline>
    <contour>
      <point x="325" y="317" type="curve"/>
      <point x="288" y="341"/>
      <point x="234" y="365"/>
      <point x="175" y="365" type="curve" smooth="yes"/>
      <point x="102" y="365"/>
      <point x="30" y="330"/>
      <point x="12" y="228" type="curve" smooth="yes"/>
      <point x="7" y="203"/>
      <point x="3" y="178"/>
      <point x="-2" y="153" type="curve" smooth="yes"/>
      <point x="-25" y="19"/>
      <point x="58" y="-13"/>
      <point x="176" y="-9" type="curve" smooth="yes"/>
      <point x="221" y="-8"/>
      <point x="321" y="0"/>
      <point x="321" y="0" type="curve"/>
      <point x="336" y="87"/>
      <point x="351" y="174"/>
      <point x="367" y="261" type="curve" smooth="yes"/>
      <point x="381" y="341"/>
      <point x="385" y="404"/>
      <point x="333" y="436" type="curve" smooth="yes"/>
      <point x="299" y="458"/>
      <point x="255" y="461"/>
      <point x="213" y="461" type="curve"/>
      <point x="204" y="422" type="line"/>
      <point x="238" y="422"/>
      <point x="268" y="419"/>
      <point x="289" y="408" type="curve" smooth="yes"/>
      <point x="320" y="393"/>
      <point x="334" y="367"/>
    </contour>
    <contour>
      <point x="318" y="275" type="curve"/>
      <point x="304" y="197"/>
      <point x="291" y="120"/>
      <point x="277" y="42" type="curve"/>
      <point x="277" y="42"/>
      <point x="239" y="38"/>
      <point x="180" y="35" type="curve" smooth="yes"/>
      <point x="58" y="30"/>
      <point x="34" y="73"/>
      <point x="50" y="159" type="curve" smooth="yes"/>
      <point x="53" y="177"/>
      <point x="58" y="205"/>
      <point x="61" y="226" type="curve" smooth="yes"/>
      <point x="76" y="308"/>
      <point x="130" y="322"/>
      <point x="163" y="322" type="curve" smooth="yes"/>
      <point x="221" y="322"/>
      <point x="272" y="299"/>
    </contour>
    <contour>
      <point x="344" y="552" type="line"/>
      <point x="143" y="552" type="line"/>
      <point x="134" y="500" type="line"/>
      <point x="335" y="500" type="line"/>
    </contour>
  </outline>
</glyph>
<glyph name="Abreve" format="1">
  <advance width="448"/>
  <unicode hex="0102"/>
  <outline>
    <contour>
      <point x="286" y="635" type="line"/>
      <point x="-28" y="0" type="line"/>
      <point x="26" y="0" type="line"/>
      <point x="136" y="222" type="line"/>
      <point x="342" y="222" type="line"/>
      <point x="376" y="0" type="line"/>
      <point x="430" y="0" type="line"/>
      <point x="334" y="635" type="line"/>
    </contour>
    <contour>
      <point x="337" y="272" type="line"/>
      <point x="158" y="272" type="line"/>
      <point x="297" y="556" type="line"/>
    </contour>
    <contour>
      <point x="278" y="777" type="curve" smooth="yes"/>
      <point x="279" y="783" type="line"/>
      <point x="237" y="783" type="line"/>
      <point x="236" y="777" type="line" smooth="yes"/>
      <point x="225" y="720"/>
      <point x="263" y="674"/>
      <point x="320" y="674" type="curve" smooth="yes"/>
      <point x="377" y="674"/>
      <point x="431" y="720"/>
      <point x="442" y="777" type="curve" smooth="yes"/>
      <point x="443" y="783" type="line"/>
      <point x="402" y="783" type="line"/>
      <point x="401" y="777" type="line" smooth="yes"/>
      <point x="395" y="743"/>
      <point x="362" y="715"/>
      <point x="328" y="715" type="curve" smooth="yes"/>
      <point x="294" y="715"/>
      <point x="272" y="743"/>
    </contour>
  </outline>
</glyph>
<glyph name="Aogonek" format="1">
  <advance width="470"/>
  <unicode hex="0104"/>
  <outline>
    <contour>
      <point x="286" y="635" type="line"/>
      <point x="-28" y="0" type="line"/>
      <point x="26" y="0" type="line"/>
      <point x="136" y="222" type="line"/>
      <point x="342" y="222" type="line"/>
      <point x="376" y="0" type="line"/>
      <point x="430" y="0" type="line"/>
      <point x="334" y="635" type="line"/>
    </contour>
    <contour>
      <point x="337" y="272" type="line"/>
      <point x="158" y="272" type="line"/>
      <point x="297" y="556" type="line"/>
    </contour>
    <contour>
      <point x="337" y="-115" type="curve" smooth="yes"/>
      <point x="422" y="-2" type="line"/>
      <point x="424" y="6" type="line"/>
      <point x="383" y="3" type="line"/>
      <point x="382" y="-1" type="line"/>
      <point x="307" y="-102" type="line" smooth="yes"/>
      <point x="258" y="-168"/>
      <point x="291" y="-232"/>
      <point x="376" y="-209" type="curve" smooth="yes"/>
      <point x="394" y="-204"/>
      <point x="474" y="-177"/>
      <point x="476" y="-176" type="curve"/>
      <point x="466" y="-140" type="line"/>
      <point x="466" y="-140"/>
      <point x="426" y="-153"/>
      <point x="372" y="-171" type="curve" smooth="yes"/>
      <point x="326" y="-186"/>
      <point x="307" y="-157"/>
    </contour>
  </outline>
</glyph>
<glyph name="aogonek" format="1">
  <advance width="380"/>
  <unicode hex="0105"/>
  <outline>
    <contour>
      <point x="324" y="317" type="curve"/>
      <point x="287" y="341"/>
      <point x="233" y="365"/>
      <point x="174" y="365" type="curve" smooth="yes"/>
      <point x="101" y="365"/>
      <point x="29" y="330"/>
      <point x="11" y="228" type="curve" smooth="yes"/>
      <point x="6" y="203"/>
      <point x="2" y="178"/>
      <point x="-3" y="153" type="curve" smooth="yes"/>
      <point x="-26" y="19"/>
      <point x="57" y="-13"/>
      <point x="175" y="-9" type="curve" smooth="yes"/>
      <point x="220" y="-8"/>
      <point x="320" y="0"/>
      <point x="320" y="0" type="curve"/>
      <point x="335" y="87"/>
      <point x="350" y="174"/>
      <point x="366" y="261" type="curve" smooth="yes"/>
      <point x="380" y="341"/>
      <point x="384" y="404"/>
      <point x="332" y="436" type="curve" smooth="yes"/>
      <point x="298" y="458"/>
      <point x="254" y="461"/>
      <point x="212" y="461" type="curve"/>
      <point x="203" y="422" type="line"/>
      <point x="237" y="422"/>
      <point x="267" y="419"/>
      <point x="288" y="408" type="curve" smooth="yes"/>
      <point x="319" y="393"/>
      <point x="333" y="367"/>
    </contour>
    <contour>
      <point x="317" y="275" type="curve"/>
      <point x="303" y="197"/>
      <point x="290" y="120"/>
      <point x="276" y="42" type="curve"/>
      <point x="276" y="42"/>
      <point x="238" y="38"/>
      <point x="179" y="35" type="curve" smooth="yes"/>
      <point x="57" y="30"/>
      <point x="33" y="73"/>
      <point x="49" y="159" type="curve" smooth="yes"/>
      <point x="52" y="177"/>
      <point x="57" y="205"/>
      <point x="60" y="226" type="curve" smooth="yes"/>
      <point x="75" y="308"/>
      <point x="129" y="322"/>
      <point x="162" y="322" type="curve" smooth="yes"/>
      <point x="220" y="322"/>
      <point x="271" y="299"/>
    </contour>
    <contour>
      <point x="225" y="-120" type="curve" smooth="yes"/>
      <point x="254" y="-82"/>
      <point x="282" y="-45"/>
      <point x="310" y="-7" type="curve"/>
      <point x="312" y="1" type="line"/>
      <point x="299" y="0"/>
      <point x="284" y="-1"/>
      <point x="271" y="-2" type="curve"/>
      <point x="271" y="-3"/>
      <point x="271" y="-5"/>
      <point x="270" y="-6" type="curve"/>
      <point x="195" y="-107" type="line" smooth="yes"/>
      <point x="146" y="-172"/>
      <point x="179" y="-236"/>
      <point x="263" y="-213" type="curve" smooth="yes"/>
      <point x="281" y="-209"/>
      <point x="362" y="-182"/>
      <point x="364" y="-181" type="curve"/>
      <point x="354" y="-145" type="line"/>
      <point x="354" y="-145"/>
      <point x="314" y="-158"/>
      <point x="261" y="-175" type="curve" smooth="yes"/>
      <point x="213" y="-191"/>
      <point x="194" y="-162"/>
    </contour>
  </outline>
</glyph>
<glyph name="Ccircumflex" format="1">
  <advance width="364"/>
  <unicode hex="0108"/>
  <outline>
    <contour>
      <point x="363" y="579" type="curve"/>
      <point x="384" y="614" type="line"/>
      <point x="348" y="634"/>
      <point x="306" y="644"/>
      <point x="260" y="644" type="curve" smooth="yes"/>
      <point x="223" y="644"/>
      <point x="189" y="636"/>
      <point x="159" y="621" type="curve" smooth="yes"/>
      <point x="100" y="588"/>
      <point x="65" y="536"/>
      <point x="51" y="457" type="curve" smooth="yes"/>
      <point x="0" y="166" type="line" smooth="yes"/>
      <point x="-14" y="90"/>
      <point x="7" y="38"/>
      <point x="47" y="14" type="curve" smooth="yes"/>
      <point x="87" y="-9"/>
      <point x="131" y="-9"/>
      <point x="150" y="-9" type="curve" smooth="yes"/>
      <point x="196" y="-9"/>
      <point x="247" y="1"/>
      <point x="302" y="21" type="curve"/>
      <point x="299" y="63" type="line"/>
      <point x="243" y="45"/>
      <point x="198" y="36"/>
      <point x="162" y="36" type="curve" smooth="yes"/>
      <point x="120" y="36"/>
      <point x="92" y="44"/>
      <point x="74" y="59" type="curve" smooth="yes"/>
      <point x="46" y="82"/>
      <point x="43" y="120"/>
      <point x="51" y="168" type="curve" smooth="yes"/>
      <point x="103" y="465" type="line" smooth="yes"/>
      <point x="112" y="516"/>
      <point x="134" y="552"/>
      <point x="169" y="574" type="curve" smooth="yes"/>
      <point x="195" y="590"/>
      <point x="228" y="598"/>
      <point x="268" y="598" type="curve" smooth="yes"/>
      <point x="299" y="598"/>
      <point x="331" y="592"/>
    </contour>
    <contour>
      <point x="270" y="755" type="line"/>
      <point x="337" y="675" type="line"/>
      <point x="378" y="710" type="line"/>
      <point x="282" y="824" type="line"/>
      <point x="142" y="709" type="line"/>
      <point x="170" y="674" type="line"/>
    </contour>
  </outline>
</glyph>
<glyph name="ccircumflex" format="1">
  <advance width="336"/>
  <unicode hex="0109"/>
  <outline>
    <contour>
      <point x="314" y="391" type="curve"/>
      <point x="336" y="433" type="line"/>
      <point x="288" y="457"/>
      <point x="229" y="469"/>
      <point x="175" y="458" type="curve" smooth="yes"/>
      <point x="133" y="449"/>
      <point x="94" y="427"/>
      <point x="64" y="387" type="curve" smooth="yes"/>
      <point x="41" y="358"/>
      <point x="30" y="329"/>
      <point x="20" y="289" type="curve"/>
      <point x="-3" y="157" type="line" smooth="yes"/>
      <point x="-19" y="68"/>
      <point x="13" y="21"/>
      <point x="72" y="1" type="curve" smooth="yes"/>
      <point x="123" y="-16"/>
      <point x="198" y="-12"/>
      <point x="262" y="5" type="curve"/>
      <point x="260" y="50" type="line"/>
      <point x="260" y="50"/>
      <point x="145" y="24"/>
      <point x="91" y="47" type="curve" smooth="yes"/>
      <point x="46" y="65"/>
      <point x="39" y="108"/>
      <point x="49" y="168" type="curve" smooth="yes"/>
      <point x="68" y="277" type="line" smooth="yes"/>
      <point x="74" y="309"/>
      <point x="85" y="337"/>
      <point x="100" y="358" type="curve" smooth="yes"/>
      <point x="120" y="387"/>
      <point x="146" y="405"/>
      <point x="175" y="412" type="curve" smooth="yes"/>
      <point x="216" y="422"/>
      <point x="275" y="411"/>
    </contour>
    <contour>
      <point x="248" y="579" type="line"/>
      <point x="314" y="499" type="line"/>
      <point x="355" y="533" type="line"/>
      <point x="260" y="647" type="line"/>
      <point x="119" y="532" type="line"/>
      <point x="148" y="497" type="line"/>
    </contour>
  </outline>
</glyph>
<glyph name="Cdotaccent" format="1">
  <advance width="364"/>
  <unicode hex="010A"/>
  <outline>
    <contour>
      <point x="363" y="579" type="curve"/>
      <point x="384" y="614" type="line"/>
      <point x="348" y="634"/>
      <point x="306" y="644"/>
      <point x="260" y="644" type="curve" smooth="yes"/>
      <point x="223" y="644"/>
      <point x="189" y="636"/>
      <point x="159" y="621" type="curve" smooth="yes"/>
      <point x="100" y="588"/>
      <point x="65" y="536"/>
      <point x="51" y="457" type="curve" smooth="yes"/>
      <point x="0" y="166" type="line" smooth="yes"/>
      <point x="-14" y="90"/>
      <point x="7" y="38"/>
      <point x="47" y="14" type="curve" smooth="yes"/>
      <point x="87" y="-9"/>
      <point x="131" y="-9"/>
      <point x="150" y="-9" type="curve" smooth="yes"/>
      <point x="196" y="-9"/>
      <point x="247" y="1"/>
      <point x="302" y="21" type="curve"/>
      <point x="299" y="63" type="line"/>
      <point x="243" y="45"/>
      <point x="198" y="36"/>
      <point x="162" y="36" type="curve" smooth="yes"/>
      <point x="120" y="36"/>
      <point x="92" y="44"/>
      <point x="74" y="59" type="curve" smooth="yes"/>
      <point x="46" y="82"/>
      <point x="43" y="120"/>
      <point x="51" y="168" type="curve" smooth="yes"/>
      <point x="103" y="465" type="line" smooth="yes"/>
      <point x="112" y="516"/>
      <point x="134" y="552"/>
      <point x="169" y="574" type="curve" smooth="yes"/>
      <point x="195" y="590"/>
      <point x="228" y="598"/>
      <point x="268" y="598" type="curve" smooth="yes"/>
      <point x="299" y="598"/>
      <point x="331" y="592"/>
    </contour>
    <contour>
      <point x="271" y="759" type="curve" smooth="yes"/>
      <point x="254" y="759"/>
      <point x="238" y="745"/>
      <point x="235" y="728" type="curve" smooth="yes"/>
      <point x="232" y="711"/>
      <point x="244" y="698"/>
      <point x="261" y="698" type="curve" smooth="yes"/>
      <point x="278" y="698"/>
      <point x="293" y="711"/>
      <point x="296" y="728" type="curve" smooth="yes"/>
      <point x="299" y="745"/>
      <point x="288" y="759"/>
    </contour>
  </outline>
</glyph>
<glyph name="ccaron" format="1">
  <advance width="340"/>
  <unicode hex="010D"/>
  <outline>
    <contour>
      <point x="314" y="391" type="curve"/>
      <point x="336" y="433" type="line"/>
      <point x="288" y="457"/>
      <point x="229" y="469"/>
      <point x="175" y="458" type="curve" smooth="yes"/>
      <point x="133" y="449"/>
      <point x="94" y="427"/>
      <point x="64" y="387" type="curve" smooth="yes"/>
      <point x="41" y="358"/>
      <point x="30" y="329"/>
      <point x="20" y="289" type="curve"/>
      <point x="-3" y="157" type="line" smooth="yes"/>
      <point x="-19" y="68"/>
      <point x="13" y="21"/>
      <point x="72" y="1" type="curve" smooth="yes"/>
      <point x="123" y="-16"/>
      <point x="198" y="-12"/>
      <point x="262" y="5" type="curve"/>
      <point x="260" y="50" type="line"/>
      <point x="260" y="50"/>
      <point x="145" y="24"/>
      <point x="91" y="47" type="curve" smooth="yes"/>
      <point x="46" y="65"/>
      <point x="39" y="108"/>
      <point x="49" y="168" type="curve" smooth="yes"/>
      <point x="68" y="277" type="line" smooth="yes"/>
      <point x="74" y="309"/>
      <point x="85" y="337"/>
      <point x="100" y="358" type="curve" smooth="yes"/>
      <point x="120" y="387"/>
      <point x="146" y="405"/>
      <point x="175" y="412" type="curve" smooth="yes"/>
      <point x="216" y="422"/>
      <point x="275" y="411"/>
    </contour>
    <contour>
      <point x="125" y="612" type="line"/>
      <point x="221" y="498" type="line"/>
      <point x="362" y="613" type="line"/>
      <point x="333" y="648" type="line"/>
      <point x="233" y="567" type="line"/>
      <point x="167" y="647" type="line"/>
    </contour>
  </outline>
</glyph>
<glyph name="dcaron" format="1">
  <advance width="493"/>
  <unicode hex="010F"/>
  <outline>
    <contour>
      <point x="323" y="0" type="curve"/>
      <point x="434" y="635" type="line"/>
      <point x="383" y="635" type="line"/>
      <point x="347" y="428" type="line"/>
      <point x="309" y="446"/>
      <point x="265" y="462"/>
      <point x="206" y="462" type="curve" smooth="yes"/>
      <point x="133" y="462"/>
      <point x="49" y="427"/>
      <point x="31" y="325" type="curve" smooth="yes"/>
      <point x="21" y="268"/>
      <point x="11" y="210"/>
      <point x="0" y="153" type="curve" smooth="yes"/>
      <point x="-23" y="19"/>
      <point x="60" y="-13"/>
      <point x="178" y="-9" type="curve" smooth="yes"/>
      <point x="223" y="-8"/>
      <point x="323" y="0"/>
    </contour>
    <contour>
      <point x="339" y="384" type="curve"/>
      <point x="319" y="270"/>
      <point x="299" y="156"/>
      <point x="279" y="42" type="curve"/>
      <point x="279" y="42"/>
      <point x="241" y="38"/>
      <point x="183" y="35" type="curve" smooth="yes"/>
      <point x="60" y="30"/>
      <point x="36" y="73"/>
      <point x="52" y="159" type="curve" smooth="yes"/>
      <point x="55" y="177"/>
      <point x="77" y="302"/>
      <point x="80" y="322" type="curve" smooth="yes"/>
      <point x="95" y="405"/>
      <point x="161" y="419"/>
      <point x="194" y="419" type="curve" smooth="yes"/>
      <point x="252" y="419"/>
      <point x="294" y="404"/>
    </contour>
    <contour>
      <point x="445" y="494" type="curve"/>
      <point x="459" y="483" type="line"/>
      <point x="479" y="499"/>
      <point x="516" y="535"/>
      <point x="526" y="592" type="curve" smooth="yes"/>
      <point x="529" y="610"/>
      <point x="517" y="622"/>
      <point x="500" y="622" type="curve" smooth="yes"/>
      <point x="484" y="622"/>
      <point x="468" y="609"/>
      <point x="465" y="592" type="curve" smooth="yes"/>
      <point x="462" y="577"/>
      <point x="471" y="565"/>
      <point x="485" y="562" type="curve"/>
      <point x="479" y="543"/>
      <point x="468" y="518"/>
    </contour>
  </outline>
</glyph>
<glyph name="dslash" format="1">
  <advance width="438"/>
  <unicode hex="0111"/>
  <outline>
    <contour>
      <point x="323" y="0" type="curve"/>
      <point x="413" y="511" type="line"/>
      <point x="456" y="511" type="line"/>
      <point x="464" y="559" type="line"/>
      <point x="421" y="559" type="line"/>
      <point x="434" y="635" type="line"/>
      <point x="383" y="635" type="line"/>
      <point x="370" y="559" type="line"/>
      <point x="249" y="559" type="line"/>
      <point x="241" y="511" type="line"/>
      <point x="362" y="511" type="line"/>
      <point x="347" y="428" type="line"/>
      <point x="309" y="446"/>
      <point x="265" y="462"/>
      <point x="206" y="462" type="curve" smooth="yes"/>
      <point x="133" y="462"/>
      <point x="49" y="427"/>
      <point x="31" y="325" type="curve" smooth="yes"/>
      <point x="0" y="153" type="line" smooth="yes"/>
      <point x="-23" y="19"/>
      <point x="60" y="-13"/>
      <point x="178" y="-9" type="curve" smooth="yes"/>
      <point x="223" y="-8"/>
      <point x="323" y="0"/>
    </contour>
    <contour>
      <point x="339" y="384" type="curve"/>
      <point x="279" y="42" type="line"/>
      <point x="279" y="42"/>
      <point x="241" y="38"/>
      <point x="183" y="35" type="curve" smooth="yes"/>
      <point x="60" y="30"/>
      <point x="36" y="73"/>
      <point x="52" y="159" type="curve" smooth="yes"/>
      <point x="80" y="322" type="line" smooth="yes"/>
      <point x="95" y="405"/>
      <point x="161" y="419"/>
      <point x="194" y="419" type="curve" smooth="yes"/>
      <point x="252" y="419"/>
      <point x="294" y="404"/>
    </contour>
  </outline>
</glyph>
<glyph name="emacron" format="1">
  <advance width="353"/>
  <unicode hex="0113"/>
  <outline>
    <contour>
      <point x="43" y="121" type="curve" smooth="yes"/>
      <point x="53" y="177" type="line"/>
      <point x="331" y="192" type="line"/>
      <point x="352" y="310" type="line" smooth="yes"/>
      <point x="360" y="356"/>
      <point x="353" y="393"/>
      <point x="332" y="419" type="curve" smooth="yes"/>
      <point x="309" y="447"/>
      <point x="271" y="462"/>
      <point x="219" y="462" type="curve" smooth="yes"/>
      <point x="174" y="462"/>
      <point x="134" y="451"/>
      <point x="102" y="430" type="curve" smooth="yes"/>
      <point x="63" y="404"/>
      <point x="34" y="362"/>
      <point x="25" y="307" type="curve" smooth="yes"/>
      <point x="-8" y="121" type="line" smooth="yes"/>
      <point x="-17" y="73"/>
      <point x="-7" y="42"/>
      <point x="11" y="22" type="curve" smooth="yes"/>
      <point x="42" y="-12"/>
      <point x="98" y="-11"/>
      <point x="125" y="-11" type="curve" smooth="yes"/>
      <point x="171" y="-10"/>
      <point x="229" y="4"/>
      <point x="280" y="32" type="curve"/>
      <point x="267" y="71" type="line"/>
      <point x="217" y="46"/>
      <point x="172" y="33"/>
      <point x="128" y="33" type="curve" smooth="yes"/>
      <point x="110" y="33"/>
      <point x="73" y="33"/>
      <point x="55" y="57" type="curve"/>
      <point x="43" y="70"/>
      <point x="37" y="90"/>
    </contour>
    <contour>
      <point x="302" y="316" type="curve" smooth="yes"/>
      <point x="298" y="290"/>
      <point x="293" y="263"/>
      <point x="288" y="237" type="curve"/>
      <point x="62" y="227" type="line"/>
      <point x="66" y="253"/>
      <point x="71" y="280"/>
      <point x="75" y="306" type="curve" smooth="yes"/>
      <point x="82" y="344"/>
      <point x="98" y="371"/>
      <point x="121" y="390" type="curve" smooth="yes"/>
      <point x="146" y="409"/>
      <point x="176" y="419"/>
      <point x="210" y="419" type="curve" smooth="yes"/>
      <point x="240" y="419"/>
      <point x="270" y="413"/>
      <point x="293" y="380" type="curve" smooth="yes"/>
      <point x="304" y="363"/>
      <point x="307" y="343"/>
    </contour>
    <contour>
      <point x="331" y="550" type="line"/>
      <point x="130" y="550" type="line"/>
      <point x="121" y="498" type="line"/>
      <point x="322" y="498" type="line"/>
    </contour>
  </outline>
</glyph>
<glyph name="Edotaccent" format="1">
  <advance width="371"/>
  <unicode hex="0116"/>
  <outline>
    <contour>
      <point x="293" y="45" type="line"/>
      <point x="43" y="45" type="line"/>
      <point x="93" y="324" type="line"/>
      <point x="249" y="324" type="line"/>
      <point x="274" y="374" type="line"/>
      <point x="101" y="374" type="line"/>
      <point x="139" y="587" type="line"/>
      <point x="391" y="587" type="line"/>
      <point x="399" y="635" type="line"/>
      <point x="96" y="635" type="line"/>
      <point x="-15" y="0" type="line"/>
      <point x="286" y="0" type="line"/>
    </contour>
    <contour>
      <point x="281" y="760" type="curve" smooth="yes"/>
      <point x="264" y="760"/>
      <point x="248" y="746"/>
      <point x="245" y="729" type="curve" smooth="yes"/>
      <point x="242" y="713"/>
      <point x="253" y="699"/>
      <point x="270" y="699" type="curve" smooth="yes"/>
      <point x="287" y="699"/>
      <point x="303" y="713"/>
      <point x="306" y="729" type="curve" smooth="yes"/>
      <point x="309" y="746"/>
      <point x="298" y="760"/>
    </contour>
  </outline>
</glyph>
